Varta-Light.ufo
<glyph name="dollar" format="2">
  <advance width="1003.0"/>
  <unicode hex="0024"/>
  <outline>
    <contour>
      <point x="458.0" y="-225.0" type="line"/>
      <point x="564.0" y="-225.0" type="line"/>
      <point x="564.0" y="-20.0" type="line"/>
      <point x="753.0" y="2.0"/>
      <point x="880.0" y="133.0"/>
      <point x="880.0" y="328.0" type="curve" smooth="yes"/>
      <point x="880.0" y="779.0"/>
      <point x="300.0" y="681.0"/>
      <point x="300.0" y="1003.0" type="curve" smooth="yes"/>
      <point x="300.0" y="1129.0"/>
      <point x="386.0" y="1216.0"/>
      <point x="518.0" y="1216.0" type="curve" smooth="yes"/>
      <point x="636.0" y="1216.0"/>
      <point x="698.0" y="1183.0"/>
      <point x="775.0" y="1108.0" type="curve"/>
      <point x="850.0" y="1192.0" type="line"/>
      <point x="778.0" y="1267.0"/>
      <point x="695.0" y="1318.0"/>
      <point x="564.0" y="1330.0" type="curve"/>
      <point x="564.0" y="1533.0" type="line"/>
      <point x="458.0" y="1533.0" type="line"/>
      <point x="458.0" y="1329.0" type="line"/>
      <point x="284.0" y="1304.0"/>
      <point x="165.0" y="1175.0"/>
      <point x="165.0" y="997.0" type="curve" smooth="yes"/>
      <point x="165.0" y="591.0"/>
      <point x="744.0" y="679.0"/>
      <point x="744.0" y="318.0" type="curve" smooth="yes"/>
      <point x="744.0" y="182.0"/>
      <point x="661.0" y="90.0"/>
      <point x="501.0" y="90.0" type="curve" smooth="yes"/>
      <point x="369.0" y="90.0"/>
      <point x="262.0" y="145.0"/>
      <point x="178.0" y="218.0" type="curve"/>
      <point x="112.0" y="123.0" type="line"/>
      <point x="196.0" y="45.0"/>
      <point x="323.0" y="-11.0"/>
      <point x="458.0" y="-23.0" type="curve"/>
    </contour>
  </outline>
</glyph>
<glyph name="period" format="2">
  <advance width="485.0"/>
  <unicode hex="002E"/>
  <outline>
    <contour>
      <point x="243.0" y="-25.0" type="curve" smooth="yes"/>
      <point x="301.0" y="-25.0"/>
      <point x="350.0" y="21.0"/>
      <point x="350.0" y="88.0" type="curve" smooth="yes"/>
      <point x="350.0" y="158.0"/>
      <point x="301.0" y="204.0"/>
      <point x="243.0" y="204.0" type="curve" smooth="yes"/>
      <point x="185.0" y="204.0"/>
      <point x="135.0" y="158.0"/>
      <point x="135.0" y="88.0" type="curve" smooth="yes"/>
      <point x="135.0" y="21.0"/>
      <point x="185.0" y="-25.0"/>
    </contour>
  </outline>
</glyph>
<glyph name="zero" format="2">
  <advance width="1003.0"/>
  <unicode hex="0030"/>
  <outline>
    <contour>
      <point x="501.0" y="-25.0" type="curve" smooth="yes"/>
      <point x="763.0" y="-25.0"/>
      <point x="909.0" y="244.0"/>
      <point x="909.0" y="686.0" type="curve" smooth="yes"/>
      <point x="909.0" y="1128.0"/>
      <point x="763.0" y="1370.0"/>
      <point x="501.0" y="1370.0" type="curve" smooth="yes"/>
      <point x="238.0" y="1370.0"/>
      <point x="93.0" y="1128.0"/>
      <point x="93.0" y="686.0" type="curve" smooth="yes"/>
      <point x="93.0" y="244.0"/>
      <point x="238.0" y="-25.0"/>
    </contour>
    <contour>
      <point x="501.0" y="87.0" type="curve" smooth="yes"/>
      <point x="333.0" y="87.0"/>
      <point x="228.0" y="292.0"/>
      <point x="228.0" y="686.0" type="curve" smooth="yes"/>
      <point x="228.0" y="1080.0"/>
      <point x="333.0" y="1259.0"/>
      <point x="501.0" y="1259.0" type="curve" smooth="yes"/>
      <point x="670.0" y="1259.0"/>
      <point x="774.0" y="1080.0"/>
      <point x="774.0" y="686.0" type="curve" smooth="yes"/>
      <point x="774.0" y="292.0"/>
      <point x="670.0" y="87.0"/>
    </contour>
  </outline>
</glyph>
<glyph name="one" format="2">
  <advance width="1003.0"/>
  <unicode hex="0031"/>
  <outline>
    <contour>
      <point x="166.0" y="0.0" type="line"/>
      <point x="881.0" y="0.0" type="line"/>
      <point x="881.0" y="115.0" type="line"/>
      <point x="605.0" y="115.0" type="line"/>
      <point x="605.0" y="1349.0" type="line"/>
      <point x="499.0" y="1349.0" type="line"/>
      <point x="431.0" y="1309.0"/>
      <point x="346.0" y="1278.0"/>
      <point x="232.0" y="1258.0" type="curve"/>
      <point x="232.0" y="1165.0" type="line"/>
      <point x="468.0" y="1179.0" type="line"/>
      <point x="468.0" y="115.0" type="line"/>
      <point x="166.0" y="115.0" type="line"/>
    </contour>
  </outline>
</glyph>
<glyph name="three" format="2">
  <advance width="1003.0"/>
  <unicode hex="0033"/>
  <outline>
    <contour>
      <point x="480.0" y="-25.0" type="curve" smooth="yes"/>
      <point x="719.0" y="-25.0"/>
      <point x="897.0" y="122.0"/>
      <point x="897.0" y="351.0" type="curve" smooth="yes"/>
      <point x="897.0" y="533.0"/>
      <point x="768.0" y="654.0"/>
      <point x="609.0" y="687.0" type="curve"/>
      <point x="609.0" y="695.0" type="line"/>
      <point x="751.0" y="746.0"/>
      <point x="851.0" y="872.0"/>
      <point x="851.0" y="1035.0" type="curve" smooth="yes"/>
      <point x="851.0" y="1242.0"/>
      <point x="703.0" y="1370.0"/>
      <point x="475.0" y="1370.0" type="curve" smooth="yes"/>
      <point x="323.0" y="1370.0"/>
      <point x="204.0" y="1305.0"/>
      <point x="107.0" y="1213.0" type="curve"/>
      <point x="183.0" y="1125.0" type="line"/>
      <point x="259.0" y="1204.0"/>
      <point x="356.0" y="1258.0"/>
      <point x="470.0" y="1258.0" type="curve" smooth="yes"/>
      <point x="618.0" y="1258.0"/>
      <point x="711.0" y="1175.0"/>
      <point x="711.0" y="1026.0" type="curve" smooth="yes"/>
      <point x="711.0" y="880.0"/>
      <point x="613.0" y="741.0"/>
      <point x="325.0" y="741.0" type="curve"/>
      <point x="325.0" y="632.0" type="line"/>
      <point x="642.0" y="632.0"/>
      <point x="758.0" y="520.0"/>
      <point x="758.0" y="354.0" type="curve" smooth="yes"/>
      <point x="758.0" y="191.0"/>
      <point x="639.0" y="90.0"/>
      <point x="474.0" y="90.0" type="curve" smooth="yes"/>
      <point x="309.0" y="90.0"/>
      <point x="206.0" y="167.0"/>
      <point x="128.0" y="251.0" type="curve"/>
      <point x="55.0" y="160.0" type="line"/>
      <point x="142.0" y="67.0"/>
      <point x="271.0" y="-25.0"/>
    </contour>
  </outline>
</glyph>
<glyph name="four" format="2">
  <advance width="1003.0"/>
  <unicode hex="0034"/>
  <outline>
    <contour>
      <point x="628.0" y="0.0" type="line"/>
      <point x="758.0" y="0.0" type="line"/>
      <point x="758.0" y="373.0" type="line"/>
      <point x="943.0" y="373.0" type="line"/>
      <point x="943.0" y="485.0" type="line"/>
      <point x="758.0" y="485.0" type="line"/>
      <point x="758.0" y="1350.0" type="line"/>
      <point x="613.0" y="1350.0" type="line"/>
      <point x="34.0" y="460.0" type="line"/>
      <point x="34.0" y="373.0" type="line"/>
      <point x="628.0" y="373.0" type="line"/>
    </contour>
    <contour>
      <point x="184.0" y="485.0" type="line"/>
      <point x="522.0" y="1012.0" type="line"/>
      <point x="559.0" y="1074.0"/>
      <point x="596.0" y="1127.0"/>
      <point x="629.0" y="1188.0" type="curve"/>
      <point x="637.0" y="1188.0" type="line"/>
      <point x="633.0" y="1122.0"/>
      <point x="628.0" y="1012.0"/>
      <point x="628.0" y="946.0" type="curve" smooth="yes"/>
      <point x="628.0" y="485.0" type="line"/>
    </contour>
  </outline>
</glyph>
<glyph name="five" format="2">
  <advance width="1003.0"/>
  <unicode hex="0035"/>
  <outline>
    <contour>
      <point x="473.0" y="-25.0" type="curve" smooth="yes"/>
      <point x="694.0" y="-25.0"/>
      <point x="905.0" y="140.0"/>
      <point x="905.0" y="427.0" type="curve" smooth="yes"/>
      <point x="905.0" y="711.0"/>
      <point x="726.0" y="856.0"/>
      <point x="501.0" y="856.0" type="curve" smooth="yes"/>
      <point x="415.0" y="856.0"/>
      <point x="351.0" y="833.0"/>
      <point x="287.0" y="797.0" type="curve"/>
      <point x="325.0" y="1231.0" type="line"/>
      <point x="837.0" y="1231.0" type="line"/>
      <point x="837.0" y="1350.0" type="line"/>
      <point x="204.0" y="1350.0" type="line"/>
      <point x="160.0" y="715.0" type="line"/>
      <point x="239.0" y="666.0" type="line"/>
      <point x="317.0" y="718.0"/>
      <point x="376.0" y="749.0"/>
      <point x="470.0" y="749.0" type="curve" smooth="yes"/>
      <point x="655.0" y="749.0"/>
      <point x="766.0" y="616.0"/>
      <point x="766.0" y="423.0" type="curve" smooth="yes"/>
      <point x="766.0" y="223.0"/>
      <point x="629.0" y="90.0"/>
      <point x="463.0" y="90.0" type="curve" smooth="yes"/>
      <point x="299.0" y="90.0"/>
      <point x="204.0" y="162.0"/>
      <point x="126.0" y="241.0" type="curve"/>
      <point x="57.0" y="150.0" type="line"/>
      <point x="144.0" y="62.0"/>
      <point x="264.0" y="-25.0"/>
    </contour>
  </outline>
</glyph>
<glyph name="seven" format="2">
  <advance width="1003.0"/>
  <unicode hex="0037"/>
  <outline>
    <contour>
      <point x="371.0" y="0.0" type="curve"/>
      <point x="515.0" y="0.0" type="line"/>
      <point x="533.0" y="511.0"/>
      <point x="606.0" y="862.0"/>
      <point x="917.0" y="1266.0" type="curve"/>
      <point x="917.0" y="1350.0" type="line"/>
      <point x="90.0" y="1350.0" type="line"/>
      <point x="90.0" y="1231.0" type="line"/>
      <point x="757.0" y="1231.0" type="line"/>
      <point x="497.0" y="868.0"/>
      <point x="389.0" y="507.0"/>
    </contour>
  </outline>
</glyph>
<glyph name="nine" format="2">
  <advance width="1003.0"/>
  <unicode hex="0039"/>
  <outline>
    <contour>
      <point x="454.0" y="-25.0" type="curve" smooth="yes"/>
      <point x="718.0" y="-25.0"/>
      <point x="899.0" y="191.0"/>
      <point x="899.0" y="713.0" type="curve" smooth="yes"/>
      <point x="899.0" y="1165.0"/>
      <point x="733.0" y="1370.0"/>
      <point x="468.0" y="1370.0" type="curve" smooth="yes"/>
      <point x="265.0" y="1370.0"/>
      <point x="84.0" y="1190.0"/>
      <point x="84.0" y="946.0" type="curve" smooth="yes"/>
      <point x="84.0" y="679.0"/>
      <point x="225.0" y="510.0"/>
      <point x="452.0" y="510.0" type="curve" smooth="yes"/>
      <point x="566.0" y="510.0"/>
      <point x="690.0" y="571.0"/>
      <point x="769.0" y="677.0" type="curve"/>
      <point x="764.0" y="245.0"/>
      <point x="644.0" y="90.0"/>
      <point x="451.0" y="90.0" type="curve" smooth="yes"/>
      <point x="367.0" y="90.0"/>
      <point x="268.0" y="131.0"/>
      <point x="221.0" y="192.0" type="curve"/>
      <point x="148.0" y="104.0" type="line"/>
      <point x="229.0" y="21.0"/>
      <point x="322.0" y="-25.0"/>
    </contour>
    <contour>
      <point x="474.0" y="616.0" type="curve" smooth="yes"/>
      <point x="296.0" y="616.0"/>
      <point x="215.0" y="767.0"/>
      <point x="215.0" y="946.0" type="curve" smooth="yes"/>
      <point x="215.0" y="1124.0"/>
      <point x="328.0" y="1260.0"/>
      <point x="468.0" y="1260.0" type="curve" smooth="yes"/>
      <point x="659.0" y="1260.0"/>
      <point x="766.0" y="1086.0"/>
      <point x="766.0" y="794.0" type="curve"/>
      <point x="670.0" y="662.0"/>
      <point x="561.0" y="616.0"/>
    </contour>
  </outline>
</glyph>
<glyph name="less" format="2">
  <advance width="1003.0"/>
  <unicode hex="003C"/>
  <outline>
    <contour>
      <point x="933.0" y="281.0" type="line"/>
      <point x="933.0" y="403.0" type="line"/>
      <point x="210.0" y="676.0" type="line"/>
      <point x="210.0" y="684.0" type="line"/>
      <point x="933.0" y="957.0" type="line"/>
      <point x="933.0" y="1079.0" type="line"/>
      <point x="70.0" y="739.0" type="line"/>
      <point x="70.0" y="621.0" type="line"/>
    </contour>
  </outline>
</glyph>
<glyph name="question" format="2">
  <advance width="851.0"/>
  <unicode hex="003F"/>
  <outline>
    <contour>
      <point x="330.0" y="390.0" type="curve"/>
      <point x="451.0" y="390.0" type="line"/>
      <point x="411.0" y="695.0"/>
      <point x="751.0" y="778.0"/>
      <point x="751.0" y="1075.0" type="curve" smooth="yes"/>
      <point x="751.0" y="1282.0"/>
      <point x="626.0" y="1397.0"/>
      <point x="412.0" y="1397.0" type="curve" smooth="yes"/>
      <point x="274.0" y="1397.0"/>
      <point x="156.0" y="1332.0"/>
      <point x="72.0" y="1238.0" type="curve"/>
      <point x="152.0" y="1159.0" type="line"/>
      <point x="217.0" y="1236.0"/>
      <point x="303.0" y="1280.0"/>
      <point x="401.0" y="1280.0" type="curve" smooth="yes"/>
      <point x="549.0" y="1280.0"/>
      <point x="616.0" y="1200.0"/>
      <point x="616.0" y="1069.0" type="curve" smooth="yes"/>
      <point x="616.0" y="811.0"/>
      <point x="284.0" y="732.0"/>
    </contour>
    <contour>
      <point x="396.0" y="-25.0" type="curve" smooth="yes"/>
      <point x="454.0" y="-25.0"/>
      <point x="504.0" y="21.0"/>
      <point x="504.0" y="88.0" type="curve" smooth="yes"/>
      <point x="504.0" y="158.0"/>
      <point x="454.0" y="204.0"/>
      <point x="396.0" y="204.0" type="curve" smooth="yes"/>
      <point x="337.0" y="204.0"/>
      <point x="289.0" y="158.0"/>
      <point x="289.0" y="88.0" type="curve" smooth="yes"/>
      <point x="289.0" y="21.0"/>
      <point x="337.0" y="-25.0"/>
    </contour>
  </outline>
</glyph>
<glyph name="at" format="2">
  <advance width="1707.0"/>
  <unicode hex="0040"/>
  <outline>
    <contour>
      <point x="813.0" y="-251.0" type="curve" smooth="yes"/>
      <point x="953.0" y="-251.0"/>
      <point x="1082.0" y="-217.0"/>
      <point x="1199.0" y="-144.0" type="curve"/>
      <point x="1159.0" y="-60.0" type="line"/>
      <point x="1065.0" y="-116.0"/>
      <point x="952.0" y="-155.0"/>
      <point x="823.0" y="-155.0" type="curve" smooth="yes"/>
      <point x="466.0" y="-155.0"/>
      <point x="209.0" y="80.0"/>
      <point x="209.0" y="480.0" type="curve" smooth="yes"/>
      <point x="209.0" y="962.0"/>
      <point x="563.0" y="1275.0"/>
      <point x="931.0" y="1275.0" type="curve" smooth="yes"/>
      <point x="1297.0" y="1275.0"/>
      <point x="1500.0" y="1037.0"/>
      <point x="1500.0" y="698.0" type="curve" smooth="yes"/>
      <point x="1500.0" y="423.0"/>
      <point x="1354.0" y="262.0"/>
      <point x="1224.0" y="262.0" type="curve" smooth="yes"/>
      <point x="1106.0" y="262.0"/>
      <point x="1064.0" y="345.0"/>
      <point x="1108.0" y="517.0" type="curve"/>
      <point x="1185.0" y="917.0" type="line"/>
      <point x="1091.0" y="917.0" type="line"/>
      <point x="1070.0" y="835.0" type="line"/>
      <point x="1066.0" y="835.0" type="line"/>
      <point x="1027.0" y="902.0"/>
      <point x="971.0" y="933.0"/>
      <point x="899.0" y="933.0" type="curve" smooth="yes"/>
      <point x="659.0" y="933.0"/>
      <point x="511.0" y="675.0"/>
      <point x="511.0" y="465.0" type="curve" smooth="yes"/>
      <point x="511.0" y="278.0"/>
      <point x="617.0" y="180.0"/>
      <point x="752.0" y="180.0" type="curve" smooth="yes"/>
      <point x="844.0" y="180.0"/>
      <point x="932.0" y="240.0"/>
      <point x="1002.0" y="320.0" type="curve"/>
      <point x="1006.0" y="320.0" type="line"/>
      <point x="1018.0" y="217.0"/>
      <point x="1102.0" y="165.0"/>
      <point x="1212.0" y="165.0" type="curve" smooth="yes"/>
      <point x="1391.0" y="165.0"/>
      <point x="1603.0" y="350.0"/>
      <point x="1603.0" y="704.0" type="curve" smooth="yes"/>
      <point x="1603.0" y="1102.0"/>
      <point x="1349.0" y="1370.0"/>
      <point x="942.0" y="1370.0" type="curve" smooth="yes"/>
      <point x="495.0" y="1370.0"/>
      <point x="105.0" y="1017.0"/>
      <point x="105.0" y="474.0" type="curve" smooth="yes"/>
      <point x="105.0" y="7.0"/>
      <point x="414.0" y="-251.0"/>
    </contour>
    <contour>
      <point x="776.0" y="277.0" type="curve" smooth="yes"/>
      <point x="690.0" y="277.0"/>
      <point x="624.0" y="332.0"/>
      <point x="624.0" y="473.0" type="curve" smooth="yes"/>
      <point x="624.0" y="634.0"/>
      <point x="728.0" y="834.0"/>
      <point x="900.0" y="834.0" type="curve" smooth="yes"/>
      <point x="958.0" y="834.0"/>
      <point x="996.0" y="811.0"/>
      <point x="1039.0" y="742.0" type="curve"/>
      <point x="978.0" y="405.0" type="line"/>
      <point x="903.0" y="317.0"/>
      <point x="837.0" y="277.0"/>
    </contour>
  </outline>
</glyph>
<glyph name="A" format="2">
  <advance width="1086.0"/>
  <unicode hex="0041"/>
  <anchor x="543.0" y="0.0" name="bottom"/>
  <anchor x="977.0" y="10.0" name="ogonek"/>
  <anchor x="543.0" y="1346.0" name="top"/>
  <outline>
    <contour>
      <point x="3.0" y="0.0" type="line"/>
      <point x="145.0" y="0.0" type="line"/>
      <point x="286.0" y="432.0" type="line"/>
      <point x="795.0" y="432.0" type="line"/>
      <point x="935.0" y="0.0" type="line"/>
      <point x="1083.0" y="0.0" type="line"/>
      <point x="620.0" y="1346.0" type="line"/>
      <point x="467.0" y="1346.0" type="line"/>
    </contour>
    <contour>
      <point x="323.0" y="545.0" type="line"/>
      <point x="398.0" y="770.0" type="line"/>
      <point x="448.0" y="923.0"/>
      <point x="493.0" y="1068.0"/>
      <point x="537.0" y="1228.0" type="curve"/>
      <point x="546.0" y="1228.0" type="line"/>
      <point x="590.0" y="1068.0"/>
      <point x="636.0" y="923.0"/>
      <point x="685.0" y="770.0" type="curve" smooth="yes"/>
      <point x="758.0" y="545.0" type="line"/>
    </contour>
  </outline>
</glyph>
<glyph name="B" format="2">
  <advance width="1184.0"/>
  <unicode hex="0042"/>
  <anchor x="592.0" y="0.0" name="bottom"/>
  <anchor x="592.0" y="1346.0" name="top"/>
  <outline>
    <contour>
      <point x="184.0" y="0.0" type="line"/>
      <point x="602.0" y="0.0" type="line"/>
      <point x="903.0" y="0.0"/>
      <point x="1103.0" y="131.0"/>
      <point x="1103.0" y="395.0" type="curve" smooth="yes"/>
      <point x="1103.0" y="583.0"/>
      <point x="985.0" y="696.0"/>
      <point x="787.0" y="717.0" type="curve"/>
      <point x="787.0" y="725.0" type="line"/>
      <point x="956.0" y="762.0"/>
      <point x="1024.0" y="883.0"/>
      <point x="1024.0" y="1021.0" type="curve" smooth="yes"/>
      <point x="1024.0" y="1255.0"/>
      <point x="846.0" y="1346.0"/>
      <point x="575.0" y="1346.0" type="curve" smooth="yes"/>
      <point x="184.0" y="1346.0" type="line"/>
    </contour>
    <contour>
      <point x="324.0" y="112.0" type="line"/>
      <point x="324.0" y="658.0" type="line"/>
      <point x="577.0" y="658.0" type="line"/>
      <point x="829.0" y="658.0"/>
      <point x="966.0" y="579.0"/>
      <point x="966.0" y="400.0" type="curve" smooth="yes"/>
      <point x="966.0" y="202.0"/>
      <point x="822.0" y="112.0"/>
      <point x="577.0" y="112.0" type="curve" smooth="yes"/>
    </contour>
    <contour>
      <point x="324.0" y="764.0" type="line"/>
      <point x="324.0" y="1234.0" type="line"/>
      <point x="551.0" y="1234.0" type="line"/>
      <point x="775.0" y="1234.0"/>
      <point x="886.0" y="1172.0"/>
      <point x="886.0" y="1013.0" type="curve" smooth="yes"/>
      <point x="886.0" y="850.0"/>
      <point x="788.0" y="764.0"/>
      <point x="540.0" y="764.0" type="curve" smooth="yes"/>
    </contour>
  </outline>
</glyph>
<glyph name="E" format="2">
  <advance width="1056.0"/>
  <unicode hex="0045"/>
  <anchor x="528.0" y="0.0" name="bottom"/>
  <anchor x="950.0" y="10.0" name="ogonek"/>
  <anchor x="568.0" y="1346.0" name="top"/>
  <anchor x="20.0" y="1346.0" name="topleft"/>
  <outline>
    <contour>
      <point x="184.0" y="0.0" type="line"/>
      <point x="964.0" y="0.0" type="line"/>
      <point x="964.0" y="119.0" type="line"/>
      <point x="324.0" y="119.0" type="line"/>
      <point x="324.0" y="651.0" type="line"/>
      <point x="845.0" y="651.0" type="line"/>
      <point x="845.0" y="770.0" type="line"/>
      <point x="324.0" y="770.0" type="line"/>
      <point x="324.0" y="1228.0" type="line"/>
      <point x="943.0" y="1228.0" type="line"/>
      <point x="943.0" y="1346.0" type="line"/>
      <point x="184.0" y="1346.0" type="line"/>
    </contour>
  </outline>
</glyph>
<glyph name="H" format="2">
  <advance width="1312.0"/>
  <unicode hex="0048"/>
  <anchor x="656.0" y="0.0" name="bottom"/>
  <anchor x="656.0" y="673.0" name="center"/>
  <anchor x="656.0" y="1346.0" name="top"/>
  <anchor x="20.0" y="1346.0" name="topleft"/>
  <outline>
    <contour>
      <point x="184.0" y="0.0" type="line"/>
      <point x="324.0" y="0.0" type="line"/>
      <point x="324.0" y="651.0" type="line"/>
      <point x="989.0" y="651.0" type="line"/>
      <point x="989.0" y="0.0" type="line"/>
      <point x="1127.0" y="0.0" type="line"/>
      <point x="1127.0" y="1346.0" type="line"/>
      <point x="989.0" y="1346.0" type="line"/>
      <point x="989.0" y="771.0" type="line"/>
      <point x="324.0" y="771.0" type="line"/>
      <point x="324.0" y="1346.0" type="line"/>
      <point x="184.0" y="1346.0" type="line"/>
    </contour>
  </outline>
</glyph>
<glyph name="M" format="2">
  <advance width="1460.0"/>
  <unicode hex="004D"/>
  <anchor x="730.0" y="0.0" name="bottom"/>
  <anchor x="730.0" y="1346.0" name="top"/>
  <outline>
    <contour>
      <point x="178.0" y="0.0" type="line"/>
      <point x="307.0" y="0.0" type="line"/>
      <point x="307.0" y="800.0" type="line"/>
      <point x="307.0" y="915.0"/>
      <point x="303.0" y="1068.0"/>
      <point x="296.0" y="1184.0" type="curve"/>
      <point x="304.0" y="1184.0" type="line"/>
      <point x="411.0" y="886.0" type="line"/>
      <point x="682.0" y="140.0" type="line"/>
      <point x="774.0" y="140.0" type="line"/>
      <point x="1044.0" y="886.0" type="line"/>
      <point x="1150.0" y="1184.0" type="line"/>
      <point x="1158.0" y="1184.0" type="line"/>
      <point x="1151.0" y="1068.0"/>
      <point x="1146.0" y="915.0"/>
      <point x="1146.0" y="800.0" type="curve" smooth="yes"/>
      <point x="1148.0" y="0.0" type="line"/>
      <point x="1280.0" y="0.0" type="line"/>
      <point x="1267.0" y="1346.0" type="line"/>
      <point x="1100.0" y="1346.0" type="line"/>
      <point x="834.0" y="596.0" type="line"/>
      <point x="735.0" y="311.0" type="line"/>
      <point x="727.0" y="311.0" type="line"/>
      <point x="627.0" y="596.0" type="line"/>
      <point x="358.0" y="1346.0" type="line"/>
      <point x="190.0" y="1346.0" type="line"/>
    </contour>
  </outline>
</glyph>
<glyph name="O" format="2">
  <advance width="1338.0"/>
  <unicode hex="004F"/>
  <anchor x="669.0" y="0.0" name="bottom"/>
  <anchor x="669.0" y="673.0" name="center"/>
  <anchor x="1204.0" y="10.0" name="ogonek"/>
  <anchor x="669.0" y="1346.0" name="top"/>
  <anchor x="20.0" y="1346.0" name="topleft"/>
  <anchor x="1318.0" y="1346.0" name="topright"/>
  <outline>
    <contour>
      <point x="668.0" y="-25.0" type="curve" smooth="yes"/>
      <point x="1007.0" y="-25.0"/>
      <point x="1235.0" y="238.0"/>
      <point x="1235.0" y="676.0" type="curve" smooth="yes"/>
      <point x="1235.0" y="1112.0"/>
      <point x="1007.0" y="1370.0"/>
      <point x="668.0" y="1370.0" type="curve" smooth="yes"/>
      <point x="328.0" y="1370.0"/>
      <point x="102.0" y="1113.0"/>
      <point x="102.0" y="676.0" type="curve" smooth="yes"/>
      <point x="102.0" y="238.0"/>
      <point x="328.0" y="-25.0"/>
    </contour>
    <contour>
      <point x="668.0" y="99.0" type="curve" smooth="yes"/>
      <point x="407.0" y="99.0"/>
      <point x="246.0" y="318.0"/>
      <point x="246.0" y="676.0" type="curve" smooth="yes"/>
      <point x="246.0" y="1033.0"/>
      <point x="407.0" y="1247.0"/>
      <point x="668.0" y="1247.0" type="curve" smooth="yes"/>
      <point x="927.0" y="1247.0"/>
      <point x="1091.0" y="1033.0"/>
      <point x="1091.0" y="676.0" type="curve" smooth="yes"/>
      <point x="1091.0" y="318.0"/>
      <point x="927.0" y="99.0"/>
    </contour>
  </outline>
</glyph>
<glyph name="P" format="2">
  <advance width="1152.0"/>
  <unicode hex="0050"/>
  <anchor x="576.0" y="0.0" name="bottom"/>
  <anchor x="576.0" y="1346.0" name="top"/>
  <outline>
    <contour>
      <point x="184.0" y="0.0" type="line"/>
      <point x="324.0" y="0.0" type="line"/>
      <point x="324.0" y="540.0" type="line"/>
      <point x="587.0" y="540.0" type="line"/>
      <point x="888.0" y="540.0"/>
      <point x="1068.0" y="679.0"/>
      <point x="1068.0" y="954.0" type="curve" smooth="yes"/>
      <point x="1068.0" y="1242.0"/>
      <point x="890.0" y="1346.0"/>
      <point x="585.0" y="1346.0" type="curve" smooth="yes"/>
      <point x="184.0" y="1346.0" type="line"/>
    </contour>
    <contour>
      <point x="324.0" y="655.0" type="line"/>
      <point x="324.0" y="1232.0" type="line"/>
      <point x="562.0" y="1232.0" type="line"/>
      <point x="817.0" y="1232.0"/>
      <point x="929.0" y="1162.0"/>
      <point x="929.0" y="954.0" type="curve" smooth="yes"/>
      <point x="929.0" y="751.0"/>
      <point x="822.0" y="655.0"/>
      <point x="564.0" y="655.0" type="curve" smooth="yes"/>
    </contour>
  </outline>
</glyph>
<glyph name="R" format="2">
  <advance width="1161.0"/>
  <unicode hex="0052"/>
  <anchor x="581.0" y="0.0" name="bottom"/>
  <anchor x="581.0" y="1346.0" name="top"/>
  <outline>
    <contour>
      <point x="184.0" y="0.0" type="line"/>
      <point x="324.0" y="0.0" type="line"/>
      <point x="324.0" y="589.0" type="line"/>
      <point x="590.0" y="589.0" type="line"/>
      <point x="924.0" y="0.0" type="line"/>
      <point x="1084.0" y="0.0" type="line"/>
      <point x="736.0" y="603.0" type="line"/>
      <point x="930.0" y="642.0"/>
      <point x="1050.0" y="756.0"/>
      <point x="1050.0" y="979.0" type="curve" smooth="yes"/>
      <point x="1050.0" y="1255.0"/>
      <point x="870.0" y="1346.0"/>
      <point x="600.0" y="1346.0" type="curve" smooth="yes"/>
      <point x="184.0" y="1346.0" type="line"/>
    </contour>
    <contour>
      <point x="324.0" y="703.0" type="line"/>
      <point x="324.0" y="1232.0" type="line"/>
      <point x="575.0" y="1232.0" type="line"/>
      <point x="797.0" y="1232.0"/>
      <point x="909.0" y="1172.0"/>
      <point x="909.0" y="979.0" type="curve" smooth="yes"/>
      <point x="909.0" y="784.0"/>
      <point x="797.0" y="703.0"/>
      <point x="575.0" y="703.0" type="curve" smooth="yes"/>
    </contour>
  </outline>
</glyph>
<glyph name="T" format="2">
  <advance width="1076.0"/>
  <unicode hex="0054"/>
  <anchor x="538.0" y="0.0" name="bottom"/>
  <anchor x="538.0" y="673.0" name="center"/>
  <anchor x="538.0" y="1346.0" name="top"/>
  <outline>
    <contour>
      <point x="469.0" y="0.0" type="line"/>
      <point x="608.0" y="0.0" type="line"/>
      <point x="608.0" y="1228.0" type="line"/>
      <point x="1024.0" y="1228.0" type="line"/>
      <point x="1024.0" y="1346.0" type="line"/>
      <point x="52.0" y="1346.0" type="line"/>
      <point x="52.0" y="1228.0" type="line"/>
      <point x="469.0" y="1228.0" type="line"/>
    </contour>
  </outline>
</glyph>
<glyph name="V" format="2">
  <advance width="1022.0"/>
  <unicode hex="0056"/>
  <anchor x="511.0" y="0.0" name="bottom"/>
  <anchor x="511.0" y="1346.0" name="top"/>
  <outline>
    <contour>
      <point x="433.0" y="0.0" type="line"/>
      <point x="593.0" y="0.0" type="line"/>
      <point x="1024.0" y="1346.0" type="line"/>
      <point x="883.0" y="1346.0" type="line"/>
      <point x="653.0" y="595.0" type="line"/>
      <point x="606.0" y="434.0"/>
      <point x="571.0" y="307.0"/>
      <point x="519.0" y="147.0" type="curve"/>
      <point x="511.0" y="147.0" type="line"/>
      <point x="459.0" y="307.0"/>
      <point x="425.0" y="434.0"/>
      <point x="376.0" y="595.0" type="curve" smooth="yes"/>
      <point x="146.0" y="1346.0" type="line"/>
      <point x="-2.0" y="1346.0" type="line"/>
    </contour>
  </outline>
</glyph>
<glyph name="W" format="2">
  <advance width="1584.0"/>
  <unicode hex="0057"/>
  <anchor x="792.0" y="0.0" name="bottom"/>
  <anchor x="792.0" y="1346.0" name="top"/>
  <outline>
    <contour>
      <point x="338.0" y="0.0" type="line"/>
      <point x="501.0" y="0.0" type="line"/>
      <point x="718.0" y="857.0" type="line"/>
      <point x="742.0" y="962.0"/>
      <point x="766.0" y="1057.0"/>
      <point x="788.0" y="1162.0" type="curve"/>
      <point x="796.0" y="1162.0" type="line"/>
      <point x="817.0" y="1057.0"/>
      <point x="840.0" y="962.0"/>
      <point x="863.0" y="857.0" type="curve"/>
      <point x="1084.0" y="0.0" type="line"/>
      <point x="1248.0" y="0.0" type="line"/>
      <point x="1537.0" y="1346.0" type="line"/>
      <point x="1401.0" y="1346.0" type="line"/>
      <point x="1248.0" y="589.0" type="line"/>
      <point x="1222.0" y="444.0"/>
      <point x="1195.0" y="299.0"/>
      <point x="1167.0" y="152.0" type="curve"/>
      <point x="1158.0" y="152.0" type="line"/>
      <point x="1125.0" y="299.0"/>
      <point x="1091.0" y="445.0"/>
      <point x="1058.0" y="589.0" type="curve"/>
      <point x="861.0" y="1346.0" type="line"/>
      <point x="730.0" y="1346.0" type="line"/>
      <point x="533.0" y="589.0" type="line"/>
      <point x="499.0" y="444.0"/>
      <point x="465.0" y="298.0"/>
      <point x="435.0" y="152.0" type="curve"/>
      <point x="427.0" y="152.0" type="line"/>
      <point x="399.0" y="298.0"/>
      <point x="371.0" y="443.0"/>
      <point x="341.0" y="589.0" type="curve"/>
      <point x="190.0" y="1346.0" type="line"/>
      <point x="44.0" y="1346.0" type="line"/>
    </contour>
  </outline>
</glyph>
<glyph name="X" format="2">
  <advance width="1013.0"/>
  <unicode hex="0058"/>
  <anchor x="507.0" y="0.0" name="bottom"/>
  <anchor x="507.0" y="1346.0" name="top"/>
  <outline>
    <contour>
      <point x="28.0" y="0.0" type="line"/>
      <point x="172.0" y="0.0" type="line"/>
      <point x="382.0" y="383.0" type="line"/>
      <point x="418.0" y="450.0"/>
      <point x="453.0" y="517.0"/>
      <point x="493.0" y="599.0" type="curve"/>
      <point x="501.0" y="599.0" type="line"/>
      <point x="546.0" y="517.0"/>
      <point x="584.0" y="450.0"/>
      <point x="620.0" y="383.0" type="curve" smooth="yes"/>
      <point x="833.0" y="0.0" type="line"/>
      <point x="986.0" y="0.0" type="line"/>
      <point x="590.0" y="689.0" type="line"/>
      <point x="959.0" y="1346.0" type="line"/>
      <point x="813.0" y="1346.0" type="line"/>
      <point x="617.0" y="980.0" type="line"/>
      <point x="584.0" y="919.0"/>
      <point x="558.0" y="866.0"/>
      <point x="521.0" y="790.0" type="curve"/>
      <point x="512.0" y="790.0" type="line"/>
      <point x="468.0" y="866.0"/>
      <point x="440.0" y="919.0"/>
      <point x="406.0" y="980.0" type="curve" smooth="yes"/>
      <point x="206.0" y="1346.0" type="line"/>
      <point x="53.0" y="1346.0" type="line"/>
      <point x="424.0" y="696.0" type="line"/>
    </contour>
  </outline>
</glyph>
<glyph name="Z" format="2">
  <advance width="1091.0"/>
  <unicode hex="005A"/>
  <anchor x="546.0" y="0.0" name="bottom"/>
  <anchor x="546.0" y="673.0" name="center"/>
  <anchor x="546.0" y="1346.0" name="top"/>
  <outline>
    <contour>
      <point x="89.0" y="0.0" type="line"/>
      <point x="1006.0" y="0.0" type="line"/>
      <point x="1006.0" y="119.0" type="line"/>
      <point x="263.0" y="119.0" type="line"/>
      <point x="999.0" y="1264.0" type="line"/>
      <point x="999.0" y="1346.0" type="line"/>
      <point x="156.0" y="1346.0" type="line"/>
      <point x="156.0" y="1228.0" type="line"/>
      <point x="827.0" y="1228.0" type="line"/>
      <point x="89.0" y="83.0" type="line"/>
    </contour>
  </outline>
</glyph>
<glyph name="b" format="2">
  <advance width="1128.0"/>
  <unicode hex="0062"/>
  <anchor x="564.0" y="0.0" name="bottom"/>
  <anchor x="692.0" y="990.0" name="top"/>
  <outline>
    <contour>
      <point x="596.0" y="-25.0" type="curve" smooth="yes"/>
      <point x="831.0" y="-25.0"/>
      <point x="1026.0" y="166.0"/>
      <point x="1026.0" y="509.0" type="curve" smooth="yes"/>
      <point x="1026.0" y="820.0"/>
      <point x="901.0" y="1015.0"/>
      <point x="634.0" y="1015.0" type="curve" smooth="yes"/>
      <point x="517.0" y="1015.0"/>
      <point x="403.0" y="952.0"/>
      <point x="308.0" y="870.0" type="curve"/>
      <point x="313.0" y="1055.0" type="line"/>
      <point x="313.0" y="1464.0" type="line"/>
      <point x="176.0" y="1464.0" type="line"/>
      <point x="176.0" y="0.0" type="line"/>
      <point x="287.0" y="0.0" type="line"/>
      <point x="299.0" y="96.0" type="line"/>
      <point x="306.0" y="96.0" type="line"/>
      <point x="395.0" y="20.0"/>
      <point x="501.0" y="-25.0"/>
    </contour>
    <contour>
      <point x="577.0" y="92.0" type="curve" smooth="yes"/>
      <point x="506.0" y="92.0"/>
      <point x="409.0" y="122.0"/>
      <point x="313.0" y="205.0" type="curve"/>
      <point x="313.0" y="752.0" type="line"/>
      <point x="416.0" y="847.0"/>
      <point x="511.0" y="899.0"/>
      <point x="604.0" y="899.0" type="curve" smooth="yes"/>
      <point x="811.0" y="899.0"/>
      <point x="883.0" y="740.0"/>
      <point x="883.0" y="508.0" type="curve" smooth="yes"/>
      <point x="883.0" y="250.0"/>
      <point x="759.0" y="92.0"/>
    </contour>
  </outline>
</glyph>
<glyph name="c" format="2">
  <advance width="928.0"/>
  <unicode hex="0063"/>
  <anchor x="464.0" y="0.0" name="bottom"/>
  <anchor x="464.0" y="990.0" name="top"/>
  <outline>
    <contour>
      <point x="556.0" y="-25.0" type="curve" smooth="yes"/>
      <point x="677.0" y="-25.0"/>
      <point x="784.0" y="22.0"/>
      <point x="871.0" y="99.0" type="curve"/>
      <point x="807.0" y="190.0" type="line"/>
      <point x="745.0" y="133.0"/>
      <point x="665.0" y="90.0"/>
      <point x="566.0" y="90.0" type="curve" smooth="yes"/>
      <point x="370.0" y="90.0"/>
      <point x="240.0" y="249.0"/>
      <point x="240.0" y="495.0" type="curve" smooth="yes"/>
      <point x="240.0" y="744.0"/>
      <point x="380.0" y="900.0"/>
      <point x="569.0" y="900.0" type="curve" smooth="yes"/>
      <point x="655.0" y="900.0"/>
      <point x="723.0" y="862.0"/>
      <point x="785.0" y="807.0" type="curve"/>
      <point x="856.0" y="897.0" type="line"/>
      <point x="789.0" y="960.0"/>
      <point x="697.0" y="1015.0"/>
      <point x="564.0" y="1015.0" type="curve" smooth="yes"/>
      <point x="314.0" y="1015.0"/>
      <point x="99.0" y="836.0"/>
      <point x="99.0" y="495.0" type="curve" smooth="yes"/>
      <point x="99.0" y="159.0"/>
      <point x="296.0" y="-25.0"/>
    </contour>
  </outline>
</glyph>
<glyph name="f" format="2">
  <advance width="574.0"/>
  <unicode hex="0066"/>
  <anchor x="287.0" y="0.0" name="bottom"/>
  <anchor x="297.0" y="1346.0" name="top"/>
  <outline>
    <contour>
      <point x="199.0" y="0.0" type="line"/>
      <point x="335.0" y="0.0" type="line"/>
      <point x="335.0" y="877.0" type="line"/>
      <point x="552.0" y="877.0" type="line"/>
      <point x="552.0" y="990.0" type="line"/>
      <point x="335.0" y="990.0" type="line"/>
      <point x="335.0" y="1173.0" type="line"/>
      <point x="335.0" y="1306.0"/>
      <point x="382.0" y="1376.0"/>
      <point x="480.0" y="1376.0" type="curve" smooth="yes"/>
      <point x="517.0" y="1376.0"/>
      <point x="557.0" y="1367.0"/>
      <point x="595.0" y="1350.0" type="curve"/>
      <point x="627.0" y="1456.0" type="line"/>
      <point x="582.0" y="1475.0"/>
      <point x="526.0" y="1489.0"/>
      <point x="470.0" y="1489.0" type="curve" smooth="yes"/>
      <point x="290.0" y="1489.0"/>
      <point x="199.0" y="1375.0"/>
      <point x="199.0" y="1175.0" type="curve" smooth="yes"/>
      <point x="199.0" y="990.0" type="line"/>
      <point x="64.0" y="981.0" type="line"/>
      <point x="64.0" y="877.0" type="line"/>
      <point x="199.0" y="877.0" type="line"/>
    </contour>
  </outline>
</glyph>
<glyph name="j" format="2">
  <advance width="491.0"/>
  <unicode hex="006A"/>
  <anchor x="137.0" y="-300.0" name="btm"/>
  <anchor x="248.0" y="1050.0" name="top"/>
  <outline>
    <contour>
      <point x="63.0" y="-454.0" type="curve" smooth="yes"/>
      <point x="242.0" y="-454.0"/>
      <point x="315.0" y="-343.0"/>
      <point x="315.0" y="-145.0" type="curve" smooth="yes"/>
      <point x="315.0" y="990.0" type="line"/>
      <point x="177.0" y="990.0" type="line"/>
      <point x="177.0" y="-142.0" type="line"/>
      <point x="177.0" y="-264.0"/>
      <point x="154.0" y="-341.0"/>
      <point x="51.0" y="-341.0" type="curve" smooth="yes"/>
      <point x="14.0" y="-341.0"/>
      <point x="-22.0" y="-332.0"/>
      <point x="-46.0" y="-324.0" type="curve"/>
      <point x="-76.0" y="-429.0" type="line"/>
      <point x="-43.0" y="-442.0"/>
      <point x="7.0" y="-454.0"/>
    </contour>
    <contour>
      <point x="248.0" y="1209.0" type="curve" smooth="yes"/>
      <point x="303.0" y="1209.0"/>
      <point x="350.0" y="1248.0"/>
      <point x="350.0" y="1305.0" type="curve" smooth="yes"/>
      <point x="350.0" y="1365.0"/>
      <point x="303.0" y="1403.0"/>
      <point x="248.0" y="1403.0" type="curve" smooth="yes"/>
      <point x="191.0" y="1403.0"/>
      <point x="145.0" y="1365.0"/>
      <point x="145.0" y="1305.0" type="curve" smooth="yes"/>
      <point x="145.0" y="1248.0"/>
      <point x="191.0" y="1209.0"/>
    </contour>
  </outline>
</glyph>
<glyph name="l" format="2">
  <advance width="507.0"/>
  <unicode hex="006C"/>
  <anchor x="254.0" y="0.0" name="bottom"/>
  <anchor x="457.0" y="990.0" name="car"/>
  <anchor x="254.0" y="888.0" name="center"/>
  <anchor x="248.0" y="1345.0" name="top"/>
  <outline>
    <contour>
      <point x="331.0" y="-25.0" type="curve" smooth="yes"/>
      <point x="369.0" y="-25.0"/>
      <point x="394.0" y="-19.0"/>
      <point x="415.0" y="-10.0" type="curve"/>
      <point x="395.0" y="94.0" type="line"/>
      <point x="375.0" y="90.0"/>
      <point x="367.0" y="90.0"/>
      <point x="358.0" y="90.0" type="curve" smooth="yes"/>
      <point x="333.0" y="90.0"/>
      <point x="313.0" y="111.0"/>
      <point x="313.0" y="160.0" type="curve" smooth="yes"/>
      <point x="313.0" y="1464.0" type="line"/>
      <point x="176.0" y="1464.0" type="line"/>
      <point x="176.0" y="172.0" type="line"/>
      <point x="176.0" y="43.0"/>
      <point x="223.0" y="-25.0"/>
    </contour>
  </outline>
</glyph>
<glyph name="n" format="2">
  <advance width="1108.0"/>
  <unicode hex="006E"/>
  <anchor x="554.0" y="0.0" name="bottom"/>
  <anchor x="554.0" y="990.0" name="top"/>
  <outline>
    <contour>
      <point x="176.0" y="0.0" type="line"/>
      <point x="313.0" y="0.0" type="line"/>
      <point x="313.0" y="729.0" type="line"/>
      <point x="421.0" y="839.0"/>
      <point x="497.0" y="895.0"/>
      <point x="605.0" y="895.0" type="curve" smooth="yes"/>
      <point x="754.0" y="895.0"/>
      <point x="808.0" y="811.0"/>
      <point x="808.0" y="615.0" type="curve" smooth="yes"/>
      <point x="808.0" y="0.0" type="line"/>
      <point x="944.0" y="0.0" type="line"/>
      <point x="944.0" y="634.0" type="line"/>
      <point x="944.0" y="888.0"/>
      <point x="856.0" y="1015.0"/>
      <point x="644.0" y="1015.0" type="curve" smooth="yes"/>
      <point x="507.0" y="1015.0"/>
      <point x="405.0" y="940.0"/>
      <point x="309.0" y="843.0" type="curve"/>
      <point x="302.0" y="843.0" type="line"/>
      <point x="290.0" y="990.0" type="line"/>
      <point x="176.0" y="990.0" type="line"/>
    </contour>
  </outline>
</glyph>
<glyph name="o" format="2">
  <advance width="1104.0"/>
  <unicode hex="006F"/>
  <anchor x="552.0" y="0.0" name="bottom"/>
  <anchor x="552.0" y="495.0" name="center"/>
  <anchor x="778.0" y="10.0" name="ogonek"/>
  <anchor x="552.0" y="990.0" name="top"/>
  <anchor x="1084.0" y="990.0" name="topright"/>
  <outline>
    <contour>
      <point x="551.0" y="-25.0" type="curve" smooth="yes"/>
      <point x="797.0" y="-25.0"/>
      <point x="1005.0" y="162.0"/>
      <point x="1005.0" y="494.0" type="curve" smooth="yes"/>
      <point x="1005.0" y="831.0"/>
      <point x="797.0" y="1015.0"/>
      <point x="551.0" y="1015.0" type="curve" smooth="yes"/>
      <point x="306.0" y="1015.0"/>
      <point x="100.0" y="831.0"/>
      <point x="100.0" y="494.0" type="curve" smooth="yes"/>
      <point x="100.0" y="162.0"/>
      <point x="306.0" y="-25.0"/>
    </contour>
    <contour>
      <point x="551.0" y="90.0" type="curve" smooth="yes"/>
      <point x="366.0" y="90.0"/>
      <point x="241.0" y="251.0"/>
      <point x="241.0" y="494.0" type="curve" smooth="yes"/>
      <point x="241.0" y="739.0"/>
      <point x="366.0" y="900.0"/>
      <point x="551.0" y="900.0" type="curve" smooth="yes"/>
      <point x="737.0" y="900.0"/>
      <point x="864.0" y="739.0"/>
      <point x="864.0" y="494.0" type="curve" smooth="yes"/>
      <point x="864.0" y="251.0"/>
      <point x="737.0" y="90.0"/>
    </contour>
  </outline>
</glyph>
<glyph name="q" format="2">
  <advance width="1115.0"/>
  <unicode hex="0071"/>
  <anchor x="525.0" y="-300.0" name="btm"/>
  <anchor x="525.0" y="1050.0" name="top"/>
  <outline>
    <contour>
      <point x="814.0" y="-430.0" type="line"/>
      <point x="951.0" y="-430.0" type="line"/>
      <point x="951.0" y="990.0" type="line"/>
      <point x="841.0" y="990.0" type="line"/>
      <point x="826.0" y="898.0" type="line"/>
      <point x="822.0" y="898.0" type="line"/>
      <point x="731.0" y="973.0"/>
      <point x="654.0" y="1015.0"/>
      <point x="535.0" y="1015.0" type="curve" smooth="yes"/>
      <point x="301.0" y="1015.0"/>
      <point x="100.0" y="819.0"/>
      <point x="100.0" y="492.0" type="curve" smooth="yes"/>
      <point x="100.0" y="154.0"/>
      <point x="257.0" y="-25.0"/>
      <point x="511.0" y="-25.0" type="curve" smooth="yes"/>
      <point x="635.0" y="-25.0"/>
      <point x="737.0" y="40.0"/>
      <point x="821.0" y="117.0" type="curve"/>
      <point x="814.0" y="-66.0" type="line"/>
    </contour>
    <contour>
      <point x="539.0" y="92.0" type="curve" smooth="yes"/>
      <point x="346.0" y="92.0"/>
      <point x="243.0" y="241.0"/>
      <point x="243.0" y="493.0" type="curve" smooth="yes"/>
      <point x="243.0" y="733.0"/>
      <point x="377.0" y="899.0"/>
      <point x="555.0" y="899.0" type="curve" smooth="yes"/>
      <point x="645.0" y="899.0"/>
      <point x="722.0" y="868.0"/>
      <point x="814.0" y="785.0" type="curve"/>
      <point x="814.0" y="239.0" type="line"/>
      <point x="723.0" y="142.0"/>
      <point x="640.0" y="92.0"/>
    </contour>
  </outline>
</glyph>
<glyph name="u" format="2">
  <advance width="1101.0"/>
  <unicode hex="0075"/>
  <anchor x="551.0" y="0.0" name="bottom"/>
  <anchor x="1003.0" y="10.0" name="ogonek"/>
  <anchor x="541.0" y="990.0" name="top"/>
  <anchor x="1081.0" y="990.0" name="topright"/>
  <outline>
    <contour>
      <point x="464.0" y="-25.0" type="curve" smooth="yes"/>
      <point x="606.0" y="-25.0"/>
      <point x="700.0" y="49.0"/>
      <point x="794.0" y="159.0" type="curve"/>
      <point x="800.0" y="159.0" type="line"/>
      <point x="812.0" y="0.0" type="line"/>
      <point x="925.0" y="0.0" type="line"/>
      <point x="925.0" y="990.0" type="line"/>
      <point x="789.0" y="990.0" type="line"/>
      <point x="789.0" y="276.0" type="line"/>
      <point x="686.0" y="150.0"/>
      <point x="615.0" y="95.0"/>
      <point x="501.0" y="95.0" type="curve" smooth="yes"/>
      <point x="353.0" y="95.0"/>
      <point x="299.0" y="180.0"/>
      <point x="299.0" y="376.0" type="curve" smooth="yes"/>
      <point x="299.0" y="990.0" type="line"/>
      <point x="162.0" y="990.0" type="line"/>
      <point x="162.0" y="357.0" type="line"/>
      <point x="162.0" y="103.0"/>
      <point x="250.0" y="-25.0"/>
    </contour>
  </outline>
</glyph>
<glyph name="w" format="2">
  <advance width="1443.0"/>
  <unicode hex="0077"/>
  <anchor x="722.0" y="0.0" name="bottom"/>
  <anchor x="722.0" y="990.0" name="top"/>
  <outline>
    <contour>
      <point x="332.0" y="0.0" type="line"/>
      <point x="492.0" y="0.0" type="line"/>
      <point x="644.0" y="562.0" type="line"/>
      <point x="672.0" y="657.0"/>
      <point x="695.0" y="751.0"/>
      <point x="717.0" y="850.0" type="curve"/>
      <point x="725.0" y="850.0" type="line"/>
      <point x="751.0" y="751.0"/>
      <point x="770.0" y="660.0"/>
      <point x="796.0" y="566.0" type="curve" smooth="yes"/>
      <point x="951.0" y="0.0" type="line"/>
      <point x="1121.0" y="0.0" type="line"/>
      <point x="1394.0" y="990.0" type="line"/>
      <point x="1262.0" y="990.0" type="line"/>
      <point x="1104.0" y="390.0" type="line"/>
      <point x="1083.0" y="297.0"/>
      <point x="1062.0" y="210.0"/>
      <point x="1040.0" y="119.0" type="curve"/>
      <point x="1032.0" y="119.0" type="line"/>
      <point x="1008.0" y="210.0"/>
      <point x="985.0" y="297.0"/>
      <point x="960.0" y="390.0" type="curve" smooth="yes"/>
      <point x="795.0" y="990.0" type="line"/>
      <point x="654.0" y="990.0" type="line"/>
      <point x="490.0" y="390.0" type="line"/>
      <point x="465.0" y="298.0"/>
      <point x="444.0" y="210.0"/>
      <point x="421.0" y="119.0" type="curve"/>
      <point x="413.0" y="119.0" type="line"/>
      <point x="394.0" y="210.0"/>
      <point x="373.0" y="297.0"/>
      <point x="351.0" y="390.0" type="curve"/>
      <point x="191.0" y="990.0" type="line"/>
      <point x="49.0" y="990.0" type="line"/>
    </contour>
  </outline>
</glyph>
<glyph name="x" format="2">
  <advance width="881.0"/>
  <unicode hex="0078"/>
  <anchor x="440.0" y="990.0" name="top"/>
  <outline>
    <contour>
      <point x="29.0" y="0.0" type="line"/>
      <point x="172.0" y="0.0" type="line"/>
      <point x="321.0" y="246.0" type="line"/>
      <point x="356.0" y="308.0"/>
      <point x="390.0" y="368.0"/>
      <point x="426.0" y="426.0" type="curve"/>
      <point x="435.0" y="426.0" type="line"/>
      <point x="473.0" y="368.0"/>
      <point x="511.0" y="307.0"/>
      <point x="546.0" y="246.0" type="curve"/>
      <point x="703.0" y="0.0" type="line"/>
      <point x="852.0" y="0.0" type="line"/>
      <point x="524.0" y="504.0" type="line"/>
      <point x="827.0" y="990.0" type="line"/>
      <point x="684.0" y="990.0" type="line"/>
      <point x="550.0" y="758.0" type="line"/>
      <point x="518.0" y="705.0"/>
      <point x="487.0" y="649.0"/>
      <point x="456.0" y="594.0" type="curve"/>
      <point x="448.0" y="594.0" type="line"/>
      <point x="412.0" y="649.0"/>
      <point x="378.0" y="705.0"/>
      <point x="347.0" y="758.0" type="curve" smooth="yes"/>
      <point x="203.0" y="990.0" type="line"/>
      <point x="54.0" y="990.0" type="line"/>
      <point x="357.0" y="518.0" type="line"/>
    </contour>
  </outline>
</glyph>
<glyph name="y" format="2">
  <advance width="930.0"/>
  <unicode hex="0079"/>
  <anchor x="773.0" y="200.0" name="bottom"/>
  <anchor x="465.0" y="990.0" name="top"/>
  <outline>
    <contour>
      <point x="170.0" y="-437.0" type="curve" smooth="yes"/>
      <point x="361.0" y="-437.0"/>
      <point x="461.0" y="-282.0"/>
      <point x="525.0" y="-99.0" type="curve" smooth="yes"/>
      <point x="906.0" y="990.0" type="line"/>
      <point x="769.0" y="990.0" type="line"/>
      <point x="579.0" y="412.0" type="line"/>
      <point x="552.0" y="326.0"/>
      <point x="523.0" y="222.0"/>
      <point x="493.0" y="134.0" type="curve"/>
      <point x="485.0" y="134.0" type="line"/>
      <point x="452.0" y="223.0"/>
      <point x="415.0" y="327.0"/>
      <point x="384.0" y="412.0" type="curve" smooth="yes"/>
      <point x="168.0" y="990.0" type="line"/>
      <point x="25.0" y="990.0" type="line"/>
      <point x="426.0" y="-9.0" type="line"/>
      <point x="401.0" y="-87.0" type="line"/>
      <point x="357.0" y="-222.0"/>
      <point x="281.0" y="-320.0"/>
      <point x="165.0" y="-320.0" type="curve" smooth="yes"/>
      <point x="139.0" y="-320.0"/>
      <point x="108.0" y="-312.0"/>
      <point x="88.0" y="-304.0" type="curve"/>
      <point x="60.0" y="-416.0" type="line"/>
      <point x="90.0" y="-428.0"/>
      <point x="128.0" y="-437.0"/>
    </contour>
  </outline>
</glyph>
<glyph name="z" format="2">
  <advance width="852.0"/>
  <unicode hex="007A"/>
  <anchor x="426.0" y="0.0" name="bottom"/>
  <anchor x="426.0" y="495.0" name="center"/>
  <anchor x="426.0" y="990.0" name="top"/>
  <outline>
    <contour>
      <point x="60.0" y="0.0" type="line"/>
      <point x="799.0" y="0.0" type="line"/>
      <point x="799.0" y="114.0" type="line"/>
      <point x="234.0" y="114.0" type="line"/>
      <point x="782.0" y="918.0" type="line"/>
      <point x="782.0" y="990.0" type="line"/>
      <point x="120.0" y="990.0" type="line"/>
      <point x="120.0" y="877.0" type="line"/>
      <point x="608.0" y="877.0" type="line"/>
      <point x="60.0" y="73.0" type="line"/>
    </contour>
  </outline>
</glyph>
<glyph name="braceleft" format="2">
  <advance width="600.0"/>
  <unicode hex="007B"/>
  <outline>
    <contour>
      <point x="461.0" y="-311.0" type="curve" smooth="yes"/>
      <point x="546.0" y="-311.0" type="line"/>
      <point x="546.0" y="-230.0" type="line"/>
      <point x="485.0" y="-230.0" type="line"/>
      <point x="371.0" y="-230.0"/>
      <point x="341.0" y="-171.0"/>
      <point x="341.0" y="-34.0" type="curve" smooth="yes"/>
      <point x="341.0" y="94.0"/>
      <point x="353.0" y="204.0"/>
      <point x="353.0" y="346.0" type="curve" smooth="yes"/>
      <point x="353.0" y="471.0"/>
      <point x="324.0" y="541.0"/>
      <point x="238.0" y="565.0" type="curve"/>
      <point x="238.0" y="573.0" type="line"/>
      <point x="324.0" y="598.0"/>
      <point x="353.0" y="665.0"/>
      <point x="353.0" y="792.0" type="curve" smooth="yes"/>
      <point x="353.0" y="919.0"/>
      <point x="341.0" y="1051.0"/>
      <point x="341.0" y="1172.0" type="curve" smooth="yes"/>
      <point x="341.0" y="1309.0"/>
      <point x="371.0" y="1366.0"/>
      <point x="485.0" y="1366.0" type="curve" smooth="yes"/>
      <point x="546.0" y="1366.0" type="line"/>
      <point x="546.0" y="1450.0" type="line"/>
      <point x="461.0" y="1450.0" type="line"/>
      <point x="306.0" y="1450.0"/>
      <point x="229.0" y="1388.0"/>
      <point x="229.0" y="1182.0" type="curve" smooth="yes"/>
      <point x="229.0" y="1041.0"/>
      <point x="247.0" y="903.0"/>
      <point x="247.0" y="773.0" type="curve" smooth="yes"/>
      <point x="247.0" y="695.0"/>
      <point x="211.0" y="616.0"/>
      <point x="71.0" y="614.0" type="curve"/>
      <point x="71.0" y="525.0" type="line"/>
      <point x="211.0" y="523.0"/>
      <point x="247.0" y="444.0"/>
      <point x="247.0" y="362.0" type="curve" smooth="yes"/>
      <point x="247.0" y="223.0"/>
      <point x="229.0" y="107.0"/>
      <point x="229.0" y="-43.0" type="curve" smooth="yes"/>
      <point x="229.0" y="-252.0"/>
      <point x="306.0" y="-311.0"/>
    </contour>
  </outline>
</glyph>
<glyph name="asciitilde" format="2">
  <advance width="1003.0"/>
  <unicode hex="007E"/>
  <outline>
    <contour>
      <point x="684.0" y="534.0" type="curve" smooth="yes"/>
      <point x="777.0" y="534.0"/>
      <point x="858.0" y="588.0"/>
      <point x="925.0" y="710.0" type="curve"/>
      <point x="846.0" y="767.0" type="line"/>
      <point x="801.0" y="676.0"/>
      <point x="748.0" y="641.0"/>
      <point x="687.0" y="641.0" type="curve" smooth="yes"/>
      <point x="571.0" y="641.0"/>
      <point x="477.0" y="818.0"/>
      <point x="317.0" y="818.0" type="curve" smooth="yes"/>
      <point x="232.0" y="818.0"/>
      <point x="139.0" y="769.0"/>
      <point x="77.0" y="639.0" type="curve"/>
      <point x="157.0" y="584.0" type="line"/>
      <point x="205.0" y="682.0"/>
      <point x="255.0" y="711.0"/>
      <point x="315.0" y="711.0" type="curve" smooth="yes"/>
      <point x="431.0" y="711.0"/>
      <point x="524.0" y="534.0"/>
    </contour>
  </outline>
</glyph>
<glyph name="cent" format="2">
  <advance width="1003.0"/>
  <unicode hex="00A2"/>
  <outline>
    <contour>
      <point x="531.0" y="-63.0" type="line"/>
      <point x="622.0" y="-63.0" type="line"/>
      <point x="622.0" y="152.0" type="line"/>
      <point x="734.0" y="159.0"/>
      <point x="834.0" y="209.0"/>
      <point x="914.0" y="281.0" type="curve"/>
      <point x="851.0" y="369.0" type="line"/>
      <point x="792.0" y="316.0"/>
      <point x="714.0" y="272.0"/>
      <point x="622.0" y="267.0" type="curve"/>
      <point x="622.0" y="1005.0" type="line"/>
      <point x="702.0" y="1001.0"/>
      <point x="767.0" y="965.0"/>
      <point x="825.0" y="914.0" type="curve"/>
      <point x="893.0" y="1000.0" type="line"/>
      <point x="830.0" y="1060.0"/>
      <point x="745.0" y="1115.0"/>
      <point x="622.0" y="1120.0" type="curve"/>
      <point x="622.0" y="1336.0" type="line"/>
      <point x="531.0" y="1336.0" type="line"/>
      <point x="531.0" y="1115.0" type="line"/>
      <point x="304.0" y="1086.0"/>
      <point x="126.0" y="919.0"/>
      <point x="126.0" y="636.0" type="curve" smooth="yes"/>
      <point x="126.0" y="350.0"/>
      <point x="292.0" y="180.0"/>
      <point x="531.0" y="154.0" type="curve"/>
    </contour>
    <contour>
      <point x="531.0" y="273.0" type="line"/>
      <point x="364.0" y="305.0"/>
      <point x="263.0" y="441.0"/>
      <point x="263.0" y="636.0" type="curve" smooth="yes"/>
      <point x="263.0" y="830.0"/>
      <point x="370.0" y="965.0"/>
      <point x="531.0" y="998.0" type="curve"/>
    </contour>
  </outline>
</glyph>
<glyph name="currency" format="2">
  <advance width="1003.0"/>
  <unicode hex="00A4"/>
  <outline>
    <contour>
      <point x="132.0" y="220.0" type="line"/>
      <point x="270.0" y="361.0" type="line"/>
      <point x="334.0" y="306.0"/>
      <point x="416.0" y="277.0"/>
      <point x="501.0" y="277.0" type="curve" smooth="yes"/>
      <point x="585.0" y="277.0"/>
      <point x="669.0" y="306.0"/>
      <point x="732.0" y="361.0" type="curve"/>
      <point x="870.0" y="220.0" type="line"/>
      <point x="946.0" y="298.0" type="line"/>
      <point x="812.0" y="433.0" type="line"/>
      <point x="859.0" y="498.0"/>
      <point x="888.0" y="579.0"/>
      <point x="888.0" y="673.0" type="curve" smooth="yes"/>
      <point x="888.0" y="769.0"/>
      <point x="859.0" y="852.0"/>
      <point x="811.0" y="917.0" type="curve"/>
      <point x="946.0" y="1054.0" type="line"/>
      <point x="870.0" y="1132.0" type="line"/>
      <point x="732.0" y="989.0" type="line"/>
      <point x="669.0" y="1042.0"/>
      <point x="585.0" y="1071.0"/>
      <point x="501.0" y="1071.0" type="curve" smooth="yes"/>
      <point x="416.0" y="1071.0"/>
      <point x="333.0" y="1042.0"/>
      <point x="270.0" y="989.0" type="curve"/>
      <point x="132.0" y="1132.0" type="line"/>
      <point x="56.0" y="1054.0" type="line"/>
      <point x="189.0" y="917.0" type="line"/>
      <point x="141.0" y="852.0"/>
      <point x="114.0" y="769.0"/>
      <point x="114.0" y="673.0" type="curve" smooth="yes"/>
      <point x="114.0" y="579.0"/>
      <point x="141.0" y="498.0"/>
      <point x="189.0" y="433.0" type="curve"/>
      <point x="56.0" y="298.0" type="line"/>
    </contour>
    <contour>
      <point x="501.0" y="381.0" type="curve" smooth="yes"/>
      <point x="361.0" y="381.0"/>
      <point x="243.0" y="500.0"/>
      <point x="243.0" y="673.0" type="curve" smooth="yes"/>
      <point x="243.0" y="847.0"/>
      <point x="361.0" y="966.0"/>
      <point x="501.0" y="966.0" type="curve" smooth="yes"/>
      <point x="642.0" y="966.0"/>
      <point x="759.0" y="847.0"/>
      <point x="759.0" y="673.0" type="curve" smooth="yes"/>
      <point x="759.0" y="500.0"/>
      <point x="642.0" y="381.0"/>
    </contour>
  </outline>
</glyph>
<glyph name="section" format="2">
  <advance width="1003.0"/>
  <unicode hex="00A7"/>
  <outline>
    <contour>
      <point x="481.0" y="-121.0" type="curve" smooth="yes"/>
      <point x="659.0" y="-121.0"/>
      <point x="795.0" y="-7.0"/>
      <point x="795.0" y="149.0" type="curve" smooth="yes"/>
      <point x="795.0" y="220.0"/>
      <point x="771.0" y="274.0"/>
      <point x="731.0" y="318.0" type="curve"/>
      <point x="835.0" y="377.0"/>
      <point x="907.0" y="450.0"/>
      <point x="907.0" y="582.0" type="curve" smooth="yes"/>
      <point x="907.0" y="959.0"/>
      <point x="335.0" y="909.0"/>
      <point x="335.0" y="1149.0" type="curve" smooth="yes"/>
      <point x="335.0" y="1222.0"/>
      <point x="386.0" y="1289.0"/>
      <point x="510.0" y="1289.0" type="curve" smooth="yes"/>
      <point x="605.0" y="1289.0"/>
      <point x="675.0" y="1248.0"/>
      <point x="741.0" y="1195.0" type="curve"/>
      <point x="809.0" y="1285.0" type="line"/>
      <point x="733.0" y="1348.0"/>
      <point x="628.0" y="1399.0"/>
      <point x="506.0" y="1399.0" type="curve" smooth="yes"/>
      <point x="307.0" y="1399.0"/>
      <point x="209.0" y="1274.0"/>
      <point x="209.0" y="1143.0" type="curve" smooth="yes"/>
      <point x="209.0" y="1071.0"/>
      <point x="234.0" y="1018.0"/>
      <point x="275.0" y="976.0" type="curve"/>
      <point x="173.0" y="919.0"/>
      <point x="96.0" y="834.0"/>
      <point x="96.0" y="710.0" type="curve" smooth="yes"/>
      <point x="96.0" y="334.0"/>
      <point x="667.0" y="394.0"/>
      <point x="667.0" y="142.0" type="curve" smooth="yes"/>
      <point x="667.0" y="57.0"/>
      <point x="596.0" y="-13.0"/>
      <point x="481.0" y="-13.0" type="curve" smooth="yes"/>
      <point x="366.0" y="-13.0"/>
      <point x="291.0" y="30.0"/>
      <point x="222.0" y="95.0" type="curve"/>
      <point x="136.0" y="18.0" type="line"/>
      <point x="219.0" y="-67.0"/>
      <point x="337.0" y="-121.0"/>
    </contour>
    <contour>
      <point x="648.0" y="385.0" type="curve"/>
      <point x="478.0" y="491.0"/>
      <point x="219.0" y="524.0"/>
      <point x="219.0" y="719.0" type="curve" smooth="yes"/>
      <point x="219.0" y="811.0"/>
      <point x="273.0" y="864.0"/>
      <point x="356.0" y="911.0" type="curve"/>
      <point x="526.0" y="808.0"/>
      <point x="784.0" y="772.0"/>
      <point x="784.0" y="571.0" type="curve" smooth="yes"/>
      <point x="784.0" y="473.0"/>
      <point x="736.0" y="425.0"/>
    </contour>
  </outline>
</glyph>
<glyph name="copyright" format="2">
  <advance width="1522.0"/>
  <unicode hex="00A9"/>
  <outline>
    <contour>
      <point x="764.0" y="-36.0" type="curve" smooth="yes"/>
      <point x="1125.0" y="-36.0"/>
      <point x="1434.0" y="238.0"/>
      <point x="1434.0" y="662.0" type="curve" smooth="yes"/>
      <point x="1434.0" y="1085.0"/>
      <point x="1125.0" y="1352.0"/>
      <point x="764.0" y="1352.0" type="curve" smooth="yes"/>
      <point x="402.0" y="1352.0"/>
      <point x="93.0" y="1085.0"/>
      <point x="93.0" y="662.0" type="curve" smooth="yes"/>
      <point x="93.0" y="238.0"/>
      <point x="402.0" y="-36.0"/>
    </contour>
    <contour>
      <point x="775.0" y="255.0" type="curve" smooth="yes"/>
      <point x="901.0" y="255.0"/>
      <point x="978.0" y="308.0"/>
      <point x="1053.0" y="374.0" type="curve"/>
      <point x="1000.0" y="448.0" type="line"/>
      <point x="939.0" y="394.0"/>
      <point x="871.0" y="353.0"/>
      <point x="780.0" y="353.0" type="curve" smooth="yes"/>
      <point x="625.0" y="353.0"/>
      <point x="524.0" y="471.0"/>
      <point x="524.0" y="661.0" type="curve" smooth="yes"/>
      <point x="524.0" y="830.0"/>
      <point x="631.0" y="949.0"/>
      <point x="786.0" y="949.0" type="curve" smooth="yes"/>
      <point x="861.0" y="949.0"/>
      <point x="914.0" y="918.0"/>
      <point x="973.0" y="862.0" type="curve"/>
      <point x="1034.0" y="931.0" type="line"/>
      <point x="969.0" y="996.0"/>
      <point x="895.0" y="1046.0"/>
      <point x="782.0" y="1046.0" type="curve" smooth="yes"/>
      <point x="586.0" y="1046.0"/>
      <point x="408.0" y="898.0"/>
      <point x="408.0" y="661.0" type="curve" smooth="yes"/>
      <point x="408.0" y="406.0"/>
      <point x="573.0" y="255.0"/>
    </contour>
    <contour>
      <point x="764.0" y="43.0" type="curve" smooth="yes"/>
      <point x="447.0" y="43.0"/>
      <point x="181.0" y="291.0"/>
      <point x="181.0" y="662.0" type="curve" smooth="yes"/>
      <point x="181.0" y="1030.0"/>
      <point x="447.0" y="1275.0"/>
      <point x="764.0" y="1275.0" type="curve" smooth="yes"/>
      <point x="1080.0" y="1275.0"/>
      <point x="1346.0" y="1030.0"/>
      <point x="1346.0" y="662.0" type="curve" smooth="yes"/>
      <point x="1346.0" y="291.0"/>
      <point x="1080.0" y="43.0"/>
    </contour>
  </outline>
</glyph>
<glyph name="ordfeminine" format="2">
  <advance width="700.0"/>
  <unicode hex="00AA"/>
  <outline>
    <contour>
      <point x="281.0" y="516.0" type="curve" smooth="yes"/>
      <point x="367.0" y="516.0"/>
      <point x="436.0" y="561.0"/>
      <point x="492.0" y="610.0" type="curve"/>
      <point x="501.0" y="610.0" type="line"/>
      <point x="514.0" y="532.0" type="line"/>
      <point x="599.0" y="532.0" type="line"/>
      <point x="599.0" y="937.0" type="line"/>
      <point x="599.0" y="1104.0"/>
      <point x="535.0" y="1205.0"/>
      <point x="374.0" y="1205.0" type="curve" smooth="yes"/>
      <point x="267.0" y="1205.0"/>
      <point x="169.0" y="1157.0"/>
      <point x="107.0" y="1117.0" type="curve"/>
      <point x="148.0" y="1043.0" type="line"/>
      <point x="200.0" y="1076.0"/>
      <point x="284.0" y="1116.0"/>
      <point x="360.0" y="1116.0" type="curve" smooth="yes"/>
      <point x="463.0" y="1116.0"/>
      <point x="491.0" y="1044.0"/>
      <point x="493.0" y="949.0" type="curve"/>
      <point x="207.0" y="923.0"/>
      <point x="80.0" y="850.0"/>
      <point x="80.0" y="706.0" type="curve" smooth="yes"/>
      <point x="80.0" y="591.0"/>
      <point x="162.0" y="516.0"/>
    </contour>
    <contour>
      <point x="310.0" y="603.0" type="curve" smooth="yes"/>
      <point x="235.0" y="603.0"/>
      <point x="187.0" y="638.0"/>
      <point x="187.0" y="715.0" type="curve" smooth="yes"/>
      <point x="187.0" y="797.0"/>
      <point x="265.0" y="856.0"/>
      <point x="493.0" y="880.0" type="curve"/>
      <point x="493.0" y="693.0" type="line"/>
      <point x="428.0" y="632.0"/>
      <point x="369.0" y="603.0"/>
    </contour>
  </outline>
</glyph>
<glyph name="registered" format="2">
  <advance width="848.0"/>
  <unicode hex="00AE"/>
  <outline>
    <contour>
      <point x="423.0" y="658.0" type="curve" smooth="yes"/>
      <point x="632.0" y="658.0"/>
      <point x="804.0" y="819.0"/>
      <point x="804.0" y="1058.0" type="curve" smooth="yes"/>
      <point x="804.0" y="1297.0"/>
      <point x="632.0" y="1459.0"/>
      <point x="423.0" y="1459.0" type="curve" smooth="yes"/>
      <point x="215.0" y="1459.0"/>
      <point x="43.0" y="1297.0"/>
      <point x="43.0" y="1058.0" type="curve" smooth="yes"/>
      <point x="43.0" y="819.0"/>
      <point x="215.0" y="658.0"/>
    </contour>
    <contour>
      <point x="423.0" y="727.0" type="curve" smooth="yes"/>
      <point x="251.0" y="727.0"/>
      <point x="117.0" y="863.0"/>
      <point x="117.0" y="1058.0" type="curve" smooth="yes"/>
      <point x="117.0" y="1251.0"/>
      <point x="251.0" y="1392.0"/>
      <point x="423.0" y="1392.0" type="curve" smooth="yes"/>
      <point x="595.0" y="1392.0"/>
      <point x="730.0" y="1251.0"/>
      <point x="730.0" y="1058.0" type="curve" smooth="yes"/>
      <point x="730.0" y="863.0"/>
      <point x="595.0" y="727.0"/>
    </contour>
    <contour>
      <point x="279.0" y="855.0" type="line"/>
      <point x="355.0" y="855.0" type="line"/>
      <point x="355.0" y="1003.0" type="line"/>
      <point x="444.0" y="1003.0" type="line"/>
      <point x="519.0" y="855.0" type="line"/>
      <point x="606.0" y="855.0" type="line"/>
      <point x="509.0" y="1027.0" type="line"/>
      <point x="555.0" y="1043.0"/>
      <point x="587.0" y="1091.0"/>
      <point x="587.0" y="1141.0" type="curve" smooth="yes"/>
      <point x="587.0" y="1241.0"/>
      <point x="512.0" y="1273.0"/>
      <point x="429.0" y="1273.0" type="curve" smooth="yes"/>
      <point x="279.0" y="1273.0" type="line"/>
    </contour>
    <contour>
      <point x="355.0" y="1065.0" type="line"/>
      <point x="355.0" y="1209.0" type="line"/>
      <point x="416.0" y="1209.0" type="line"/>
      <point x="482.0" y="1209.0"/>
      <point x="506.0" y="1181.0"/>
      <point x="506.0" y="1137.0" type="curve" smooth="yes"/>
      <point x="506.0" y="1088.0"/>
      <point x="469.0" y="1065.0"/>
      <point x="411.0" y="1065.0" type="curve" smooth="yes"/>
    </contour>
  </outline>
</glyph>
<glyph name="macron" format="2">
  <advance width="1104.0"/>
  <unicode hex="00AF"/>
  <outline>
    <contour>
      <point x="309.0" y="1235.0" type="line"/>
      <point x="796.0" y="1235.0" type="line"/>
      <point x="796.0" y="1334.0" type="line"/>
      <point x="309.0" y="1334.0" type="line"/>
    </contour>
  </outline>
</glyph>
<glyph name="acute" format="2">
  <advance width="1104.0"/>
  <unicode hex="00B4"/>
  <outline>
    <contour>
      <point x="427.0" y="1173.0" type="line"/>
      <point x="534.0" y="1173.0" type="line"/>
      <point x="760.0" y="1457.0" type="line"/>
      <point x="612.0" y="1457.0" type="line"/>
    </contour>
  </outline>
</glyph>
<glyph name="paragraph" format="2">
  <advance width="1109.0"/>
  <unicode hex="00B6"/>
  <outline>
    <contour>
      <point x="598.0" y="478.0" type="curve"/>
      <point x="645.0" y="478.0" type="line"/>
      <point x="645.0" y="1346.0" type="line"/>
      <point x="572.0" y="1346.0" type="line"/>
      <point x="290.0" y="1346.0"/>
      <point x="85.0" y="1230.0"/>
      <point x="85.0" y="914.0" type="curve" smooth="yes"/>
      <point x="85.0" y="606.0"/>
      <point x="300.0" y="478.0"/>
    </contour>
    <contour>
      <point x="772.0" y="-164.0" type="line"/>
      <point x="912.0" y="-164.0" type="line"/>
      <point x="912.0" y="1346.0" type="line"/>
      <point x="772.0" y="1346.0" type="line"/>
    </contour>
  </outline>
</glyph>
<glyph name="AE" format="2">
  <advance width="1660.0"/>
  <unicode hex="00C6"/>
  <anchor x="830.0" y="0.0" name="bottom"/>
  <anchor x="930.0" y="1346.0" name="top"/>
  <outline>
    <contour>
      <point x="22.0" y="0.0" type="line"/>
      <point x="165.0" y="0.0" type="line"/>
      <point x="384.0" y="413.0" type="line"/>
      <point x="824.0" y="413.0" type="line"/>
      <point x="824.0" y="0.0" type="line"/>
      <point x="1569.0" y="0.0" type="line"/>
      <point x="1569.0" y="119.0" type="line"/>
      <point x="963.0" y="119.0" type="line"/>
      <point x="963.0" y="651.0" type="line"/>
      <point x="1450.0" y="651.0" type="line"/>
      <point x="1450.0" y="770.0" type="line"/>
      <point x="963.0" y="770.0" type="line"/>
      <point x="963.0" y="1228.0" type="line"/>
      <point x="1549.0" y="1228.0" type="line"/>
      <point x="1549.0" y="1346.0" type="line"/>
      <point x="744.0" y="1346.0" type="line"/>
    </contour>
    <contour>
      <point x="445.0" y="526.0" type="line"/>
      <point x="579.0" y="780.0" type="line"/>
      <point x="657.0" y="932.0"/>
      <point x="739.0" y="1085.0"/>
      <point x="816.0" y="1233.0" type="curve"/>
      <point x="824.0" y="1233.0" type="line"/>
      <point x="824.0" y="526.0" type="line"/>
    </contour>
  </outline>
</glyph>
<glyph name="Eth" format="2">
  <advance width="1280.0"/>
  <unicode hex="00D0"/>
  <anchor x="619.0" y="-300.0" name="btm"/>
  <anchor x="619.0" y="1590.0" name="top"/>
  <outline>
    <contour>
      <point x="222.0" y="0.0" type="line"/>
      <point x="554.0" y="0.0" type="line"/>
      <point x="963.0" y="0.0"/>
      <point x="1175.0" y="258.0"/>
      <point x="1175.0" y="679.0" type="curve" smooth="yes"/>
      <point x="1175.0" y="1097.0"/>
      <point x="963.0" y="1346.0"/>
      <point x="548.0" y="1346.0" type="curve" smooth="yes"/>
      <point x="222.0" y="1346.0" type="line"/>
      <point x="222.0" y="752.0" type="line"/>
      <point x="64.0" y="744.0" type="line"/>
      <point x="64.0" y="666.0" type="line"/>
      <point x="222.0" y="666.0" type="line"/>
    </contour>
    <contour>
      <point x="362.0" y="115.0" type="line"/>
      <point x="362.0" y="666.0" type="line"/>
      <point x="684.0" y="666.0" type="line"/>
      <point x="684.0" y="752.0" type="line"/>
      <point x="362.0" y="752.0" type="line"/>
      <point x="362.0" y="1231.0" type="line"/>
      <point x="537.0" y="1231.0" type="line"/>
      <point x="872.0" y="1231.0"/>
      <point x="1031.0" y="1022.0"/>
      <point x="1031.0" y="679.0" type="curve" smooth="yes"/>
      <point x="1031.0" y="334.0"/>
      <point x="872.0" y="115.0"/>
      <point x="537.0" y="115.0" type="curve" smooth="yes"/>
    </contour>
  </outline>
</glyph>
<glyph name="multiply" format="2">
  <advance width="1003.0"/>
  <unicode hex="00D7"/>
  <outline>
    <contour>
      <point x="179.0" y="265.0" type="line"/>
      <point x="501.0" y="600.0" type="line"/>
      <point x="823.0" y="265.0" type="line"/>
      <point x="898.0" y="343.0" type="line"/>
      <point x="576.0" y="676.0" type="line"/>
      <point x="898.0" y="1007.0" type="line"/>
      <point x="823.0" y="1085.0" type="line"/>
      <point x="501.0" y="751.0" type="line"/>
      <point x="179.0" y="1085.0" type="line"/>
      <point x="103.0" y="1007.0" type="line"/>
      <point x="427.0" y="676.0" type="line"/>
      <point x="103.0" y="343.0" type="line"/>
    </contour>
  </outline>
</glyph>
<glyph name="Thorn" format="2">
  <advance width="1176.0"/>
  <unicode hex="00DE"/>
  <anchor x="628.0" y="-300.0" name="btm"/>
  <anchor x="628.0" y="1590.0" name="top"/>
  <outline>
    <contour>
      <point x="187.0" y="0.0" type="line"/>
      <point x="325.0" y="0.0" type="line"/>
      <point x="325.0" y="321.0" type="line"/>
      <point x="580.0" y="321.0" type="line"/>
      <point x="878.0" y="321.0"/>
      <point x="1070.0" y="451.0"/>
      <point x="1070.0" y="727.0" type="curve" smooth="yes"/>
      <point x="1070.0" y="1014.0"/>
      <point x="879.0" y="1115.0"/>
      <point x="580.0" y="1115.0" type="curve" smooth="yes"/>
      <point x="325.0" y="1115.0" type="line"/>
      <point x="325.0" y="1346.0" type="line"/>
      <point x="187.0" y="1346.0" type="line"/>
    </contour>
    <contour>
      <point x="325.0" y="435.0" type="line"/>
      <point x="325.0" y="1000.0" type="line"/>
      <point x="558.0" y="1000.0" type="line"/>
      <point x="808.0" y="1000.0"/>
      <point x="930.0" y="933.0"/>
      <point x="930.0" y="727.0" type="curve" smooth="yes"/>
      <point x="930.0" y="523.0"/>
      <point x="809.0" y="435.0"/>
      <point x="558.0" y="435.0" type="curve" smooth="yes"/>
    </contour>
  </outline>
</glyph>
<glyph name="ae" format="2">
  <advance width="1607.0"/>
  <unicode hex="00E6"/>
  <anchor x="804.0" y="0.0" name="bottom"/>
  <anchor x="804.0" y="990.0" name="top"/>
  <outline>
    <contour>
      <point x="415.0" y="-25.0" type="curve" smooth="yes"/>
      <point x="541.0" y="-25.0"/>
      <point x="691.0" y="46.0"/>
      <point x="824.0" y="169.0" type="curve"/>
      <point x="898.0" y="68.0"/>
      <point x="1005.0" y="-25.0"/>
      <point x="1175.0" y="-25.0" type="curve" smooth="yes"/>
      <point x="1314.0" y="-25.0"/>
      <point x="1407.0" y="24.0"/>
      <point x="1490.0" y="76.0" type="curve"/>
      <point x="1438.0" y="174.0" type="line"/>
      <point x="1364.0" y="124.0"/>
      <point x="1291.0" y="89.0"/>
      <point x="1190.0" y="89.0" type="curve" smooth="yes"/>
      <point x="1009.0" y="89.0"/>
      <point x="869.0" y="242.0"/>
      <point x="865.0" y="466.0" type="curve"/>
      <point x="1524.0" y="466.0" type="line"/>
      <point x="1528.0" y="490.0"/>
      <point x="1529.0" y="520.0"/>
      <point x="1529.0" y="552.0" type="curve" smooth="yes"/>
      <point x="1529.0" y="838.0"/>
      <point x="1406.0" y="1015.0"/>
      <point x="1168.0" y="1015.0" type="curve" smooth="yes"/>
      <point x="1017.0" y="1015.0"/>
      <point x="898.0" y="927.0"/>
      <point x="822.0" y="790.0" type="curve"/>
      <point x="784.0" y="927.0"/>
      <point x="700.0" y="1015.0"/>
      <point x="537.0" y="1015.0" type="curve" smooth="yes"/>
      <point x="389.0" y="1015.0"/>
      <point x="253.0" y="952.0"/>
      <point x="170.0" y="897.0" type="curve"/>
      <point x="227.0" y="800.0" type="line"/>
      <point x="300.0" y="851.0"/>
      <point x="407.0" y="900.0"/>
      <point x="521.0" y="900.0" type="curve" smooth="yes"/>
      <point x="697.0" y="900.0"/>
      <point x="737.0" y="757.0"/>
      <point x="736.0" y="621.0" type="curve"/>
      <point x="318.0" y="585.0"/>
      <point x="125.0" y="470.0"/>
      <point x="125.0" y="252.0" type="curve" smooth="yes"/>
      <point x="125.0" y="71.0"/>
      <point x="252.0" y="-25.0"/>
    </contour>
    <contour>
      <point x="449.0" y="87.0" type="curve" smooth="yes"/>
      <point x="344.0" y="87.0"/>
      <point x="261.0" y="138.0"/>
      <point x="261.0" y="262.0" type="curve" smooth="yes"/>
      <point x="261.0" y="401.0"/>
      <point x="392.0" y="489.0"/>
      <point x="735.0" y="527.0" type="curve"/>
      <point x="736.0" y="478.0" type="line"/>
      <point x="736.0" y="395.0"/>
      <point x="751.0" y="310.0"/>
      <point x="777.0" y="256.0" type="curve"/>
      <point x="677.0" y="148.0"/>
      <point x="547.0" y="87.0"/>
    </contour>
    <contour>
      <point x="865.0" y="561.0" type="line"/>
      <point x="883.0" y="768.0"/>
      <point x="1005.0" y="905.0"/>
      <point x="1165.0" y="905.0" type="curve" smooth="yes"/>
      <point x="1326.0" y="905.0"/>
      <point x="1407.0" y="785.0"/>
      <point x="1407.0" y="561.0" type="curve"/>
    </contour>
  </outline>
</glyph>
<glyph name="divide" format="2">
  <advance width="1003.0"/>
  <unicode hex="00F7"/>
  <outline>
    <contour>
      <point x="70.0" y="622.0" type="line"/>
      <point x="933.0" y="622.0" type="line"/>
      <point x="933.0" y="729.0" type="line"/>
      <point x="70.0" y="729.0" type="line"/>
    </contour>
    <contour>
      <point x="501.0" y="208.0" type="curve" smooth="yes"/>
      <point x="556.0" y="208.0"/>
      <point x="599.0" y="248.0"/>
      <point x="599.0" y="307.0" type="curve" smooth="yes"/>
      <point x="599.0" y="364.0"/>
      <point x="556.0" y="404.0"/>
      <point x="501.0" y="404.0" type="curve" smooth="yes"/>
      <point x="446.0" y="404.0"/>
      <point x="403.0" y="364.0"/>
      <point x="403.0" y="307.0" type="curve" smooth="yes"/>
      <point x="403.0" y="248.0"/>
      <point x="446.0" y="208.0"/>
    </contour>
    <contour>
      <point x="501.0" y="945.0" type="curve" smooth="yes"/>
      <point x="556.0" y="945.0"/>
      <point x="599.0" y="985.0"/>
      <point x="599.0" y="1044.0" type="curve" smooth="yes"/>
      <point x="599.0" y="1101.0"/>
      <point x="556.0" y="1141.0"/>
      <point x="501.0" y="1141.0" type="curve" smooth="yes"/>
      <point x="446.0" y="1141.0"/>
      <point x="403.0" y="1101.0"/>
      <point x="403.0" y="1044.0" type="curve" smooth="yes"/>
      <point x="403.0" y="985.0"/>
      <point x="446.0" y="945.0"/>
    </contour>
  </outline>
</glyph>
<glyph name="oslash" format="2">
  <advance width="1104.0"/>
  <unicode hex="00F8"/>
  <anchor x="552.0" y="990.0" name="top"/>
  <outline>
    <contour>
      <point x="161.0" y="-46.0" type="line"/>
      <point x="265.0" y="82.0" type="line"/>
      <point x="345.0" y="12.0"/>
      <point x="446.0" y="-25.0"/>
      <point x="552.0" y="-25.0" type="curve" smooth="yes"/>
      <point x="793.0" y="-25.0"/>
      <point x="1005.0" y="165.0"/>
      <point x="1005.0" y="493.0" type="curve" smooth="yes"/>
      <point x="1005.0" y="640.0"/>
      <point x="963.0" y="759.0"/>
      <point x="896.0" y="847.0" type="curve"/>
      <point x="1010.0" y="983.0" type="line"/>
      <point x="944.0" y="1035.0" type="line"/>
      <point x="839.0" y="908.0" type="line"/>
      <point x="759.0" y="978.0"/>
      <point x="657.0" y="1015.0"/>
      <point x="552.0" y="1015.0" type="curve" smooth="yes"/>
      <point x="311.0" y="1015.0"/>
      <point x="99.0" y="825.0"/>
      <point x="99.0" y="493.0" type="curve" smooth="yes"/>
      <point x="99.0" y="348.0"/>
      <point x="141.0" y="231.0"/>
      <point x="208.0" y="143.0" type="curve"/>
      <point x="94.0" y="6.0" type="line"/>
    </contour>
    <contour>
      <point x="552.0" y="87.0" type="curve" smooth="yes"/>
      <point x="471.0" y="87.0"/>
      <point x="399.0" y="119.0"/>
      <point x="344.0" y="176.0" type="curve"/>
      <point x="810.0" y="742.0" type="line"/>
      <point x="849.0" y="674.0"/>
      <point x="869.0" y="589.0"/>
      <point x="869.0" y="488.0" type="curve" smooth="yes"/>
      <point x="869.0" y="250.0"/>
      <point x="734.0" y="87.0"/>
    </contour>
    <contour>
      <point x="293.0" y="247.0" type="line"/>
      <point x="255.0" y="314.0"/>
      <point x="235.0" y="399.0"/>
      <point x="235.0" y="499.0" type="curve" smooth="yes"/>
      <point x="235.0" y="738.0"/>
      <point x="370.0" y="903.0"/>
      <point x="552.0" y="903.0" type="curve" smooth="yes"/>
      <point x="634.0" y="903.0"/>
      <point x="706.0" y="871.0"/>
      <point x="760.0" y="812.0" type="curve"/>
    </contour>
  </outline>
</glyph>
<glyph name="Hbar" format="2">
  <advance width="1382.0"/>
  <unicode hex="0126"/>
  <outline>
    <contour>
      <point x="219.0" y="0.0" type="line"/>
      <point x="358.0" y="0.0" type="line"/>
      <point x="358.0" y="651.0" type="line"/>
      <point x="1022.0" y="651.0" type="line"/>
      <point x="1022.0" y="0.0" type="line"/>
      <point x="1163.0" y="0.0" type="line"/>
      <point x="1163.0" y="1010.0" type="line"/>
      <point x="1318.0" y="1010.0" type="line"/>
      <point x="1318.0" y="1095.0" type="line"/>
      <point x="1163.0" y="1095.0" type="line"/>
      <point x="1163.0" y="1346.0" type="line"/>
      <point x="1022.0" y="1346.0" type="line"/>
      <point x="1022.0" y="1095.0" type="line"/>
      <point x="358.0" y="1095.0" type="line"/>
      <point x="358.0" y="1346.0" type="line"/>
      <point x="219.0" y="1346.0" type="line"/>
      <point x="219.0" y="1095.0" type="line"/>
      <point x="64.0" y="1085.0" type="line"/>
      <point x="64.0" y="1010.0" type="line"/>
      <point x="219.0" y="1010.0" type="line"/>
    </contour>
    <contour>
      <point x="358.0" y="771.0" type="line"/>
      <point x="358.0" y="1010.0" type="line"/>
      <point x="1022.0" y="1010.0" type="line"/>
      <point x="1022.0" y="771.0" type="line"/>
    </contour>
  </outline>
</glyph>
<glyph name="iogonek" format="2">
  <advance width="490.0"/>
  <unicode hex="012F"/>
  <outline>
    <contour>
      <point x="255.0" y="-420.0" type="curve" smooth="yes"/>
      <point x="303.0" y="-420.0"/>
      <point x="368.0" y="-396.0"/>
      <point x="404.0" y="-368.0" type="curve"/>
      <point x="365.0" y="-296.0" type="line"/>
      <point x="337.0" y="-314.0"/>
      <point x="313.0" y="-323.0"/>
      <point x="281.0" y="-323.0" type="curve" smooth="yes"/>
      <point x="230.0" y="-323.0"/>
      <point x="183.0" y="-290.0"/>
      <point x="183.0" y="-224.0" type="curve" smooth="yes"/>
      <point x="183.0" y="-141.0"/>
      <point x="237.0" y="-64.0"/>
      <point x="313.0" y="0.0" type="curve"/>
      <point x="313.0" y="990.0" type="line"/>
      <point x="176.0" y="990.0" type="line"/>
      <point x="176.0" y="0.0" type="line"/>
      <point x="207.0" y="0.0" type="line"/>
      <point x="148.0" y="-61.0"/>
      <point x="77.0" y="-140.0"/>
      <point x="77.0" y="-249.0" type="curve" smooth="yes"/>
      <point x="77.0" y="-361.0"/>
      <point x="155.0" y="-420.0"/>
    </contour>
    <contour>
      <point x="243.0" y="1209.0" type="curve" smooth="yes"/>
      <point x="299.0" y="1209.0"/>
      <point x="346.0" y="1248.0"/>
      <point x="346.0" y="1305.0" type="curve" smooth="yes"/>
      <point x="346.0" y="1365.0"/>
      <point x="299.0" y="1403.0"/>
      <point x="243.0" y="1403.0" type="curve" smooth="yes"/>
      <point x="187.0" y="1403.0"/>
      <point x="141.0" y="1365.0"/>
      <point x="141.0" y="1305.0" type="curve" smooth="yes"/>
      <point x="141.0" y="1248.0"/>
      <point x="187.0" y="1209.0"/>
    </contour>
  </outline>
</glyph>
<glyph name="kgreenlandic" format="2">
  <advance width="988.0"/>
  <unicode hex="0138"/>
  <outline>
    <contour>
      <point x="176.0" y="0.0" type="line"/>
      <point x="313.0" y="0.0" type="line"/>
      <point x="313.0" y="260.0" type="line"/>
      <point x="512.0" y="495.0" type="line"/>
      <point x="817.0" y="0.0" type="line"/>
      <point x="967.0" y="0.0" type="line"/>
      <point x="593.0" y="595.0" type="line"/>
      <point x="918.0" y="990.0" type="line"/>
      <point x="766.0" y="990.0" type="line"/>
      <point x="319.0" y="434.0" type="line"/>
      <point x="313.0" y="434.0" type="line"/>
      <point x="313.0" y="990.0" type="line"/>
      <point x="176.0" y="990.0" type="line"/>
    </contour>
  </outline>
</glyph>
<glyph name="Lslash" format="2">
  <advance width="972.0"/>
  <unicode hex="0141"/>
  <outline>
    <contour>
      <point x="188.0" y="0.0" type="line"/>
      <point x="928.0" y="0.0" type="line"/>
      <point x="928.0" y="119.0" type="line"/>
      <point x="328.0" y="119.0" type="line"/>
      <point x="328.0" y="566.0" type="line"/>
      <point x="720.0" y="774.0" type="line"/>
      <point x="720.0" y="889.0" type="line"/>
      <point x="328.0" y="681.0" type="line"/>
      <point x="328.0" y="1346.0" type="line"/>
      <point x="188.0" y="1346.0" type="line"/>
      <point x="188.0" y="612.0" type="line"/>
      <point x="20.0" y="526.0" type="line"/>
      <point x="20.0" y="411.0" type="line"/>
      <point x="188.0" y="497.0" type="line"/>
    </contour>
  </outline>
</glyph>
<glyph name="oe" format="2">
  <advance width="1726.0"/>
  <unicode hex="0153"/>
  <anchor x="907.0" y="990.0" name="top"/>
  <outline>
    <contour>
      <point x="540.0" y="-25.0" type="curve" smooth="yes"/>
      <point x="707.0" y="-25.0"/>
      <point x="836.0" y="65.0"/>
      <point x="913.0" y="240.0" type="curve"/>
      <point x="986.0" y="77.0"/>
      <point x="1126.0" y="-25.0"/>
      <point x="1288.0" y="-25.0" type="curve" smooth="yes"/>
      <point x="1427.0" y="-25.0"/>
      <point x="1527.0" y="24.0"/>
      <point x="1609.0" y="76.0" type="curve"/>
      <point x="1557.0" y="174.0" type="line"/>
      <point x="1483.0" y="124.0"/>
      <point x="1404.0" y="89.0"/>
      <point x="1304.0" y="89.0" type="curve" smooth="yes"/>
      <point x="1122.0" y="89.0"/>
      <point x="979.0" y="242.0"/>
      <point x="974.0" y="466.0" type="curve"/>
      <point x="1643.0" y="466.0" type="line"/>
      <point x="1647.0" y="490.0"/>
      <point x="1649.0" y="520.0"/>
      <point x="1649.0" y="552.0" type="curve" smooth="yes"/>
      <point x="1649.0" y="838.0"/>
      <point x="1508.0" y="1015.0"/>
      <point x="1268.0" y="1015.0" type="curve" smooth="yes"/>
      <point x="1117.0" y="1015.0"/>
      <point x="985.0" y="913.0"/>
      <point x="911.0" y="748.0" type="curve"/>
      <point x="841.0" y="923.0"/>
      <point x="696.0" y="1015.0"/>
      <point x="543.0" y="1015.0" type="curve" smooth="yes"/>
      <point x="305.0" y="1015.0"/>
      <point x="99.0" y="825.0"/>
      <point x="99.0" y="493.0" type="curve" smooth="yes"/>
      <point x="99.0" y="165.0"/>
      <point x="304.0" y="-25.0"/>
    </contour>
    <contour>
      <point x="543.0" y="90.0" type="curve" smooth="yes"/>
      <point x="367.0" y="90.0"/>
      <point x="239.0" y="253.0"/>
      <point x="239.0" y="493.0" type="curve" smooth="yes"/>
      <point x="239.0" y="735.0"/>
      <point x="367.0" y="900.0"/>
      <point x="543.0" y="900.0" type="curve" smooth="yes"/>
      <point x="720.0" y="900.0"/>
      <point x="845.0" y="735.0"/>
      <point x="845.0" y="493.0" type="curve" smooth="yes"/>
      <point x="845.0" y="253.0"/>
      <point x="720.0" y="90.0"/>
    </contour>
    <contour>
      <point x="974.0" y="561.0" type="line"/>
      <point x="993.0" y="768.0"/>
      <point x="1117.0" y="905.0"/>
      <point x="1265.0" y="905.0" type="curve" smooth="yes"/>
      <point x="1426.0" y="905.0"/>
      <point x="1527.0" y="785.0"/>
      <point x="1527.0" y="561.0" type="curve"/>
    </contour>
  </outline>
</glyph>
<glyph name="tbar" format="2">
  <advance width="670.0"/>
  <unicode hex="0167"/>
  <anchor x="395.0" y="0.0" name="bottom"/>
  <anchor x="522.0" y="990.0" name="car"/>
  <anchor x="335.0" y="495.0" name="center"/>
  <anchor x="284.0" y="1193.0" name="top"/>
  <anchor x="464.0" y="990.0" name="topright"/>
  <outline>
    <contour>
      <point x="54.0" y="531.0" type="line"/>
      <point x="611.0" y="531.0" type="line"/>
      <point x="611.0" y="642.0" type="line"/>
      <point x="54.0" y="642.0" type="line"/>
    </contour>
    <component base="t"/>
  </outline>
</glyph>
<glyph name="Uogonek" format="2">
  <advance width="1300.0"/>
  <unicode hex="0172"/>
  <outline>
    <contour>
      <point x="706.0" y="-428.0" type="curve" smooth="yes"/>
      <point x="757.0" y="-428.0"/>
      <point x="822.0" y="-403.0"/>
      <point x="858.0" y="-375.0" type="curve"/>
      <point x="816.0" y="-297.0" type="line"/>
      <point x="791.0" y="-317.0"/>
      <point x="766.0" y="-326.0"/>
      <point x="732.0" y="-326.0" type="curve" smooth="yes"/>
      <point x="682.0" y="-326.0"/>
      <point x="631.0" y="-294.0"/>
      <point x="631.0" y="-227.0" type="curve" smooth="yes"/>
      <point x="631.0" y="-158.0"/>
      <point x="691.0" y="-68.0"/>
      <point x="798.0" y="-15.0" type="curve" smooth="yes"/>
      <point x="982.0" y="73.0"/>
      <point x="1122.0" y="182.0"/>
      <point x="1122.0" y="540.0" type="curve" smooth="yes"/>
      <point x="1122.0" y="1346.0" type="line"/>
      <point x="989.0" y="1346.0" type="line"/>
      <point x="989.0" y="542.0" type="line"/>
      <point x="989.0" y="204.0"/>
      <point x="835.0" y="99.0"/>
      <point x="649.0" y="99.0" type="curve" smooth="yes"/>
      <point x="469.0" y="99.0"/>
      <point x="318.0" y="204.0"/>
      <point x="318.0" y="542.0" type="curve" smooth="yes"/>
      <point x="318.0" y="1346.0" type="line"/>
      <point x="178.0" y="1346.0" type="line"/>
      <point x="178.0" y="540.0" type="line"/>
      <point x="178.0" y="127.0"/>
      <point x="377.0" y="-20.0"/>
      <point x="652.0" y="-24.0" type="curve"/>
      <point x="597.0" y="-79.0"/>
      <point x="521.0" y="-144.0"/>
      <point x="521.0" y="-254.0" type="curve" smooth="yes"/>
      <point x="521.0" y="-370.0"/>
      <point x="605.0" y="-428.0"/>
    </contour>
  </outline>
</glyph>
<glyph name="bstroke" format="2">
  <advance width="1100.0"/>
  <unicode hex="0180"/>
  <outline>
    <contour>
      <point x="594.0" y="-25.0" type="curve" smooth="yes"/>
      <point x="823.0" y="-25.0"/>
      <point x="1026.0" y="165.0"/>
      <point x="1026.0" y="490.0" type="curve" smooth="yes"/>
      <point x="1026.0" y="784.0"/>
      <point x="891.0" y="974.0"/>
      <point x="631.0" y="974.0" type="curve" smooth="yes"/>
      <point x="516.0" y="974.0"/>
      <point x="403.0" y="911.0"/>
      <point x="308.0" y="829.0" type="curve"/>
      <point x="313.0" y="1014.0" type="line"/>
      <point x="313.0" y="1178.0" type="line"/>
      <point x="692.0" y="1178.0" type="line"/>
      <point x="692.0" y="1263.0" type="line"/>
      <point x="313.0" y="1263.0" type="line"/>
      <point x="313.0" y="1464.0" type="line"/>
      <point x="176.0" y="1464.0" type="line"/>
      <point x="176.0" y="1263.0" type="line"/>
      <point x="22.0" y="1254.0" type="line"/>
      <point x="22.0" y="1178.0" type="line"/>
      <point x="176.0" y="1178.0" type="line"/>
      <point x="176.0" y="0.0" type="line"/>
      <point x="287.0" y="0.0" type="line"/>
      <point x="299.0" y="96.0" type="line"/>
      <point x="306.0" y="96.0" type="line"/>
      <point x="395.0" y="20.0"/>
      <point x="501.0" y="-25.0"/>
    </contour>
    <contour>
      <point x="575.0" y="92.0" type="curve" smooth="yes"/>
      <point x="506.0" y="92.0"/>
      <point x="409.0" y="122.0"/>
      <point x="313.0" y="205.0" type="curve"/>
      <point x="313.0" y="711.0" type="line"/>
      <point x="416.0" y="807.0"/>
      <point x="511.0" y="858.0"/>
      <point x="601.0" y="858.0" type="curve" smooth="yes"/>
      <point x="805.0" y="858.0"/>
      <point x="883.0" y="705.0"/>
      <point x="883.0" y="489.0" type="curve" smooth="yes"/>
      <point x="883.0" y="247.0"/>
      <point x="753.0" y="92.0"/>
    </contour>
  </outline>
</glyph>
<glyph name="Schwa" format="2">
  <advance width="1343.0"/>
  <unicode hex="018F"/>
  <anchor x="672.0" y="0.0" name="bottom"/>
  <anchor x="672.0" y="1346.0" name="top"/>
  <outline>
    <contour>
      <point x="673.0" y="-25.0" type="curve" smooth="yes"/>
      <point x="1006.0" y="-25.0"/>
      <point x="1237.0" y="248.0"/>
      <point x="1237.0" y="677.0" type="curve" smooth="yes"/>
      <point x="1237.0" y="1106.0"/>
      <point x="1024.0" y="1370.0"/>
      <point x="681.0" y="1370.0" type="curve" smooth="yes"/>
      <point x="504.0" y="1370.0"/>
      <point x="362.0" y="1305.0"/>
      <point x="270.0" y="1215.0" type="curve"/>
      <point x="337.0" y="1120.0" type="line"/>
      <point x="419.0" y="1198.0"/>
      <point x="538.0" y="1251.0"/>
      <point x="674.0" y="1251.0" type="curve" smooth="yes"/>
      <point x="938.0" y="1251.0"/>
      <point x="1091.0" y="1042.0"/>
      <point x="1100.0" y="706.0" type="curve"/>
      <point x="132.0" y="706.0" type="line"/>
      <point x="130.0" y="691.0"/>
      <point x="129.0" y="678.0"/>
      <point x="129.0" y="667.0" type="curve" smooth="yes"/>
      <point x="129.0" y="258.0"/>
      <point x="342.0" y="-25.0"/>
    </contour>
    <contour>
      <point x="673.0" y="95.0" type="curve" smooth="yes"/>
      <point x="447.0" y="95.0"/>
      <point x="289.0" y="288.0"/>
      <point x="271.0" y="597.0" type="curve"/>
      <point x="1097.0" y="597.0" type="line"/>
      <point x="1073.0" y="290.0"/>
      <point x="908.0" y="95.0"/>
    </contour>
  </outline>
</glyph>
<glyph name="ohorn" format="2">
  <advance width="1104.0"/>
  <unicode hex="01A1"/>
  <anchor x="565.0" y="0.0" name="bottom"/>
  <anchor x="562.0" y="989.0" name="top"/>
  <outline>
    <contour>
      <point x="552.0" y="-25.0" type="curve" smooth="yes"/>
      <point x="793.0" y="-25.0"/>
      <point x="1005.0" y="165.0"/>
      <point x="1005.0" y="493.0" type="curve" smooth="yes"/>
      <point x="1005.0" y="682.0"/>
      <point x="936.0" y="824.0"/>
      <point x="833.0" y="913.0" type="curve"/>
      <point x="930.0" y="941.0"/>
      <point x="1020.0" y="997.0"/>
      <point x="1020.0" y="1117.0" type="curve" smooth="yes"/>
      <point x="1020.0" y="1165.0"/>
      <point x="1003.0" y="1206.0"/>
      <point x="976.0" y="1243.0" type="curve"/>
      <point x="874.0" y="1191.0" type="line"/>
      <point x="894.0" y="1164.0"/>
      <point x="905.0" y="1136.0"/>
      <point x="905.0" y="1108.0" type="curve" smooth="yes"/>
      <point x="905.0" y="1031.0"/>
      <point x="847.0" y="987.0"/>
      <point x="743.0" y="972.0" type="curve"/>
      <point x="684.0" y="1001.0"/>
      <point x="619.0" y="1015.0"/>
      <point x="552.0" y="1015.0" type="curve" smooth="yes"/>
      <point x="311.0" y="1015.0"/>
      <point x="99.0" y="825.0"/>
      <point x="99.0" y="493.0" type="curve" smooth="yes"/>
      <point x="99.0" y="165.0"/>
      <point x="311.0" y="-25.0"/>
    </contour>
    <contour>
      <point x="552.0" y="90.0" type="curve" smooth="yes"/>
      <point x="370.0" y="90.0"/>
      <point x="241.0" y="253.0"/>
      <point x="241.0" y="493.0" type="curve" smooth="yes"/>
      <point x="241.0" y="735.0"/>
      <point x="370.0" y="900.0"/>
      <point x="552.0" y="900.0" type="curve" smooth="yes"/>
      <point x="734.0" y="900.0"/>
      <point x="864.0" y="735.0"/>
      <point x="864.0" y="493.0" type="curve" smooth="yes"/>
      <point x="864.0" y="253.0"/>
      <point x="734.0" y="90.0"/>
    </contour>
  </outline>
</glyph>
<glyph name="uhorn" format="2">
  <advance width="1101.0"/>
  <unicode hex="01B0"/>
  <anchor x="551.0" y="0.0" name="bottom"/>
  <anchor x="551.0" y="990.0" name="top"/>
  <outline>
    <contour>
      <point x="464.0" y="-25.0" type="curve" smooth="yes"/>
      <point x="600.0" y="-25.0"/>
      <point x="700.0" y="49.0"/>
      <point x="794.0" y="159.0" type="curve"/>
      <point x="800.0" y="159.0" type="line"/>
      <point x="812.0" y="0.0" type="line"/>
      <point x="925.0" y="0.0" type="line"/>
      <point x="925.0" y="934.0" type="line"/>
      <point x="1013.0" y="958.0"/>
      <point x="1110.0" y="1014.0"/>
      <point x="1110.0" y="1138.0" type="curve" smooth="yes"/>
      <point x="1110.0" y="1185.0"/>
      <point x="1092.0" y="1226.0"/>
      <point x="1066.0" y="1263.0" type="curve"/>
      <point x="966.0" y="1212.0" type="line"/>
      <point x="983.0" y="1185.0"/>
      <point x="994.0" y="1157.0"/>
      <point x="994.0" y="1128.0" type="curve" smooth="yes"/>
      <point x="994.0" y="1039.0"/>
      <point x="921.0" y="1002.0"/>
      <point x="820.0" y="990.0" type="curve"/>
      <point x="789.0" y="990.0" type="line"/>
      <point x="789.0" y="276.0" type="line"/>
      <point x="686.0" y="150.0"/>
      <point x="609.0" y="95.0"/>
      <point x="501.0" y="95.0" type="curve" smooth="yes"/>
      <point x="359.0" y="95.0"/>
      <point x="299.0" y="183.0"/>
      <point x="299.0" y="378.0" type="curve" smooth="yes"/>
      <point x="299.0" y="990.0" type="line"/>
      <point x="162.0" y="990.0" type="line"/>
      <point x="162.0" y="360.0" type="line"/>
      <point x="162.0" y="106.0"/>
      <point x="256.0" y="-25.0"/>
    </contour>
  </outline>
</glyph>
<glyph name="Bstroke" format="2">
  <advance width="1222.0"/>
  <unicode hex="0243"/>
  <outline>
    <contour>
      <point x="222.0" y="0.0" type="line"/>
      <point x="636.0" y="0.0" type="line"/>
      <point x="938.0" y="0.0"/>
      <point x="1142.0" y="132.0"/>
      <point x="1142.0" y="399.0" type="curve" smooth="yes"/>
      <point x="1142.0" y="588.0"/>
      <point x="1023.0" y="696.0"/>
      <point x="826.0" y="727.0" type="curve"/>
      <point x="826.0" y="735.0" type="line"/>
      <point x="984.0" y="776.0"/>
      <point x="1061.0" y="887.0"/>
      <point x="1061.0" y="1021.0" type="curve" smooth="yes"/>
      <point x="1061.0" y="1248.0"/>
      <point x="879.0" y="1346.0"/>
      <point x="607.0" y="1346.0" type="curve" smooth="yes"/>
      <point x="222.0" y="1346.0" type="line"/>
      <point x="222.0" y="448.0" type="line"/>
      <point x="64.0" y="441.0" type="line"/>
      <point x="64.0" y="363.0" type="line"/>
      <point x="222.0" y="363.0" type="line"/>
    </contour>
    <contour>
      <point x="362.0" y="107.0" type="line"/>
      <point x="362.0" y="363.0" type="line"/>
      <point x="684.0" y="363.0" type="line"/>
      <point x="684.0" y="448.0" type="line"/>
      <point x="362.0" y="448.0" type="line"/>
      <point x="362.0" y="674.0" type="line"/>
      <point x="612.0" y="674.0" type="line"/>
      <point x="862.0" y="674.0"/>
      <point x="1006.0" y="588.0"/>
      <point x="1006.0" y="404.0" type="curve" smooth="yes"/>
      <point x="1006.0" y="201.0"/>
      <point x="857.0" y="107.0"/>
      <point x="612.0" y="107.0" type="curve" smooth="yes"/>
    </contour>
    <contour>
      <point x="362.0" y="770.0" type="line"/>
      <point x="362.0" y="1240.0" type="line"/>
      <point x="583.0" y="1240.0" type="line"/>
      <point x="808.0" y="1240.0"/>
      <point x="927.0" y="1173.0"/>
      <point x="927.0" y="1015.0" type="curve" smooth="yes"/>
      <point x="927.0" y="854.0"/>
      <point x="823.0" y="770.0"/>
      <point x="575.0" y="770.0" type="curve" smooth="yes"/>
    </contour>
  </outline>
</glyph>
<glyph name="schwa" format="2">
  <advance width="1005.0"/>
  <unicode hex="0259"/>
  <outline>
    <contour>
      <point x="481.0" y="-25.0" type="curve" smooth="yes"/>
      <point x="721.0" y="-25.0"/>
      <point x="906.0" y="173.0"/>
      <point x="906.0" y="498.0" type="curve" smooth="yes"/>
      <point x="906.0" y="825.0"/>
      <point x="722.0" y="1015.0"/>
      <point x="476.0" y="1015.0" type="curve" smooth="yes"/>
      <point x="334.0" y="1015.0"/>
      <point x="227.0" y="969.0"/>
      <point x="139.0" y="908.0" type="curve"/>
      <point x="190.0" y="815.0" type="line"/>
      <point x="268.0" y="868.0"/>
      <point x="350.0" y="905.0"/>
      <point x="456.0" y="905.0" type="curve" smooth="yes"/>
      <point x="649.0" y="905.0"/>
      <point x="761.0" y="754.0"/>
      <point x="769.0" y="538.0" type="curve"/>
      <point x="83.0" y="538.0" type="line"/>
      <point x="79.0" y="513.0"/>
      <point x="77.0" y="484.0"/>
      <point x="77.0" y="453.0" type="curve" smooth="yes"/>
      <point x="77.0" y="151.0"/>
      <point x="239.0" y="-25.0"/>
    </contour>
    <contour>
      <point x="478.0" y="87.0" type="curve" smooth="yes"/>
      <point x="312.0" y="87.0"/>
      <point x="199.0" y="201.0"/>
      <point x="199.0" y="443.0" type="curve"/>
      <point x="770.0" y="443.0" type="line"/>
      <point x="751.0" y="218.0"/>
      <point x="644.0" y="87.0"/>
    </contour>
  </outline>
</glyph>
<glyph name="commaturnedmod" format="2">
  <advance width="263.0"/>
  <unicode hex="02BB"/>
  <outline>
    <contour>
      <point x="123.0" y="920.0" type="curve" smooth="yes"/>
      <point x="179.0" y="920.0"/>
      <point x="220.0" y="959.0"/>
      <point x="220.0" y="1020.0" type="curve" smooth="yes"/>
      <point x="220.0" y="1081.0"/>
      <point x="172.0" y="1113.0"/>
      <point x="123.0" y="1113.0" type="curve" smooth="yes"/>
      <point x="117.0" y="1113.0"/>
      <point x="110.0" y="1113.0"/>
      <point x="105.0" y="1111.0" type="curve"/>
      <point x="105.0" y="1227.0"/>
      <point x="155.0" y="1295.0"/>
      <point x="253.0" y="1365.0" type="curve"/>
      <point x="209.0" y="1431.0" type="line"/>
      <point x="81.0" y="1353.0"/>
      <point x="10.0" y="1242.0"/>
      <point x="10.0" y="1085.0" type="curve" smooth="yes"/>
      <point x="10.0" y="979.0"/>
      <point x="53.0" y="920.0"/>
    </contour>
  </outline>
</glyph>
<glyph name="apostrophemod" format="2">
  <advance width="264.0"/>
  <unicode hex="02BC"/>
  <outline>
    <contour>
      <point x="53.0" y="922.0" type="line"/>
      <point x="181.0" y="999.0"/>
      <point x="254.0" y="1110.0"/>
      <point x="254.0" y="1266.0" type="curve" smooth="yes"/>
      <point x="254.0" y="1372.0"/>
      <point x="210.0" y="1433.0"/>
      <point x="140.0" y="1433.0" type="curve" smooth="yes"/>
      <point x="84.0" y="1433.0"/>
      <point x="44.0" y="1395.0"/>
      <point x="44.0" y="1331.0" type="curve" smooth="yes"/>
      <point x="44.0" y="1271.0"/>
      <point x="91.0" y="1239.0"/>
      <point x="140.0" y="1239.0" type="curve" smooth="yes"/>
      <point x="146.0" y="1239.0"/>
      <point x="151.0" y="1239.0"/>
      <point x="157.0" y="1242.0" type="curve"/>
      <point x="157.0" y="1124.0"/>
      <point x="107.0" y="1057.0"/>
      <point x="10.0" y="987.0" type="curve"/>
    </contour>
  </outline>
</glyph>
<glyph name="ringhalfleft" format="2">
  <advance width="238.0"/>
  <unicode hex="02BF"/>
  <outline>
    <contour>
      <point x="228.0" y="1108.0" type="curve"/>
      <point x="228.0" y="1171.0" type="line"/>
      <point x="133.0" y="1171.0"/>
      <point x="94.0" y="1221.0"/>
      <point x="94.0" y="1292.0" type="curve" smooth="yes"/>
      <point x="94.0" y="1363.0"/>
      <point x="133.0" y="1412.0"/>
      <point x="228.0" y="1412.0" type="curve"/>
      <point x="228.0" y="1476.0" type="line"/>
      <point x="91.0" y="1480.0"/>
      <point x="10.0" y="1407.0"/>
      <point x="10.0" y="1292.0" type="curve" smooth="yes"/>
      <point x="10.0" y="1176.0"/>
      <point x="91.0" y="1104.0"/>
    </contour>
  </outline>
</glyph>
<glyph name="circumflex" format="2">
  <advance width="1104.0"/>
  <unicode hex="02C6"/>
  <outline>
    <contour>
      <point x="302.0" y="1173.0" type="line"/>
      <point x="404.0" y="1173.0" type="line"/>
      <point x="548.0" y="1366.0" type="line"/>
      <point x="556.0" y="1366.0" type="line"/>
      <point x="700.0" y="1173.0" type="line"/>
      <point x="803.0" y="1173.0" type="line"/>
      <point x="610.0" y="1457.0" type="line"/>
      <point x="494.0" y="1457.0" type="line"/>
    </contour>
  </outline>
</glyph>
<glyph name="breve" format="2">
  <advance width="1104.0"/>
  <unicode hex="02D8"/>
  <outline>
    <contour>
      <point x="552.0" y="1179.0" type="curve" smooth="yes"/>
      <point x="724.0" y="1179.0"/>
      <point x="795.0" y="1318.0"/>
      <point x="804.0" y="1432.0" type="curve"/>
      <point x="715.0" y="1432.0" type="line"/>
      <point x="704.0" y="1349.0"/>
      <point x="653.0" y="1267.0"/>
      <point x="552.0" y="1267.0" type="curve" smooth="yes"/>
      <point x="450.0" y="1267.0"/>
      <point x="400.0" y="1349.0"/>
      <point x="389.0" y="1432.0" type="curve"/>
      <point x="300.0" y="1432.0" type="line"/>
      <point x="309.0" y="1318.0"/>
      <point x="380.0" y="1179.0"/>
    </contour>
  </outline>
</glyph>
<glyph name="tilde" format="2">
  <advance width="1104.0"/>
  <unicode hex="02DC"/>
  <outline>
    <contour>
      <point x="280.0" y="1188.0" type="curve"/>
      <point x="362.0" y="1188.0" type="line"/>
      <point x="372.0" y="1258.0"/>
      <point x="395.0" y="1295.0"/>
      <point x="437.0" y="1295.0" type="curve" smooth="yes"/>
      <point x="509.0" y="1295.0"/>
      <point x="567.0" y="1188.0"/>
      <point x="668.0" y="1188.0" type="curve" smooth="yes"/>
      <point x="767.0" y="1188.0"/>
      <point x="815.0" y="1282.0"/>
      <point x="824.0" y="1390.0" type="curve"/>
      <point x="743.0" y="1390.0" type="line"/>
      <point x="732.0" y="1321.0"/>
      <point x="709.0" y="1282.0"/>
      <point x="667.0" y="1282.0" type="curve" smooth="yes"/>
      <point x="599.0" y="1282.0"/>
      <point x="539.0" y="1390.0"/>
      <point x="435.0" y="1390.0" type="curve" smooth="yes"/>
      <point x="337.0" y="1390.0"/>
      <point x="289.0" y="1296.0"/>
    </contour>
  </outline>
</glyph>
<glyph name="hungarumlaut" format="2">
  <advance width="1104.0"/>
  <unicode hex="02DD"/>
  <outline>
    <contour>
      <point x="364.0" y="1168.0" type="line"/>
      <point x="460.0" y="1168.0" type="line"/>
      <point x="636.0" y="1457.0" type="line"/>
      <point x="511.0" y="1457.0" type="line"/>
    </contour>
    <contour>
      <point x="654.0" y="1168.0" type="line"/>
      <point x="749.0" y="1168.0" type="line"/>
      <point x="925.0" y="1457.0" type="line"/>
      <point x="800.0" y="1457.0" type="line"/>
    </contour>
  </outline>
</glyph>
<glyph name="s.sups" format="2">
  <advance width="573.0"/>
  <unicode hex="02E2"/>
  <outline>
    <contour>
      <point x="295.0" y="516.0" type="curve" smooth="yes"/>
      <point x="436.0" y="516.0"/>
      <point x="530.0" y="600.0"/>
      <point x="530.0" y="715.0" type="curve" smooth="yes"/>
      <point x="530.0" y="837.0"/>
      <point x="423.0" y="872.0"/>
      <point x="326.0" y="909.0" type="curve" smooth="yes"/>
      <point x="249.0" y="940.0"/>
      <point x="177.0" y="961.0"/>
      <point x="177.0" y="1028.0" type="curve" smooth="yes"/>
      <point x="177.0" y="1074.0"/>
      <point x="216.0" y="1120.0"/>
      <point x="296.0" y="1120.0" type="curve" smooth="yes"/>
      <point x="361.0" y="1120.0"/>
      <point x="401.0" y="1097.0"/>
      <point x="450.0" y="1063.0" type="curve"/>
      <point x="505.0" y="1132.0" type="line"/>
      <point x="452.0" y="1172.0"/>
      <point x="383.0" y="1205.0"/>
      <point x="293.0" y="1205.0" type="curve" smooth="yes"/>
      <point x="154.0" y="1205.0"/>
      <point x="74.0" y="1117.0"/>
      <point x="74.0" y="1022.0" type="curve" smooth="yes"/>
      <point x="74.0" y="907.0"/>
      <point x="178.0" y="862.0"/>
      <point x="272.0" y="826.0" type="curve" smooth="yes"/>
      <point x="349.0" y="798.0"/>
      <point x="425.0" y="771.0"/>
      <point x="425.0" y="705.0" type="curve" smooth="yes"/>
      <point x="425.0" y="647.0"/>
      <point x="378.0" y="601.0"/>
      <point x="296.0" y="601.0" type="curve" smooth="yes"/>
      <point x="217.0" y="601.0"/>
      <point x="154.0" y="633.0"/>
      <point x="94.0" y="679.0" type="curve"/>
      <point x="41.0" y="606.0" type="line"/>
      <point x="105.0" y="556.0"/>
      <point x="196.0" y="516.0"/>
    </contour>
  </outline>
</glyph>
<glyph name="x.sups" format="2">
  <advance width="609.0"/>
  <unicode hex="02E3"/>
  <outline>
    <contour>
      <point x="16.0" y="532.0" type="line"/>
      <point x="131.0" y="532.0" type="line"/>
      <point x="223.0" y="683.0" type="line"/>
      <point x="295.0" y="797.0" type="line"/>
      <point x="303.0" y="797.0" type="line"/>
      <point x="376.0" y="683.0" type="line"/>
      <point x="471.0" y="532.0" type="line"/>
      <point x="589.0" y="532.0" type="line"/>
      <point x="372.0" y="865.0" type="line"/>
      <point x="575.0" y="1189.0" type="line"/>
      <point x="460.0" y="1189.0" type="line"/>
      <point x="377.0" y="1046.0" type="line"/>
      <point x="318.0" y="939.0" type="line"/>
      <point x="310.0" y="939.0" type="line"/>
      <point x="244.0" y="1046.0" type="line"/>
      <point x="154.0" y="1189.0" type="line"/>
      <point x="36.0" y="1189.0" type="line"/>
      <point x="240.0" y="876.0" type="line"/>
    </contour>
  </outline>
</glyph>
<glyph name="tildecomb" format="2">
  <unicode hex="0303"/>
  <anchor x="282.0" y="990.0" name="_top"/>
  <anchor x="282.0" y="1390.0" name="top"/>
  <outline>
    <contour>
      <point x="10.0" y="1188.0" type="curve"/>
      <point x="91.0" y="1188.0" type="line"/>
      <point x="102.0" y="1258.0"/>
      <point x="125.0" y="1295.0"/>
      <point x="167.0" y="1295.0" type="curve" smooth="yes"/>
      <point x="239.0" y="1295.0"/>
      <point x="295.0" y="1188.0"/>
      <point x="399.0" y="1188.0" type="curve" smooth="yes"/>
      <point x="498.0" y="1188.0"/>
      <point x="545.0" y="1282.0"/>
      <point x="554.0" y="1390.0" type="curve"/>
      <point x="473.0" y="1390.0" type="line"/>
      <point x="462.0" y="1321.0"/>
      <point x="439.0" y="1282.0"/>
      <point x="397.0" y="1282.0" type="curve" smooth="yes"/>
      <point x="329.0" y="1282.0"/>
      <point x="269.0" y="1390.0"/>
      <point x="165.0" y="1390.0" type="curve" smooth="yes"/>
      <point x="66.0" y="1390.0"/>
      <point x="19.0" y="1296.0"/>
    </contour>
  </outline>
</glyph>
<glyph name="dblgravecomb" format="2">
  <unicode hex="030F"/>
  <anchor x="290.5" y="990.0" name="_top"/>
  <anchor x="290.5" y="1457.0" name="top"/>
  <outline>
    <contour>
      <point x="187.0" y="1168.0" type="line"/>
      <point x="282.0" y="1168.0" type="line"/>
      <point x="136.0" y="1457.0" type="line"/>
      <point x="10.0" y="1457.0" type="line"/>
    </contour>
    <contour>
      <point x="476.0" y="1168.0" type="line"/>
      <point x="571.0" y="1168.0" type="line"/>
      <point x="426.0" y="1457.0" type="line"/>
      <point x="300.0" y="1457.0" type="line"/>
    </contour>
  </outline>
</glyph>
<glyph name="ogonekcomb" format="2">
  <unicode hex="0328"/>
  <anchor x="337.0" y="7.0" name="_ogonek"/>
  <outline>
    <contour>
      <point x="186.0" y="-420.0" type="curve" smooth="yes"/>
      <point x="234.0" y="-420.0"/>
      <point x="301.0" y="-396.0"/>
      <point x="337.0" y="-368.0" type="curve"/>
      <point x="297.0" y="-296.0" type="line"/>
      <point x="272.0" y="-314.0"/>
      <point x="246.0" y="-323.0"/>
      <point x="212.0" y="-323.0" type="curve" smooth="yes"/>
      <point x="162.0" y="-323.0"/>
      <point x="116.0" y="-291.0"/>
      <point x="116.0" y="-224.0" type="curve" smooth="yes"/>
      <point x="116.0" y="-141.0"/>
      <point x="171.0" y="-60.0"/>
      <point x="262.0" y="7.0" type="curve"/>
      <point x="155.0" y="7.0" type="line"/>
      <point x="85.0" y="-47.0"/>
      <point x="10.0" y="-140.0"/>
      <point x="10.0" y="-249.0" type="curve" smooth="yes"/>
      <point x="10.0" y="-361.0"/>
      <point x="88.0" y="-420.0"/>
    </contour>
  </outline>
</glyph>
<glyph name="macronbelowcomb" format="2">
  <unicode hex="0331"/>
  <anchor x="255.0" y="0.0" name="_bottom"/>
  <anchor x="255.0" y="-341.0" name="bottom"/>
  <outline>
    <contour>
      <point x="10.0" y="-341.0" type="line"/>
      <point x="500.0" y="-341.0" type="line"/>
      <point x="500.0" y="-240.0" type="line"/>
      <point x="10.0" y="-240.0" type="line"/>
    </contour>
  </outline>
</glyph>
<glyph name="anusvara-deva" format="2">
  <unicode hex="0902"/>
  <anchor x="270.0" y="1247.0" name="_top"/>
  <outline>
    <contour>
      <point x="270.0" y="1423.0" type="curve" smooth="yes"/>
      <point x="328.0" y="1423.0"/>
      <point x="352.0" y="1447.0"/>
      <point x="352.0" y="1504.0" type="curve" smooth="yes"/>
      <point x="352.0" y="1561.0"/>
      <point x="328.0" y="1585.0"/>
      <point x="270.0" y="1585.0" type="curve" smooth="yes"/>
      <point x="213.0" y="1585.0"/>
      <point x="188.0" y="1561.0"/>
      <point x="188.0" y="1504.0" type="curve" smooth="yes"/>
      <point x="188.0" y="1447.0"/>
      <point x="213.0" y="1423.0"/>
    </contour>
  </outline>
</glyph>
<glyph name="visarga-deva" format="2">
  <advance width="584.0"/>
  <unicode hex="0903"/>
  <outline>
    <contour>
      <point x="301.0" y="688.0" type="curve" smooth="yes"/>
      <point x="359.0" y="688.0"/>
      <point x="384.0" y="713.0"/>
      <point x="384.0" y="770.0" type="curve" smooth="yes"/>
      <point x="384.0" y="827.0"/>
      <point x="359.0" y="852.0"/>
      <point x="301.0" y="852.0" type="curve" smooth="yes"/>
      <point x="244.0" y="852.0"/>
      <point x="218.0" y="827.0"/>
      <point x="218.0" y="770.0" type="curve" smooth="yes"/>
      <point x="218.0" y="713.0"/>
      <point x="244.0" y="688.0"/>
    </contour>
    <contour>
      <point x="301.0" y="150.0" type="curve" smooth="yes"/>
      <point x="359.0" y="150.0"/>
      <point x="384.0" y="175.0"/>
      <point x="384.0" y="232.0" type="curve" smooth="yes"/>
      <point x="384.0" y="289.0"/>
      <point x="359.0" y="314.0"/>
      <point x="301.0" y="314.0" type="curve" smooth="yes"/>
      <point x="244.0" y="314.0"/>
      <point x="218.0" y="289.0"/>
      <point x="218.0" y="232.0" type="curve" smooth="yes"/>
      <point x="218.0" y="175.0"/>
      <point x="244.0" y="150.0"/>
    </contour>
  </outline>
</glyph>
<glyph name="a-deva" format="2">
  <advance width="1378.0"/>
  <unicode hex="0905"/>
  <anchor x="1102.0" y="0.0" name="bottom"/>
  <anchor x="907.0" y="1247.0" name="candra"/>
  <anchor x="1108.0" y="1247.0" name="top"/>
  <outline>
    <contour>
      <point x="384.0" y="150.0" type="curve" smooth="yes"/>
      <point x="570.0" y="150.0"/>
      <point x="727.0" y="264.0"/>
      <point x="727.0" y="461.0" type="curve" smooth="yes"/>
      <point x="727.0" y="622.0"/>
      <point x="616.0" y="736.0"/>
      <point x="404.0" y="763.0" type="curve"/>
      <point x="332.0" y="727.0" type="line"/>
      <point x="520.0" y="671.0"/>
      <point x="598.0" y="598.0"/>
      <point x="598.0" y="468.0" type="curve" smooth="yes"/>
      <point x="598.0" y="326.0"/>
      <point x="501.0" y="264.0"/>
      <point x="371.0" y="264.0" type="curve" smooth="yes"/>
      <point x="268.0" y="264.0"/>
      <point x="162.0" y="301.0"/>
      <point x="54.0" y="400.0" type="curve"/>
      <point x="-12.0" y="320.0" type="line"/>
      <point x="111.0" y="200.0"/>
      <point x="246.0" y="150.0"/>
    </contour>
    <contour>
      <point x="245.0" y="667.0" type="line"/>
      <point x="322.0" y="669.0"/>
      <point x="417.0" y="686.0"/>
      <point x="499.0" y="731.0" type="curve" smooth="yes"/>
      <point x="618.0" y="792.0"/>
      <point x="674.0" y="883.0"/>
      <point x="674.0" y="1008.0" type="curve" smooth="yes"/>
      <point x="674.0" y="1175.0"/>
      <point x="555.0" y="1268.0"/>
      <point x="369.0" y="1268.0" type="curve" smooth="yes"/>
      <point x="277.0" y="1268.0"/>
      <point x="194.0" y="1246.0"/>
      <point x="107.0" y="1208.0" type="curve"/>
      <point x="144.0" y="1109.0" type="line"/>
      <point x="228.0" y="1143.0"/>
      <point x="301.0" y="1159.0"/>
      <point x="365.0" y="1159.0" type="curve" smooth="yes"/>
      <point x="468.0" y="1159.0"/>
      <point x="554.0" y="1126.0"/>
      <point x="554.0" y="996.0" type="curve" smooth="yes"/>
      <point x="554.0" y="881.0"/>
      <point x="480.0" y="814.0"/>
      <point x="322.0" y="782.0" type="curve" smooth="yes"/>
      <point x="299.0" y="777.0"/>
      <point x="275.0" y="772.0"/>
      <point x="236.0" y="768.0" type="curve"/>
    </contour>
    <contour>
      <point x="676.0" y="558.0" type="line"/>
      <point x="781.0" y="557.0"/>
      <point x="961.0" y="585.0"/>
      <point x="1078.0" y="660.0" type="curve"/>
      <point x="1071.0" y="781.0" type="line"/>
      <point x="944.0" y="688.0"/>
      <point x="767.0" y="652.0"/>
      <point x="634.0" y="650.0" type="curve"/>
    </contour>
    <contour>
      <point x="1038.0" y="0.0" type="line"/>
      <point x="1165.0" y="0.0" type="line"/>
      <point x="1165.0" y="1196.0" type="line"/>
      <point x="1038.0" y="1196.0" type="line"/>
    </contour>
    <contour>
      <point x="836.0" y="1143.0" type="line"/>
      <point x="1391.0" y="1143.0" type="line"/>
      <point x="1391.0" y="1247.0" type="line"/>
      <point x="836.0" y="1247.0" type="line"/>
    </contour>
  </outline>
</glyph>
<glyph name="i-deva" format="2">
  <advance width="980.0"/>
  <unicode hex="0907"/>
  <anchor x="442.0" y="1247.0" name="candra"/>
  <anchor x="727.0" y="1247.0" name="top"/>
  <outline>
    <contour>
      <point x="516.0" y="21.0" type="curve"/>
      <point x="736.0" y="21.0"/>
      <point x="919.0" y="120.0"/>
      <point x="919.0" y="341.0" type="curve" smooth="yes"/>
      <point x="919.0" y="550.0"/>
      <point x="777.0" y="593.0"/>
      <point x="628.0" y="592.0" type="curve" smooth="yes"/>
      <point x="510.0" y="591.0"/>
      <point x="314.0" y="571.0"/>
      <point x="251.0" y="554.0" type="curve"/>
      <point x="282.0" y="538.0" type="line"/>
      <point x="239.0" y="588.0"/>
      <point x="218.0" y="667.0"/>
      <point x="218.0" y="726.0" type="curve" smooth="yes"/>
      <point x="218.0" y="802.0"/>
      <point x="246.0" y="849.0"/>
      <point x="379.0" y="849.0" type="curve" smooth="yes"/>
      <point x="747.0" y="849.0" type="line"/>
      <point x="733.0" y="961.0" type="line"/>
      <point x="346.0" y="961.0" type="line" smooth="yes"/>
      <point x="187.0" y="961.0"/>
      <point x="101.0" y="890.0"/>
      <point x="101.0" y="760.0" type="curve" smooth="yes"/>
      <point x="101.0" y="655.0"/>
      <point x="149.0" y="530.0"/>
      <point x="206.0" y="476.0" type="curve" smooth="yes"/>
      <point x="225.0" y="458.0"/>
      <point x="251.0" y="441.0"/>
      <point x="289.0" y="447.0" type="curve" smooth="yes"/>
      <point x="343.0" y="456.0"/>
      <point x="525.0" y="477.0"/>
      <point x="618.0" y="477.0" type="curve" smooth="yes"/>
      <point x="755.0" y="477.0"/>
      <point x="804.0" y="422.0"/>
      <point x="800.0" y="322.0" type="curve" smooth="yes"/>
      <point x="795.0" y="208.0"/>
      <point x="707.0" y="132.0"/>
      <point x="508.0" y="132.0" type="curve" smooth="yes"/>
      <point x="407.0" y="132.0"/>
      <point x="317.0" y="148.0"/>
      <point x="231.0" y="194.0" type="curve"/>
      <point x="298.0" y="137.0" type="line"/>
      <point x="208.0" y="320.0" type="line"/>
      <point x="88.0" y="287.0" type="line"/>
      <point x="85.0" y="268.0"/>
      <point x="83.0" y="248.0"/>
      <point x="83.0" y="233.0" type="curve" smooth="yes"/>
      <point x="83.0" y="123.0"/>
      <point x="177.0" y="76.0"/>
      <point x="285.0" y="42.0" type="curve"/>
      <point x="284.0" y="69.0" type="line"/>
      <point x="351.0" y="35.0"/>
      <point x="433.0" y="21.0"/>
    </contour>
    <contour>
      <point x="432.0" y="-279.0" type="line"/>
      <point x="536.0" y="-217.0" type="line"/>
      <point x="279.0" y="142.0" type="line"/>
      <point x="205.0" y="126.0" type="line"/>
    </contour>
    <contour>
      <point x="-12.0" y="1143.0" type="line"/>
      <point x="993.0" y="1143.0" type="line"/>
      <point x="993.0" y="1247.0" type="line"/>
      <point x="-12.0" y="1247.0" type="line"/>
    </contour>
    <contour>
      <point x="669.0" y="849.0" type="line"/>
      <point x="794.0" y="849.0" type="line"/>
      <point x="794.0" y="1195.0" type="line"/>
      <point x="669.0" y="1195.0" type="line"/>
    </contour>
  </outline>
</glyph>
<glyph name="rVocalic-deva" format="2">
  <advance width="1450.0"/>
  <unicode hex="090B"/>
  <anchor x="737.0" y="0.0" name="bottom"/>
  <anchor x="741.0" y="1248.0" name="candra"/>
  <anchor x="737.0" y="1168.0" name="top"/>
  <outline>
    <contour>
      <point x="238.0" y="155.0" type="line"/>
      <point x="738.0" y="526.0" type="line"/>
      <point x="752.0" y="588.0" type="line"/>
      <point x="555.0" y="855.0"/>
      <point x="450.0" y="918.0"/>
      <point x="320.0" y="924.0" type="curve" smooth="yes"/>
      <point x="220.0" y="928.0"/>
      <point x="146.0" y="892.0"/>
      <point x="82.0" y="853.0" type="curve"/>
      <point x="130.0" y="750.0" type="line"/>
      <point x="205.0" y="791.0"/>
      <point x="271.0" y="812.0"/>
      <point x="334.0" y="809.0" type="curve" smooth="yes"/>
      <point x="448.0" y="804.0"/>
      <point x="534.0" y="711.0"/>
      <point x="671.0" y="547.0" type="curve"/>
      <point x="679.0" y="606.0" type="line"/>
      <point x="167.0" y="252.0" type="line"/>
    </contour>
    <contour>
      <point x="674.0" y="-1.0" type="line"/>
      <point x="800.0" y="-1.0" type="line"/>
      <point x="800.0" y="1186.0" type="line"/>
      <point x="674.0" y="1186.0" type="line"/>
    </contour>
    <contour>
      <point x="1109.0" y="64.0" type="line"/>
      <point x="1268.0" y="138.0"/>
      <point x="1326.0" y="237.0"/>
      <point x="1326.0" y="355.0" type="curve" smooth="yes"/>
      <point x="1326.0" y="492.0"/>
      <point x="1245.0" y="628.0"/>
      <point x="1064.0" y="816.0" type="curve"/>
      <point x="1018.0" y="761.0" type="line"/>
      <point x="1138.0" y="595.0"/>
      <point x="1206.0" y="483.0"/>
      <point x="1206.0" y="378.0" type="curve" smooth="yes"/>
      <point x="1206.0" y="286.0"/>
      <point x="1162.0" y="214.0"/>
      <point x="1047.0" y="156.0" type="curve"/>
    </contour>
    <contour>
      <point x="779.0" y="562.0" type="line"/>
      <point x="934.0" y="565.0"/>
      <point x="1029.0" y="621.0"/>
      <point x="1124.0" y="693.0" type="curve" smooth="yes"/>
      <point x="1175.0" y="739.0"/>
      <point x="1192.0" y="788.0"/>
      <point x="1192.0" y="821.0" type="curve" smooth="yes"/>
      <point x="1192.0" y="894.0"/>
      <point x="1119.0" y="933.0"/>
      <point x="1009.0" y="960.0" type="curve"/>
      <point x="930.0" y="893.0" type="line"/>
      <point x="1048.0" y="716.0" type="line"/>
      <point x="1051.0" y="784.0" type="line"/>
      <point x="972.0" y="698.0"/>
      <point x="858.0" y="663.0"/>
      <point x="734.0" y="671.0" type="curve"/>
    </contour>
    <contour>
      <point x="-12.0" y="1143.0" type="line"/>
      <point x="1460.0" y="1143.0" type="line"/>
      <point x="1460.0" y="1247.0" type="line"/>
      <point x="-12.0" y="1247.0" type="line"/>
    </contour>
  </outline>
</glyph>
<glyph name="e-deva" format="2">
  <advance width="1020.0"/>
  <unicode hex="090F"/>
  <anchor x="598.0" y="36.0" name="bottom"/>
  <anchor x="506.0" y="1247.0" name="candra"/>
  <anchor x="808.0" y="1247.0" name="top"/>
  <outline>
    <contour>
      <point x="651.0" y="-218.0" type="line"/>
      <point x="746.0" y="-138.0"/>
      <point x="765.0" y="-62.0"/>
      <point x="765.0" y="-1.0" type="curve" smooth="yes"/>
      <point x="766.0" y="78.0"/>
      <point x="715.0" y="155.0"/>
      <point x="625.0" y="240.0" type="curve" smooth="yes"/>
      <point x="383.0" y="465.0" type="line" smooth="yes"/>
      <point x="267.0" y="573.0"/>
      <point x="268.0" y="635.0"/>
      <point x="268.0" y="727.0" type="curve" smooth="yes"/>
      <point x="268.0" y="1176.0" type="line"/>
      <point x="143.0" y="1176.0" type="line"/>
      <point x="143.0" y="715.0" type="line" smooth="yes"/>
      <point x="143.0" y="535.0"/>
      <point x="200.0" y="472.0"/>
      <point x="319.0" y="361.0" type="curve" smooth="yes"/>
      <point x="561.0" y="135.0" type="line"/>
      <point x="613.0" y="85.0"/>
      <point x="643.0" y="37.0"/>
      <point x="643.0" y="-9.0" type="curve" smooth="yes"/>
      <point x="642.0" y="-58.0"/>
      <point x="618.0" y="-103.0"/>
      <point x="571.0" y="-148.0" type="curve"/>
    </contour>
    <contour>
      <point x="680.0" y="428.0" type="line"/>
      <point x="819.0" y="499.0"/>
      <point x="875.0" y="608.0"/>
      <point x="875.0" y="753.0" type="curve" smooth="yes"/>
      <point x="875.0" y="1194.0" type="line"/>
      <point x="749.0" y="1194.0" type="line"/>
      <point x="749.0" y="746.0" type="line" smooth="yes"/>
      <point x="749.0" y="656.0"/>
      <point x="725.0" y="585.0"/>
      <point x="608.0" y="524.0" type="curve"/>
    </contour>
    <contour>
      <point x="-15.0" y="1143.0" type="line"/>
      <point x="1034.0" y="1143.0" type="line"/>
      <point x="1034.0" y="1248.0" type="line"/>
      <point x="-15.0" y="1248.0" type="line"/>
    </contour>
  </outline>
</glyph>
<glyph name="ka-deva" format="2">
  <advance width="1491.0"/>
  <unicode hex="0915"/>
  <anchor x="785.0" y="0.0" name="bottom"/>
  <anchor x="783.0" y="1247.0" name="candra"/>
  <anchor x="337.0" y="44.0" name="nukta"/>
  <anchor x="786.0" y="1247.0" name="top"/>
  <outline>
    <contour>
      <point x="410.0" y="223.0" type="curve" smooth="yes"/>
      <point x="557.0" y="223.0"/>
      <point x="695.0" y="288.0"/>
      <point x="778.0" y="392.0" type="curve"/>
      <point x="756.0" y="513.0" type="line"/>
      <point x="683.0" y="406.0"/>
      <point x="559.0" y="332.0"/>
      <point x="418.0" y="332.0" type="curve" smooth="yes"/>
      <point x="283.0" y="332.0"/>
      <point x="209.0" y="405.0"/>
      <point x="209.0" y="563.0" type="curve" smooth="yes"/>
      <point x="209.0" y="728.0"/>
      <point x="299.0" y="798.0"/>
      <point x="440.0" y="803.0" type="curve" smooth="yes"/>
      <point x="542.0" y="808.0"/>
      <point x="647.0" y="787.0"/>
      <point x="769.0" y="734.0" type="curve"/>
      <point x="769.0" y="821.0" type="line"/>
      <point x="671.0" y="883.0"/>
      <point x="552.0" y="915.0"/>
      <point x="440.0" y="915.0" type="curve" smooth="yes"/>
      <point x="208.0" y="915.0"/>
      <point x="79.0" y="797.0"/>
      <point x="79.0" y="568.0" type="curve" smooth="yes"/>
      <point x="79.0" y="372.0"/>
      <point x="192.0" y="223.0"/>
    </contour>
    <contour>
      <point x="722.0" y="0.0" type="line"/>
      <point x="848.0" y="0.0" type="line"/>
      <point x="848.0" y="1196.0" type="line"/>
      <point x="722.0" y="1196.0" type="line"/>
    </contour>
    <contour>
      <point x="1267.0" y="168.0" type="line"/>
      <point x="1375.0" y="300.0"/>
      <point x="1411.0" y="440.0"/>
      <point x="1413.0" y="555.0" type="curve" smooth="yes"/>
      <point x="1420.0" y="754.0"/>
      <point x="1312.0" y="861.0"/>
      <point x="1148.0" y="861.0" type="curve" smooth="yes"/>
      <point x="1024.0" y="861.0"/>
      <point x="915.0" y="805.0"/>
      <point x="815.0" y="683.0" type="curve"/>
      <point x="815.0" y="506.0" type="line"/>
      <point x="936.0" y="670.0"/>
      <point x="1041.0" y="747.0"/>
      <point x="1139.0" y="747.0" type="curve" smooth="yes"/>
      <point x="1243.0" y="747.0"/>
      <point x="1303.0" y="696.0"/>
      <point x="1297.0" y="562.0" type="curve" smooth="yes"/>
      <point x="1293.0" y="470.0"/>
      <point x="1263.0" y="361.0"/>
      <point x="1172.0" y="240.0" type="curve"/>
    </contour>
    <contour>
      <point x="-12.0" y="1143.0" type="line"/>
      <point x="1504.0" y="1143.0" type="line"/>
      <point x="1504.0" y="1247.0" type="line"/>
      <point x="-12.0" y="1247.0" type="line"/>
    </contour>
  </outline>
</glyph>
<glyph name="kha-deva" format="2">
  <advance width="1589.0"/>
  <unicode hex="0916"/>
  <anchor x="1313.0" y="0.0" name="bottom"/>
  <anchor x="1257.0" y="1247.0" name="candra"/>
  <anchor x="157.0" y="24.0" name="nukta"/>
  <anchor x="1310.0" y="1247.0" name="top"/>
  <outline>
    <contour>
      <point x="776.0" y="-56.0" type="curve" smooth="yes"/>
      <point x="835.0" y="-56.0"/>
      <point x="939.0" y="-51.0"/>
      <point x="1027.0" y="-8.0" type="curve"/>
      <point x="997.0" y="96.0" type="line"/>
      <point x="941.0" y="73.0"/>
      <point x="862.0" y="55.0"/>
      <point x="772.0" y="55.0" type="curve" smooth="yes"/>
      <point x="544.0" y="55.0"/>
      <point x="322.0" y="236.0"/>
      <point x="198.0" y="614.0" type="curve"/>
      <point x="175.0" y="585.0" type="line"/>
      <point x="215.0" y="571.0"/>
      <point x="256.0" y="561.0"/>
      <point x="298.0" y="561.0" type="curve" smooth="yes"/>
      <point x="409.0" y="561.0"/>
      <point x="504.0" y="630.0"/>
      <point x="504.0" y="839.0" type="curve" smooth="yes"/>
      <point x="504.0" y="1191.0" type="line"/>
      <point x="377.0" y="1190.0" type="line"/>
      <point x="377.0" y="831.0" type="line" smooth="yes"/>
      <point x="377.0" y="720.0"/>
      <point x="350.0" y="667.0"/>
      <point x="263.0" y="665.0" type="curve" smooth="yes"/>
      <point x="230.0" y="664.0"/>
      <point x="193.0" y="671.0"/>
      <point x="150.0" y="706.0" type="curve"/>
      <point x="65.0" y="649.0" type="line"/>
      <point x="237.0" y="123.0"/>
      <point x="502.0" y="-56.0"/>
    </contour>
    <contour>
      <point x="947.0" y="263.0" type="curve" smooth="yes"/>
      <point x="1099.0" y="263.0"/>
      <point x="1215.0" y="324.0"/>
      <point x="1290.0" y="413.0" type="curve"/>
      <point x="1285.0" y="550.0" type="line"/>
      <point x="1213.0" y="443.0"/>
      <point x="1105.0" y="372.0"/>
      <point x="964.0" y="372.0" type="curve" smooth="yes"/>
      <point x="831.0" y="372.0"/>
      <point x="772.0" y="436.0"/>
      <point x="772.0" y="574.0" type="curve" smooth="yes"/>
      <point x="772.0" y="701.0"/>
      <point x="820.0" y="784.0"/>
      <point x="1004.0" y="785.0" type="curve" smooth="yes"/>
      <point x="1088.0" y="786.0"/>
      <point x="1183.0" y="770.0"/>
      <point x="1290.0" y="736.0" type="curve"/>
      <point x="1289.0" y="829.0" type="line"/>
      <point x="1228.0" y="858.0"/>
      <point x="1116.0" y="892.0"/>
      <point x="988.0" y="892.0" type="curve" smooth="yes"/>
      <point x="778.0" y="892.0"/>
      <point x="642.0" y="801.0"/>
      <point x="642.0" y="573.0" type="curve" smooth="yes"/>
      <point x="642.0" y="405.0"/>
      <point x="734.0" y="263.0"/>
    </contour>
    <contour>
      <point x="1250.0" y="0.0" type="line"/>
      <point x="1376.0" y="0.0" type="line"/>
      <point x="1376.0" y="1193.0" type="line"/>
      <point x="1250.0" y="1193.0" type="line"/>
    </contour>
    <contour>
      <point x="-12.0" y="1143.0" type="line"/>
      <point x="1602.0" y="1143.0" type="line"/>
      <point x="1602.0" y="1247.0" type="line"/>
      <point x="-12.0" y="1247.0" type="line"/>
    </contour>
  </outline>
</glyph>
<glyph name="ga-deva" format="2">
  <advance width="1137.0"/>
  <unicode hex="0917"/>
  <anchor x="860.0" y="0.0" name="bottom"/>
  <anchor x="796.0" y="1247.0" name="candra"/>
  <anchor x="309.0" y="147.0" name="nukta"/>
  <anchor x="861.0" y="1247.0" name="top"/>
  <outline>
    <contour>
      <point x="797.0" y="0.0" type="line"/>
      <point x="923.0" y="0.0" type="line"/>
      <point x="923.0" y="1202.0" type="line"/>
      <point x="797.0" y="1202.0" type="line"/>
    </contour>
    <contour>
      <point x="269.0" y="386.0" type="line"/>
      <point x="358.0" y="389.0"/>
      <point x="377.0" y="437.0"/>
      <point x="377.0" y="495.0" type="curve" smooth="yes"/>
      <point x="377.0" y="685.0" type="line"/>
      <point x="273.0" y="685.0" type="line"/>
      <point x="99.0" y="665.0" type="line"/>
      <point x="99.0" y="576.0" type="line"/>
    </contour>
    <contour>
      <point x="252.0" y="520.0" type="line"/>
      <point x="378.0" y="622.0" type="line"/>
      <point x="378.0" y="1191.0" type="line"/>
      <point x="252.0" y="1191.0" type="line"/>
    </contour>
    <contour>
      <point x="-12.0" y="1143.0" type="line"/>
      <point x="1150.0" y="1143.0" type="line"/>
      <point x="1150.0" y="1247.0" type="line"/>
      <point x="-12.0" y="1247.0" type="line"/>
    </contour>
  </outline>
</glyph>
<glyph name="nga-deva" format="2">
  <advance width="1110.0"/>
  <unicode hex="0919"/>
  <anchor x="571.0" y="-49.0" name="bottom"/>
  <anchor x="712.0" y="1248.0" name="candra"/>
  <anchor x="731.0" y="1247.0" name="top"/>
  <anchor x="515.0" y="-217.0" name="nukta"/>
  <outline>
    <contour>
      <point x="978.0" y="763.0" type="curve" smooth="yes"/>
      <point x="921.0" y="763.0"/>
      <point x="896.0" y="739.0"/>
      <point x="896.0" y="682.0" type="curve" smooth="yes"/>
      <point x="896.0" y="625.0"/>
      <point x="921.0" y="601.0"/>
      <point x="978.0" y="601.0" type="curve" smooth="yes"/>
      <point x="1036.0" y="601.0"/>
      <point x="1060.0" y="625.0"/>
      <point x="1060.0" y="682.0" type="curve" smooth="yes"/>
      <point x="1060.0" y="739.0"/>
      <point x="1036.0" y="763.0"/>
    </contour>
    <contour>
      <point x="1123.0" y="1247.0" type="line"/>
      <point x="879.0" y="1247.0" type="line"/>
      <point x="879.0" y="1143.0" type="line"/>
      <point x="1123.0" y="1143.0" type="line"/>
    </contour>
    <component base="dda-deva"/>
  </outline>
</glyph>
<glyph name="cha-deva" format="2">
  <advance width="1286.0"/>
  <unicode hex="091B"/>
  <anchor x="639.0" y="0.0" name="bottom"/>
  <anchor x="942.0" y="1248.0" name="candra"/>
  <anchor x="638.0" y="-153.0" name="nukta"/>
  <anchor x="954.0" y="1247.0" name="top"/>
  <outline>
    <contour>
      <point x="536.0" y="85.0" type="curve" smooth="yes"/>
      <point x="914.0" y="85.0"/>
      <point x="1217.0" y="322.0"/>
      <point x="1217.0" y="641.0" type="curve" smooth="yes"/>
      <point x="1217.0" y="853.0"/>
      <point x="1081.0" y="936.0"/>
      <point x="954.0" y="934.0" type="curve" smooth="yes"/>
      <point x="775.0" y="931.0"/>
      <point x="703.0" y="838.0"/>
      <point x="703.0" y="713.0" type="curve" smooth="yes"/>
      <point x="704.0" y="639.0"/>
      <point x="740.0" y="542.0"/>
      <point x="819.0" y="464.0" type="curve"/>
      <point x="893.0" y="521.0" type="line"/>
      <point x="833.0" y="592.0"/>
      <point x="817.0" y="655.0"/>
      <point x="817.0" y="706.0" type="curve" smooth="yes"/>
      <point x="817.0" y="783.0"/>
      <point x="867.0" y="834.0"/>
      <point x="949.0" y="834.0" type="curve" smooth="yes"/>
      <point x="1031.0" y="834.0"/>
      <point x="1095.0" y="779.0"/>
      <point x="1096.0" y="638.0" type="curve" smooth="yes"/>
      <point x="1097.0" y="379.0"/>
      <point x="843.0" y="198.0"/>
      <point x="534.0" y="198.0" type="curve" smooth="yes"/>
      <point x="329.0" y="198.0"/>
      <point x="229.0" y="282.0"/>
      <point x="229.0" y="432.0" type="curve" smooth="yes"/>
      <point x="229.0" y="614.0"/>
      <point x="402.0" y="635.0"/>
      <point x="544.0" y="636.0" type="curve"/>
      <point x="540.0" y="745.0" type="line"/>
      <point x="526.0" y="745.0"/>
      <point x="512.0" y="746.0"/>
      <point x="500.0" y="745.0" type="curve" smooth="yes"/>
      <point x="208.0" y="737.0"/>
      <point x="97.0" y="591.0"/>
      <point x="97.0" y="432.0" type="curve" smooth="yes"/>
      <point x="97.0" y="248.0"/>
      <point x="232.0" y="85.0"/>
    </contour>
    <contour>
      <point x="344.0" y="656.0" type="curve"/>
      <point x="410.0" y="706.0" type="line"/>
      <point x="275.0" y="773.0"/>
      <point x="225.0" y="844.0"/>
      <point x="225.0" y="945.0" type="curve" smooth="yes"/>
      <point x="225.0" y="1050.0"/>
      <point x="315.0" y="1133.0"/>
      <point x="465.0" y="1148.0" type="curve"/>
      <point x="482.0" y="1208.0" type="line"/>
      <point x="245.0" y="1205.0"/>
      <point x="94.0" y="1119.0"/>
      <point x="95.0" y="938.0" type="curve" smooth="yes"/>
      <point x="97.0" y="841.0"/>
      <point x="157.0" y="737.0"/>
    </contour>
    <contour>
      <point x="-12.0" y="1143.0" type="line"/>
      <point x="1299.0" y="1143.0" type="line"/>
      <point x="1299.0" y="1247.0" type="line"/>
      <point x="-12.0" y="1247.0" type="line"/>
    </contour>
    <contour>
      <point x="893.0" y="891.0" type="line"/>
      <point x="1017.0" y="891.0" type="line"/>
      <point x="1017.0" y="1198.0" type="line"/>
      <point x="893.0" y="1198.0" type="line"/>
    </contour>
  </outline>
</glyph>
<glyph name="ja-deva" format="2">
  <advance width="1418.0"/>
  <unicode hex="091C"/>
  <anchor x="1143.0" y="0.0" name="bottom"/>
  <anchor x="1027.0" y="1247.0" name="candra"/>
  <anchor x="141.0" y="70.0" name="nukta"/>
  <anchor x="1145.0" y="1247.0" name="top"/>
  <outline>
    <contour>
      <point x="529.0" y="170.0" type="curve" smooth="yes"/>
      <point x="734.0" y="170.0"/>
      <point x="857.0" y="290.0"/>
      <point x="857.0" y="470.0" type="curve" smooth="yes"/>
      <point x="857.0" y="626.0"/>
      <point x="779.0" y="719.0"/>
      <point x="642.0" y="792.0" type="curve"/>
      <point x="562.0" y="857.0" type="line"/>
      <point x="522.0" y="771.0" type="line"/>
      <point x="649.0" y="707.0"/>
      <point x="731.0" y="624.0"/>
      <point x="731.0" y="485.0" type="curve" smooth="yes"/>
      <point x="731.0" y="367.0"/>
      <point x="662.0" y="289.0"/>
      <point x="526.0" y="288.0" type="curve" smooth="yes"/>
      <point x="264.0" y="286.0"/>
      <point x="196.0" y="597.0"/>
      <point x="171.0" y="837.0" type="curve"/>
      <point x="65.0" y="823.0" type="line"/>
      <point x="93.0" y="442.0"/>
      <point x="220.0" y="170.0"/>
    </contour>
    <contour>
      <point x="617.0" y="746.0" type="line"/>
      <point x="1156.0" y="746.0" type="line"/>
      <point x="1156.0" y="857.0" type="line"/>
      <point x="563.0" y="857.0" type="line"/>
    </contour>
    <contour>
      <point x="1078.0" y="0.0" type="line"/>
      <point x="1204.0" y="0.0" type="line"/>
      <point x="1204.0" y="1191.0" type="line"/>
      <point x="1078.0" y="1191.0" type="line"/>
    </contour>
    <contour>
      <point x="-12.0" y="1143.0" type="line"/>
      <point x="1431.0" y="1143.0" type="line"/>
      <point x="1431.0" y="1247.0" type="line"/>
      <point x="-12.0" y="1247.0" type="line"/>
    </contour>
  </outline>
</glyph>
<glyph name="ttha-deva" format="2">
  <advance width="1171.0"/>
  <unicode hex="0920"/>
  <anchor x="596.0" y="-73.0" name="bottom"/>
  <anchor x="708.0" y="1247.0" name="candra"/>
  <anchor x="573.0" y="-181.0" name="nukta"/>
  <anchor x="775.0" y="1247.0" name="top"/>
  <outline>
    <contour>
      <point x="-12.0" y="1143.0" type="line"/>
      <point x="1184.0" y="1143.0" type="line"/>
      <point x="1184.0" y="1247.0" type="line"/>
      <point x="-12.0" y="1247.0" type="line"/>
    </contour>
    <contour>
      <point x="841.0" y="852.0" type="line"/>
      <point x="841.0" y="1182.0" type="line"/>
      <point x="715.0" y="1182.0" type="line"/>
      <point x="714.0" y="862.0" type="line"/>
    </contour>
    <contour>
      <point x="589.0" y="35.0" type="curve" smooth="yes"/>
      <point x="916.0" y="35.0"/>
      <point x="1083.0" y="175.0"/>
      <point x="1083.0" y="464.0" type="curve" smooth="yes"/>
      <point x="1083.0" y="691.0"/>
      <point x="982.0" y="841.0"/>
      <point x="791.0" y="883.0" type="curve" smooth="yes"/>
      <point x="721.0" y="898.0"/>
      <point x="640.0" y="901.0"/>
      <point x="570.0" y="901.0" type="curve" smooth="yes"/>
      <point x="240.0" y="901.0"/>
      <point x="88.0" y="771.0"/>
      <point x="88.0" y="479.0" type="curve" smooth="yes"/>
      <point x="88.0" y="192.0"/>
      <point x="264.0" y="35.0"/>
    </contour>
    <contour>
      <point x="587.0" y="150.0" type="curve" smooth="yes"/>
      <point x="332.0" y="150.0"/>
      <point x="221.0" y="254.0"/>
      <point x="221.0" y="468.0" type="curve" smooth="yes"/>
      <point x="221.0" y="690.0"/>
      <point x="323.0" y="787.0"/>
      <point x="573.0" y="787.0" type="curve" smooth="yes"/>
      <point x="650.0" y="787.0"/>
      <point x="740.0" y="784.0"/>
      <point x="813.0" y="751.0" type="curve" smooth="yes"/>
      <point x="904.0" y="708.0"/>
      <point x="952.0" y="619.0"/>
      <point x="951.0" y="467.0" type="curve" smooth="yes"/>
      <point x="950.0" y="252.0"/>
      <point x="832.0" y="150.0"/>
    </contour>
  </outline>
</glyph>
<glyph name="ta-deva" format="2">
  <advance width="1107.0"/>
  <unicode hex="0924"/>
  <anchor x="830.0" y="0.0" name="bottom"/>
  <anchor x="760.0" y="1247.0" name="candra"/>
  <anchor x="57.0" y="34.0" name="nukta"/>
  <anchor x="834.0" y="1247.0" name="top"/>
  <outline>
    <contour>
      <point x="354.0" y="-30.0" type="curve"/>
      <point x="455.0" y="39.0" type="line"/>
      <point x="302.0" y="250.0"/>
      <point x="213.0" y="412.0"/>
      <point x="213.0" y="552.0" type="curve" smooth="yes"/>
      <point x="213.0" y="693.0"/>
      <point x="290.0" y="713.0"/>
      <point x="442.0" y="713.0" type="curve" smooth="yes"/>
      <point x="837.0" y="713.0" type="line"/>
      <point x="804.0" y="828.0" type="line"/>
      <point x="402.0" y="828.0" type="line" smooth="yes"/>
      <point x="160.0" y="829.0"/>
      <point x="83.0" y="713.0"/>
      <point x="83.0" y="570.0" type="curve" smooth="yes"/>
      <point x="83.0" y="366.0"/>
      <point x="230.0" y="130.0"/>
    </contour>
    <contour>
      <point x="767.0" y="0.0" type="line"/>
      <point x="893.0" y="0.0" type="line"/>
      <point x="893.0" y="1191.0" type="line"/>
      <point x="767.0" y="1191.0" type="line"/>
    </contour>
    <contour>
      <point x="-12.0" y="1143.0" type="line"/>
      <point x="1120.0" y="1143.0" type="line"/>
      <point x="1120.0" y="1247.0" type="line"/>
      <point x="-12.0" y="1247.0" type="line"/>
    </contour>
  </outline>
</glyph>
<glyph name="dha-deva" format="2">
  <advance width="1242.0"/>
  <unicode hex="0927"/>
  <anchor x="965.0" y="0.0" name="bottom"/>
  <anchor x="877.0" y="1247.0" name="candra"/>
  <anchor x="307.0" y="44.0" name="nukta"/>
  <anchor x="965.0" y="1247.0" name="top"/>
  <outline>
    <contour>
      <point x="467.0" y="212.0" type="curve" smooth="yes"/>
      <point x="653.0" y="212.0"/>
      <point x="835.0" y="286.0"/>
      <point x="945.0" y="417.0" type="curve"/>
      <point x="921.0" y="551.0" type="line"/>
      <point x="812.0" y="403.0"/>
      <point x="638.0" y="328.0"/>
      <point x="469.0" y="328.0" type="curve" smooth="yes"/>
      <point x="334.0" y="328.0"/>
      <point x="269.0" y="390.0"/>
      <point x="269.0" y="508.0" type="curve" smooth="yes"/>
      <point x="269.0" y="636.0"/>
      <point x="357.0" y="703.0"/>
      <point x="579.0" y="711.0" type="curve"/>
      <point x="574.0" y="821.0" type="line"/>
      <point x="229.0" y="814.0"/>
      <point x="138.0" y="658.0"/>
      <point x="138.0" y="510.0" type="curve" smooth="yes"/>
      <point x="138.0" y="330.0"/>
      <point x="256.0" y="212.0"/>
    </contour>
    <contour>
      <point x="339.0" y="728.0" type="curve"/>
      <point x="424.0" y="780.0" type="line"/>
      <point x="258.0" y="835.0"/>
      <point x="216.0" y="912.0"/>
      <point x="217.0" y="998.0" type="curve" smooth="yes"/>
      <point x="217.0" y="1126.0"/>
      <point x="318.0" y="1159.0"/>
      <point x="426.0" y="1159.0" type="curve" smooth="yes"/>
      <point x="466.0" y="1160.0"/>
      <point x="518.0" y="1156.0"/>
      <point x="569.0" y="1146.0" type="curve"/>
      <point x="586.0" y="1248.0" type="line"/>
      <point x="540.0" y="1261.0"/>
      <point x="477.0" y="1268.0"/>
      <point x="421.0" y="1267.0" type="curve" smooth="yes"/>
      <point x="259.0" y="1267.0"/>
      <point x="84.0" y="1201.0"/>
      <point x="84.0" y="1009.0" type="curve" smooth="yes"/>
      <point x="84.0" y="891.0"/>
      <point x="154.0" y="791.0"/>
    </contour>
    <contour>
      <point x="901.0" y="0.0" type="line"/>
      <point x="1028.0" y="0.0" type="line"/>
      <point x="1028.0" y="1198.0" type="line"/>
      <point x="901.0" y="1198.0" type="line"/>
    </contour>
    <contour>
      <point x="753.0" y="1143.0" type="line"/>
      <point x="1255.0" y="1143.0" type="line"/>
      <point x="1255.0" y="1247.0" type="line"/>
      <point x="753.0" y="1247.0" type="line"/>
    </contour>
  </outline>
</glyph>
<glyph name="na-deva" format="2">
  <advance width="1040.0"/>
  <unicode hex="0928"/>
  <anchor x="763.0" y="0.0" name="bottom"/>
  <anchor x="699.0" y="1247.0" name="candra"/>
  <anchor x="216.0" y="194.0" name="nukta"/>
  <anchor x="763.0" y="1247.0" name="top"/>
  <outline>
    <contour>
      <point x="700.0" y="0.0" type="line"/>
      <point x="826.0" y="0.0" type="line"/>
      <point x="826.0" y="1191.0" type="line"/>
      <point x="700.0" y="1191.0" type="line"/>
    </contour>
    <contour>
      <point x="186.0" y="437.0" type="line"/>
      <point x="282.0" y="437.0"/>
      <point x="300.0" y="499.0"/>
      <point x="300.0" y="575.0" type="curve" smooth="yes"/>
      <point x="300.0" y="750.0" type="line"/>
      <point x="50.0" y="750.0" type="line"/>
      <point x="50.0" y="638.0" type="line"/>
    </contour>
    <contour>
      <point x="186.0" y="639.0" type="line"/>
      <point x="748.0" y="639.0" type="line"/>
      <point x="748.0" y="751.0" type="line"/>
      <point x="186.0" y="750.0" type="line"/>
    </contour>
    <contour>
      <point x="-12.0" y="1143.0" type="line"/>
      <point x="1053.0" y="1143.0" type="line"/>
      <point x="1053.0" y="1247.0" type="line"/>
      <point x="-12.0" y="1247.0" type="line"/>
    </contour>
  </outline>
</glyph>
<glyph name="bha-deva" format="2">
  <advance width="1215.0"/>
  <unicode hex="092D"/>
  <anchor x="939.0" y="0.0" name="bottom"/>
  <anchor x="836.0" y="1247.0" name="candra"/>
  <anchor x="385.0" y="44.0" name="nukta"/>
  <anchor x="939.0" y="1247.0" name="top"/>
  <outline>
    <contour>
      <point x="304.0" y="551.0" type="line"/>
      <point x="430.0" y="551.0" type="line"/>
      <point x="430.0" y="1037.0" type="line" smooth="yes"/>
      <point x="430.0" y="1144.0"/>
      <point x="412.0" y="1269.0"/>
      <point x="218.0" y="1269.0" type="curve" smooth="yes"/>
      <point x="167.0" y="1269.0"/>
      <point x="127.0" y="1258.0"/>
      <point x="90.0" y="1243.0" type="curve"/>
      <point x="118.0" y="1141.0" type="line"/>
      <point x="143.0" y="1148.0"/>
      <point x="170.0" y="1158.0"/>
      <point x="200.0" y="1158.0" type="curve" smooth="yes"/>
      <point x="271.0" y="1158.0"/>
      <point x="304.0" y="1132.0"/>
      <point x="304.0" y="1041.0" type="curve" smooth="yes"/>
    </contour>
    <contour>
      <point x="321.0" y="309.0" type="line"/>
      <point x="411.0" y="312.0"/>
      <point x="429.0" y="361.0"/>
      <point x="429.0" y="419.0" type="curve" smooth="yes"/>
      <point x="429.0" y="609.0" type="line"/>
      <point x="319.0" y="609.0" type="line"/>
      <point x="151.0" y="589.0" type="line"/>
      <point x="151.0" y="498.0" type="line"/>
    </contour>
    <contour>
      <point x="310.0" y="489.0" type="line"/>
      <point x="969.0" y="489.0" type="line"/>
      <point x="969.0" y="601.0" type="line"/>
      <point x="310.0" y="601.0" type="line"/>
    </contour>
    <contour>
      <point x="876.0" y="0.0" type="line"/>
      <point x="1002.0" y="0.0" type="line"/>
      <point x="1002.0" y="1196.0" type="line"/>
      <point x="876.0" y="1196.0" type="line"/>
    </contour>
    <contour>
      <point x="682.0" y="1143.0" type="line"/>
      <point x="1228.0" y="1143.0" type="line"/>
      <point x="1228.0" y="1247.0" type="line"/>
      <point x="682.0" y="1247.0" type="line"/>
    </contour>
  </outline>
</glyph>
<glyph name="ma-deva" format="2">
  <advance width="1173.0"/>
  <unicode hex="092E"/>
  <anchor x="896.0" y="0.0" name="bottom"/>
  <anchor x="747.0" y="1247.0" name="candra"/>
  <anchor x="344.0" y="44.0" name="nukta"/>
  <anchor x="896.0" y="1247.0" name="top"/>
  <outline>
    <contour>
      <point x="833.0" y="0.0" type="line"/>
      <point x="959.0" y="0.0" type="line"/>
      <point x="959.0" y="1177.0" type="line"/>
      <point x="833.0" y="1177.0" type="line"/>
    </contour>
    <contour>
      <point x="235.0" y="308.0" type="line"/>
      <point x="325.0" y="311.0"/>
      <point x="343.0" y="360.0"/>
      <point x="343.0" y="418.0" type="curve" smooth="yes"/>
      <point x="343.0" y="608.0" type="line"/>
      <point x="233.0" y="608.0" type="line"/>
      <point x="65.0" y="588.0" type="line"/>
      <point x="65.0" y="498.0" type="line"/>
    </contour>
    <contour>
      <point x="217.0" y="447.0" type="line"/>
      <point x="343.0" y="558.0" type="line"/>
      <point x="343.0" y="1164.0" type="line"/>
      <point x="217.0" y="1163.0" type="line"/>
    </contour>
    <contour>
      <point x="223.0" y="489.0" type="line"/>
      <point x="927.0" y="489.0" type="line"/>
      <point x="927.0" y="600.0" type="line"/>
      <point x="223.0" y="600.0" type="line"/>
    </contour>
    <contour>
      <point x="-12.0" y="1143.0" type="line"/>
      <point x="1186.0" y="1143.0" type="line"/>
      <point x="1186.0" y="1247.0" type="line"/>
      <point x="-12.0" y="1247.0" type="line"/>
    </contour>
  </outline>
</glyph>
<glyph name="ssa-deva" format="2">
  <advance width="1158.0"/>
  <unicode hex="0937"/>
  <anchor x="882.0" y="0.0" name="bottom"/>
  <anchor x="761.0" y="1247.0" name="candra"/>
  <anchor x="324.0" y="44.0" name="nukta"/>
  <anchor x="882.0" y="1247.0" name="top"/>
  <outline>
    <contour>
      <point x="503.0" y="297.0" type="curve" smooth="yes"/>
      <point x="623.0" y="297.0"/>
      <point x="770.0" y="355.0"/>
      <point x="860.0" y="470.0" type="curve"/>
      <point x="855.0" y="606.0" type="line"/>
      <point x="757.0" y="473.0"/>
      <point x="622.0" y="412.0"/>
      <point x="510.0" y="411.0" type="curve" smooth="yes"/>
      <point x="340.0" y="410.0"/>
      <point x="288.0" y="498.0"/>
      <point x="288.0" y="662.0" type="curve" smooth="yes"/>
      <point x="288.0" y="1172.0" type="line"/>
      <point x="165.0" y="1172.0" type="line"/>
      <point x="165.0" y="665.0" type="line" smooth="yes"/>
      <point x="165.0" y="421.0"/>
      <point x="276.0" y="297.0"/>
    </contour>
    <contour>
      <point x="843.0" y="476.0" type="line"/>
      <point x="913.0" y="545.0" type="line"/>
      <point x="272.0" y="1197.0" type="line"/>
      <point x="202.0" y="1128.0" type="line"/>
    </contour>
    <contour>
      <point x="818.0" y="0.0" type="line"/>
      <point x="944.0" y="0.0" type="line"/>
      <point x="944.0" y="1191.0" type="line"/>
      <point x="818.0" y="1191.0" type="line"/>
    </contour>
    <contour>
      <point x="-12.0" y="1143.0" type="line"/>
      <point x="1171.0" y="1143.0" type="line"/>
      <point x="1171.0" y="1247.0" type="line"/>
      <point x="-12.0" y="1247.0" type="line"/>
    </contour>
  </outline>
</glyph>
<glyph name="sa-deva" format="2">
  <advance width="1302.0"/>
  <unicode hex="0938"/>
  <anchor x="1025.0" y="0.0" name="bottom"/>
  <anchor x="925.0" y="1247.0" name="candra"/>
  <anchor x="123.0" y="131.0" name="nukta"/>
  <anchor x="1025.0" y="1247.0" name="top"/>
  <outline>
    <contour>
      <point x="487.0" y="-23.0" type="line"/>
      <point x="586.0" y="51.0" type="line"/>
      <point x="173.0" y="622.0" type="line"/>
      <point x="153.0" y="603.0" type="line"/>
      <point x="175.0" y="575.0"/>
      <point x="219.0" y="545.0"/>
      <point x="278.0" y="545.0" type="curve" smooth="yes"/>
      <point x="410.0" y="545.0"/>
      <point x="487.0" y="621.0"/>
      <point x="487.0" y="801.0" type="curve" smooth="yes"/>
      <point x="487.0" y="1191.0" type="line"/>
      <point x="361.0" y="1190.0" type="line"/>
      <point x="361.0" y="795.0" type="line" smooth="yes"/>
      <point x="361.0" y="694.0"/>
      <point x="334.0" y="644.0"/>
      <point x="246.0" y="644.0" type="curve" smooth="yes"/>
      <point x="198.0" y="644.0"/>
      <point x="160.0" y="666.0"/>
      <point x="123.0" y="695.0" type="curve"/>
      <point x="45.0" y="630.0" type="line"/>
    </contour>
    <contour>
      <point x="737.0" y="530.0" type="curve" smooth="yes"/>
      <point x="830.0" y="530.0"/>
      <point x="921.0" y="542.0"/>
      <point x="997.0" y="568.0" type="curve"/>
      <point x="997.0" y="688.0" type="line"/>
      <point x="922.0" y="658.0"/>
      <point x="827.0" y="642.0"/>
      <point x="732.0" y="642.0" type="curve" smooth="yes"/>
      <point x="619.0" y="642.0"/>
      <point x="506.0" y="660.0"/>
      <point x="428.0" y="690.0" type="curve"/>
      <point x="384.0" y="600.0" type="line"/>
      <point x="490.0" y="553.0"/>
      <point x="610.0" y="530.0"/>
    </contour>
    <contour>
      <point x="962.0" y="0.0" type="line"/>
      <point x="1088.0" y="0.0" type="line"/>
      <point x="1088.0" y="1172.0" type="line"/>
      <point x="962.0" y="1172.0" type="line"/>
    </contour>
    <contour>
      <point x="-12.0" y="1143.0" type="line"/>
      <point x="1315.0" y="1143.0" type="line"/>
      <point x="1315.0" y="1247.0" type="line"/>
      <point x="-12.0" y="1247.0" type="line"/>
    </contour>
  </outline>
</glyph>
<glyph name="ha-deva" format="2">
  <advance width="989.0"/>
  <unicode hex="0939"/>
  <anchor x="779.0" y="-172.0" name="bottom"/>
  <anchor x="670.0" y="1247.0" name="candra"/>
  <anchor x="127.0" y="-187.0" name="nukta"/>
  <anchor x="752.0" y="1247.0" name="top"/>
  <outline>
    <contour>
      <point x="777.0" y="-255.0" type="curve"/>
      <point x="805.0" y="-154.0" type="line"/>
      <point x="651.0" y="-115.0"/>
      <point x="228.0" y="-2.0"/>
      <point x="224.0" y="288.0" type="curve" smooth="yes"/>
      <point x="222.0" y="439.0"/>
      <point x="328.0" y="516.0"/>
      <point x="534.0" y="516.0" type="curve" smooth="yes"/>
      <point x="692.0" y="516.0"/>
      <point x="779.0" y="470.0"/>
      <point x="779.0" y="370.0" type="curve" smooth="yes"/>
      <point x="779.0" y="285.0"/>
      <point x="706.0" y="238.0"/>
      <point x="614.0" y="221.0" type="curve"/>
      <point x="646.0" y="121.0" type="line"/>
      <point x="789.0" y="137.0"/>
      <point x="892.0" y="235.0"/>
      <point x="892.0" y="368.0" type="curve" smooth="yes"/>
      <point x="892.0" y="548.0"/>
      <point x="750.0" y="629.0"/>
      <point x="535.0" y="629.0" type="curve" smooth="yes"/>
      <point x="341.0" y="629.0"/>
      <point x="98.0" y="564.0"/>
      <point x="98.0" y="300.0" type="curve" smooth="yes"/>
      <point x="98.0" y="97.0"/>
      <point x="274.0" y="-136.0"/>
    </contour>
    <contour>
      <point x="254.0" y="501.0" type="curve"/>
      <point x="339.0" y="531.0" type="line"/>
      <point x="287.0" y="616.0"/>
      <point x="248.0" y="698.0"/>
      <point x="251.0" y="770.0" type="curve" smooth="yes"/>
      <point x="254.0" y="834.0"/>
      <point x="303.0" y="860.0"/>
      <point x="400.0" y="860.0" type="curve" smooth="yes"/>
      <point x="816.0" y="860.0" type="line"/>
      <point x="816.0" y="1180.0" type="line"/>
      <point x="689.0" y="1180.0" type="line"/>
      <point x="689.0" y="971.0" type="line"/>
      <point x="374.0" y="971.0" type="line" smooth="yes"/>
      <point x="222.0" y="971.0"/>
      <point x="127.0" y="914.0"/>
      <point x="125.0" y="797.0" type="curve" smooth="yes"/>
      <point x="123.0" y="701.0"/>
      <point x="170.0" y="608.0"/>
    </contour>
    <contour>
      <point x="-12.0" y="1143.0" type="line"/>
      <point x="1002.0" y="1143.0" type="line"/>
      <point x="1002.0" y="1247.0" type="line"/>
      <point x="-12.0" y="1247.0" type="line"/>
    </contour>
  </outline>
</glyph>
<glyph name="ooeMatra-deva" format="2">
  <advance width="554.0"/>
  <unicode hex="093B"/>
  <anchor x="277.0" y="0.0" name="bottom"/>
  <anchor x="175.0" y="1247.0" name="candra"/>
  <anchor x="278.0" y="1247.0" name="top"/>
  <outline>
    <contour>
      <point x="214.0" y="1113.0" type="line"/>
      <point x="339.0" y="1113.0" type="line"/>
      <point x="339.0" y="1458.0" type="line"/>
      <point x="214.0" y="1458.0" type="line"/>
    </contour>
    <component base="aaMatra-deva"/>
  </outline>
</glyph>
<glyph name="iMatra-deva" format="2">
  <advance width="553.0"/>
  <unicode hex="093F"/>
  <anchor x="1344.0" y="1408.0" name="candra"/>
  <anchor x="1334.0" y="1408.0" name="imatra"/>
  <anchor x="1329.0" y="1407.0" name="top"/>
  <outline>
    <contour>
      <point x="258.0" y="1194.0" type="curve"/>
      <point x="366.0" y="1196.0" type="line"/>
      <point x="259.0" y="1328.0"/>
      <point x="233.0" y="1398.0"/>
      <point x="233.0" y="1467.0" type="curve" smooth="yes"/>
      <point x="233.0" y="1588.0"/>
      <point x="308.0" y="1652.0"/>
      <point x="500.0" y="1652.0" type="curve" smooth="yes"/>
      <point x="736.0" y="1652.0"/>
      <point x="1024.0" y="1545.0"/>
      <point x="1317.0" y="1334.0" type="curve"/>
      <point x="1364.0" y="1408.0" type="line"/>
      <point x="1070.0" y="1640.0"/>
      <point x="741.0" y="1765.0"/>
      <point x="487.0" y="1765.0" type="curve" smooth="yes"/>
      <point x="244.0" y="1765.0"/>
      <point x="106.0" y="1679.0"/>
      <point x="106.0" y="1492.0" type="curve" smooth="yes"/>
      <point x="106.0" y="1396.0"/>
      <point x="143.0" y="1302.0"/>
    </contour>
    <contour>
      <point x="214.0" y="0.0" type="line"/>
      <point x="340.0" y="0.0" type="line"/>
      <point x="340.0" y="1189.0" type="line"/>
      <point x="214.0" y="1189.0" type="line"/>
    </contour>
    <contour>
      <point x="-12.0" y="1143.0" type="line"/>
      <point x="570.0" y="1143.0" type="line"/>
      <point x="570.0" y="1247.0" type="line"/>
      <point x="-12.0" y="1247.0" type="line"/>
    </contour>
  </outline>
</glyph>
<glyph name="aiMatra-deva" format="2">
  <unicode hex="0948"/>
  <anchor x="274.0" y="1247.0" name="_top"/>
  <anchor x="449.0" y="1445.0" name="candra"/>
  <anchor x="335.0" y="1247.0" name="top"/>
  <outline>
    <contour>
      <point x="234.0" y="1203.0" type="curve"/>
      <point x="298.0" y="1226.0" type="line"/>
      <point x="194.0" y="1688.0"/>
      <point x="51.0" y="1799.0"/>
      <point x="-238.0" y="1799.0" type="curve" smooth="yes"/>
      <point x="-306.0" y="1799.0"/>
      <point x="-353.0" y="1791.0"/>
      <point x="-404.0" y="1782.0" type="curve"/>
      <point x="-383.0" y="1681.0" type="line"/>
      <point x="-330.0" y="1691.0"/>
      <point x="-284.0" y="1697.0"/>
      <point x="-229.0" y="1697.0" type="curve" smooth="yes"/>
      <point x="-40.0" y="1697.0"/>
      <point x="84.0" y="1646.0"/>
      <point x="201.0" y="1321.0" type="curve"/>
      <point x="229.0" y="1325.0" type="line"/>
      <point x="83.0" y="1494.0"/>
      <point x="25.0" y="1545.0"/>
      <point x="-157.0" y="1547.0" type="curve" smooth="yes"/>
      <point x="-236.0" y="1548.0"/>
      <point x="-296.0" y="1539.0"/>
      <point x="-355.0" y="1528.0" type="curve"/>
      <point x="-333.0" y="1434.0" type="line"/>
      <point x="-268.0" y="1445.0"/>
      <point x="-209.0" y="1451.0"/>
      <point x="-145.0" y="1451.0" type="curve" smooth="yes"/>
      <point x="38.0" y="1451.0"/>
      <point x="111.0" y="1370.0"/>
    </contour>
  </outline>
</glyph>
<glyph name="halant-deva" format="2">
  <unicode hex="094D"/>
  <anchor x="135.0" y="0.0" name="_bottom"/>
  <anchor x="171.0" y="-310.0" name="bottom"/>
  <anchor x="148.0" y="-361.0" name="nukta"/>
  <outline>
    <contour>
      <point x="543.0" y="-446.0" type="curve"/>
      <point x="605.0" y="-386.0" type="line"/>
      <point x="353.0" y="-125.0"/>
      <point x="250.0" y="-79.0"/>
      <point x="88.0" y="-79.0" type="curve" smooth="yes"/>
      <point x="32.0" y="-79.0"/>
      <point x="-9.0" y="-84.0"/>
      <point x="-69.0" y="-95.0" type="curve"/>
      <point x="-49.0" y="-210.0" type="line"/>
      <point x="12.0" y="-200.0"/>
      <point x="51.0" y="-198.0"/>
      <point x="105.0" y="-198.0" type="curve" smooth="yes"/>
      <point x="236.0" y="-198.0"/>
      <point x="310.0" y="-220.0"/>
    </contour>
  </outline>
</glyph>
<glyph name="prishthaMatraE-deva" format="2">
  <advance width="569.0"/>
  <unicode hex="094E"/>
  <anchor x="285.0" y="28.0" name="bottom"/>
  <anchor x="285.0" y="1247.0" name="top"/>
  <outline>
    <contour>
      <point x="221.0" y="0.0" type="line"/>
      <point x="348.0" y="0.0" type="line"/>
      <point x="348.0" y="1193.0" type="line"/>
      <point x="221.0" y="1193.0" type="line"/>
    </contour>
    <contour>
      <point x="221.0" y="1143.0" type="line"/>
      <point x="581.0" y="1143.0" type="line"/>
      <point x="581.0" y="1247.0" type="line"/>
      <point x="221.0" y="1247.0" type="line"/>
    </contour>
  </outline>
</glyph>
<glyph name="awMatra-deva" format="2">
  <advance width="554.0"/>
  <unicode hex="094F"/>
  <anchor x="277.0" y="0.0" name="bottom"/>
  <anchor x="175.0" y="1247.0" name="candra"/>
  <anchor x="278.0" y="1247.0" name="top"/>
  <outline>
    <contour>
      <point x="310.0" y="1193.0" type="line"/>
      <point x="348.0" y="1265.0"/>
      <point x="363.0" y="1326.0"/>
      <point x="363.0" y="1375.0" type="curve" smooth="yes"/>
      <point x="363.0" y="1503.0"/>
      <point x="269.0" y="1571.0"/>
      <point x="88.0" y="1604.0" type="curve" smooth="yes"/>
      <point x="-70.0" y="1632.0" type="line" smooth="yes"/>
      <point x="-220.0" y="1660.0"/>
      <point x="-260.0" y="1697.0"/>
      <point x="-261.0" y="1749.0" type="curve" smooth="yes"/>
      <point x="-261.0" y="1759.0"/>
      <point x="-261.0" y="1769.0"/>
      <point x="-259.0" y="1780.0" type="curve"/>
      <point x="-319.0" y="1792.0" type="line"/>
      <point x="-338.0" y="1766.0"/>
      <point x="-347.0" y="1738.0"/>
      <point x="-347.0" y="1711.0" type="curve" smooth="yes"/>
      <point x="-347.0" y="1637.0"/>
      <point x="-284.0" y="1570.0"/>
      <point x="-164.0" y="1547.0" type="curve" smooth="yes"/>
      <point x="53.0" y="1506.0" type="line" smooth="yes"/>
      <point x="209.0" y="1475.0"/>
      <point x="275.0" y="1436.0"/>
      <point x="275.0" y="1337.0" type="curve" smooth="yes"/>
      <point x="275.0" y="1312.0"/>
      <point x="272.0" y="1271.0"/>
      <point x="254.0" y="1216.0" type="curve"/>
    </contour>
    <contour>
      <point x="268.0" y="1085.0" type="line"/>
      <point x="279.0" y="1131.0"/>
      <point x="287.0" y="1173.0"/>
      <point x="287.0" y="1210.0" type="curve" smooth="yes"/>
      <point x="287.0" y="1347.0"/>
      <point x="207.0" y="1388.0"/>
      <point x="24.0" y="1416.0" type="curve" smooth="yes"/>
      <point x="-195.0" y="1450.0" type="line" smooth="yes"/>
      <point x="-347.0" y="1472.0"/>
      <point x="-386.0" y="1534.0"/>
      <point x="-387.0" y="1602.0" type="curve" smooth="yes"/>
      <point x="-387.0" y="1615.0"/>
      <point x="-386.0" y="1628.0"/>
      <point x="-383.0" y="1641.0" type="curve"/>
      <point x="-451.0" y="1655.0" type="line"/>
      <point x="-465.0" y="1624.0"/>
      <point x="-471.0" y="1593.0"/>
      <point x="-471.0" y="1563.0" type="curve" smooth="yes"/>
      <point x="-471.0" y="1463.0"/>
      <point x="-399.0" y="1375.0"/>
      <point x="-239.0" y="1353.0" type="curve" smooth="yes"/>
      <point x="18.0" y="1318.0" type="line" smooth="yes"/>
      <point x="182.0" y="1293.0"/>
      <point x="220.0" y="1277.0"/>
      <point x="220.0" y="1171.0" type="curve" smooth="yes"/>
      <point x="220.0" y="1151.0"/>
      <point x="219.0" y="1126.0"/>
      <point x="217.0" y="1100.0" type="curve"/>
    </contour>
    <component base="aaMatra-deva"/>
  </outline>
</glyph>
<glyph name="grave-deva" format="2">
  <unicode hex="0953"/>
  <outline>
    <contour>
      <point x="-315.0" y="1320.0" type="line"/>
      <point x="-252.0" y="1388.0" type="line"/>
      <point x="-633.0" y="1765.0" type="line"/>
      <point x="-715.0" y="1692.0" type="line"/>
    </contour>
  </outline>
</glyph>
<glyph name="acute-deva" format="2">
  <unicode hex="0954"/>
  <outline>
    <contour>
      <point x="-265.0" y="1320.0" type="line"/>
      <point x="135.0" y="1692.0" type="line"/>
      <point x="54.0" y="1765.0" type="line"/>
      <point x="-327.0" y="1388.0" type="line"/>
    </contour>
  </outline>
</glyph>
<glyph name="ueMatra-deva" format="2">
  <unicode hex="0956"/>
  <anchor x="408.0" y="130.0" name="_bottom"/>
  <outline>
    <contour>
      <point x="273.0" y="-173.0" type="curve" smooth="yes"/>
      <point x="408.0" y="-173.0"/>
      <point x="512.0" y="-103.0"/>
      <point x="573.0" y="21.0" type="curve"/>
      <point x="496.0" y="68.0" type="line"/>
      <point x="454.0" y="2.0"/>
      <point x="386.0" y="-62.0"/>
      <point x="268.0" y="-62.0" type="curve" smooth="yes"/>
      <point x="146.0" y="-62.0"/>
      <point x="81.0" y="-6.0"/>
      <point x="36.0" y="66.0" type="curve"/>
      <point x="-30.0" y="18.0" type="line"/>
      <point x="17.0" y="-79.0"/>
      <point x="115.0" y="-173.0"/>
    </contour>
  </outline>
</glyph>
<glyph name="uueMatra-deva" format="2">
  <unicode hex="0957"/>
  <anchor x="408.0" y="130.0" name="_bottom"/>
  <outline>
    <contour>
      <point x="274.0" y="-173.0" type="curve" smooth="yes"/>
      <point x="409.0" y="-173.0"/>
      <point x="513.0" y="-103.0"/>
      <point x="574.0" y="21.0" type="curve"/>
      <point x="497.0" y="68.0" type="line"/>
      <point x="455.0" y="2.0"/>
      <point x="387.0" y="-62.0"/>
      <point x="269.0" y="-62.0" type="curve" smooth="yes"/>
      <point x="147.0" y="-62.0"/>
      <point x="82.0" y="-6.0"/>
      <point x="38.0" y="66.0" type="curve"/>
      <point x="-29.0" y="18.0" type="line"/>
      <point x="18.0" y="-79.0"/>
      <point x="116.0" y="-173.0"/>
    </contour>
    <contour>
      <point x="279.0" y="-433.0" type="curve" smooth="yes"/>
      <point x="414.0" y="-433.0"/>
      <point x="518.0" y="-363.0"/>
      <point x="579.0" y="-239.0" type="curve"/>
      <point x="502.0" y="-192.0" type="line"/>
      <point x="460.0" y="-258.0"/>
      <point x="392.0" y="-322.0"/>
      <point x="274.0" y="-322.0" type="curve" smooth="yes"/>
      <point x="151.0" y="-322.0"/>
      <point x="87.0" y="-266.0"/>
      <point x="42.0" y="-194.0" type="curve"/>
      <point x="-24.0" y="-242.0" type="line"/>
      <point x="23.0" y="-339.0"/>
      <point x="121.0" y="-433.0"/>
    </contour>
  </outline>
</glyph>
<glyph name="rrVocalic-deva" format="2">
  <advance width="1504.0"/>
  <unicode hex="0960"/>
  <anchor x="751.0" y="0.0" name="bottom"/>
  <anchor x="749.0" y="1248.0" name="candra"/>
  <anchor x="751.0" y="1168.0" name="top"/>
  <outline>
    <contour>
      <point x="253.0" y="167.0" type="line"/>
      <point x="753.0" y="538.0" type="line"/>
      <point x="761.0" y="600.0" type="line"/>
      <point x="564.0" y="867.0"/>
      <point x="465.0" y="923.0"/>
      <point x="335.0" y="928.0" type="curve" smooth="yes"/>
      <point x="235.0" y="933.0"/>
      <point x="161.0" y="896.0"/>
      <point x="97.0" y="858.0" type="curve"/>
      <point x="145.0" y="755.0" type="line"/>
      <point x="210.0" y="789.0"/>
      <point x="282.0" y="816.0"/>
      <point x="349.0" y="813.0" type="curve" smooth="yes"/>
      <point x="461.0" y="807.0"/>
      <point x="547.0" y="718.0"/>
      <point x="682.0" y="556.0" type="curve"/>
      <point x="690.0" y="615.0" type="line"/>
      <point x="182.0" y="264.0" type="line"/>
    </contour>
    <contour>
      <point x="1310.0" y="-308.0" type="curve" smooth="yes"/>
      <point x="1416.0" y="-307.0"/>
      <point x="1525.0" y="-268.0"/>
      <point x="1600.0" y="-210.0" type="curve"/>
      <point x="1551.0" y="-120.0" type="line"/>
      <point x="1484.0" y="-172.0"/>
      <point x="1389.0" y="-205.0"/>
      <point x="1312.0" y="-205.0" type="curve" smooth="yes"/>
      <point x="1220.0" y="-206.0"/>
      <point x="1153.0" y="-161.0"/>
      <point x="1153.0" y="-79.0" type="curve" smooth="yes"/>
      <point x="1153.0" y="9.0"/>
      <point x="1221.0" y="56.0"/>
      <point x="1393.0" y="74.0" type="curve"/>
      <point x="1382.0" y="168.0" type="line"/>
      <point x="1102.0" y="149.0"/>
      <point x="1034.0" y="31.0"/>
      <point x="1034.0" y="-74.0" type="curve" smooth="yes"/>
      <point x="1034.0" y="-208.0"/>
      <point x="1131.0" y="-309.0"/>
    </contour>
    <contour>
      <point x="689.0" y="-1.0" type="line"/>
      <point x="815.0" y="-1.0" type="line"/>
      <point x="815.0" y="1160.0" type="line"/>
      <point x="689.0" y="1160.0" type="line"/>
    </contour>
    <contour>
      <point x="1246.0" y="87.0" type="curve"/>
      <point x="1297.0" y="140.0" type="line"/>
      <point x="1139.0" y="162.0"/>
      <point x="1085.0" y="224.0"/>
      <point x="1085.0" y="301.0" type="curve" smooth="yes"/>
      <point x="1085.0" y="390.0"/>
      <point x="1174.0" y="441.0"/>
      <point x="1318.0" y="445.0" type="curve"/>
      <point x="1344.0" y="528.0" type="line"/>
      <point x="1167.0" y="808.0" type="line"/>
      <point x="1079.0" y="763.0" type="line"/>
      <point x="1246.0" y="497.0" type="line"/>
      <point x="1256.0" y="539.0" type="line"/>
      <point x="1123.0" y="532.0"/>
      <point x="959.0" y="464.0"/>
      <point x="960.0" y="314.0" type="curve" smooth="yes"/>
      <point x="961.0" y="224.0"/>
      <point x="997.0" y="111.0"/>
    </contour>
    <contour>
      <point x="794.0" y="563.0" type="line"/>
      <point x="945.0" y="566.0"/>
      <point x="1058.0" y="620.0"/>
      <point x="1175.0" y="706.0" type="curve" smooth="yes"/>
      <point x="1236.0" y="753.0"/>
      <point x="1249.0" y="802.0"/>
      <point x="1249.0" y="837.0" type="curve" smooth="yes"/>
      <point x="1249.0" y="910.0"/>
      <point x="1177.0" y="949.0"/>
      <point x="1067.0" y="968.0" type="curve"/>
      <point x="985.0" y="906.0" type="line"/>
      <point x="1089.0" y="739.0" type="line"/>
      <point x="1102.0" y="798.0" type="line"/>
      <point x="996.0" y="700.0"/>
      <point x="878.0" y="661.0"/>
      <point x="749.0" y="670.0" type="curve"/>
    </contour>
    <contour>
      <point x="-12.0" y="1143.0" type="line"/>
      <point x="1517.0" y="1143.0" type="line"/>
      <point x="1517.0" y="1247.0" type="line"/>
      <point x="-12.0" y="1247.0" type="line"/>
    </contour>
  </outline>
</glyph>
<glyph name="llVocalic-deva" format="2">
  <advance width="1307.0"/>
  <unicode hex="0961"/>
  <anchor x="675.0" y="29.0" name="bottom"/>
  <anchor x="689.0" y="1247.0" name="candra"/>
  <anchor x="983.0" y="1247.0" name="top"/>
  <outline>
    <contour>
      <point x="1318.0" y="1247.0" type="line"/>
      <point x="-12.0" y="1247.0" type="line"/>
      <point x="-12.0" y="1143.0" type="line"/>
      <point x="1318.0" y="1143.0" type="line"/>
    </contour>
    <contour>
      <point x="1047.0" y="1191.0" type="line"/>
      <point x="920.0" y="1191.0" type="line"/>
      <point x="920.0" y="868.0" type="line"/>
      <point x="1047.0" y="868.0" type="line"/>
    </contour>
    <contour>
      <point x="362.0" y="920.0" type="curve" smooth="yes"/>
      <point x="184.0" y="920.0"/>
      <point x="74.0" y="809.0"/>
      <point x="74.0" y="608.0" type="curve" smooth="yes"/>
      <point x="74.0" y="352.0"/>
      <point x="235.0" y="131.0"/>
      <point x="316.0" y="31.0" type="curve"/>
      <point x="412.0" y="107.0" type="line"/>
      <point x="315.0" y="231.0"/>
      <point x="200.0" y="406.0"/>
      <point x="200.0" y="592.0" type="curve" smooth="yes"/>
      <point x="200.0" y="745.0"/>
      <point x="286.0" y="801.0"/>
      <point x="385.0" y="801.0" type="curve" smooth="yes"/>
      <point x="506.0" y="801.0"/>
      <point x="579.0" y="721.0"/>
      <point x="636.0" y="591.0" type="curve"/>
      <point x="674.0" y="687.0" type="line"/>
      <point x="599.0" y="857.0"/>
      <point x="498.0" y="920.0"/>
    </contour>
    <contour>
      <point x="920.0" y="917.0" type="curve" smooth="yes"/>
      <point x="757.0" y="917.0"/>
      <point x="605.0" y="799.0"/>
      <point x="605.0" y="580.0" type="curve" smooth="yes"/>
      <point x="605.0" y="549.0"/>
      <point x="608.0" y="515.0"/>
      <point x="617.0" y="480.0" type="curve"/>
      <point x="734.0" y="496.0" type="line"/>
      <point x="731.0" y="519.0"/>
      <point x="729.0" y="540.0"/>
      <point x="729.0" y="562.0" type="curve" smooth="yes"/>
      <point x="729.0" y="713.0"/>
      <point x="811.0" y="799.0"/>
      <point x="925.0" y="799.0" type="curve" smooth="yes"/>
      <point x="1047.0" y="799.0"/>
      <point x="1111.0" y="714.0"/>
      <point x="1111.0" y="560.0" type="curve" smooth="yes"/>
      <point x="1111.0" y="535.0"/>
      <point x="1110.0" y="513.0"/>
      <point x="1107.0" y="488.0" type="curve"/>
      <point x="1140.0" y="521.0" type="line"/>
      <point x="984.0" y="518.0"/>
      <point x="819.0" y="448.0"/>
      <point x="821.0" y="297.0" type="curve" smooth="yes"/>
      <point x="821.0" y="207.0"/>
      <point x="872.0" y="93.0"/>
      <point x="1121.0" y="70.0" type="curve"/>
      <point x="1168.0" y="122.0" type="line"/>
      <point x="1011.0" y="145.0"/>
      <point x="945.0" y="206.0"/>
      <point x="945.0" y="284.0" type="curve" smooth="yes"/>
      <point x="945.0" y="376.0"/>
      <point x="1030.0" y="423.0"/>
      <point x="1217.0" y="428.0" type="curve"/>
      <point x="1226.0" y="479.0"/>
      <point x="1230.0" y="533.0"/>
      <point x="1230.0" y="565.0" type="curve" smooth="yes"/>
      <point x="1230.0" y="789.0"/>
      <point x="1123.0" y="917.0"/>
    </contour>
    <contour>
      <point x="1242.0" y="158.0" type="line"/>
      <point x="962.0" y="139.0"/>
      <point x="894.0" y="21.0"/>
      <point x="894.0" y="-79.0" type="curve" smooth="yes"/>
      <point x="894.0" y="-211.0"/>
      <point x="991.0" y="-312.0"/>
      <point x="1163.0" y="-311.0" type="curve" smooth="yes"/>
      <point x="1276.0" y="-310.0"/>
      <point x="1385.0" y="-271.0"/>
      <point x="1460.0" y="-213.0" type="curve"/>
      <point x="1411.0" y="-123.0" type="line"/>
      <point x="1344.0" y="-175.0"/>
      <point x="1249.0" y="-208.0"/>
      <point x="1165.0" y="-208.0" type="curve" smooth="yes"/>
      <point x="1061.0" y="-209.0"/>
      <point x="1013.0" y="-164.0"/>
      <point x="1013.0" y="-83.0" type="curve" smooth="yes"/>
      <point x="1013.0" y="-1.0"/>
      <point x="1081.0" y="46.0"/>
      <point x="1253.0" y="64.0" type="curve"/>
    </contour>
  </outline>
</glyph>
<glyph name="danda-deva" format="2">
  <advance width="600.0"/>
  <unicode hex="0964"/>
  <outline>
    <contour>
      <point x="255.0" y="0.0" type="line"/>
      <point x="381.0" y="0.0" type="line"/>
      <point x="381.0" y="1247.0" type="line"/>
      <point x="255.0" y="1247.0" type="line"/>
    </contour>
  </outline>
</glyph>
<glyph name="dbldanda-deva" format="2">
  <advance width="685.0"/>
  <unicode hex="0965"/>
  <outline>
    <contour>
      <point x="383.0" y="0.0" type="line"/>
      <point x="509.0" y="0.0" type="line"/>
      <point x="509.0" y="1247.0" type="line"/>
      <point x="383.0" y="1247.0" type="line"/>
    </contour>
    <contour>
      <point x="123.0" y="0.0" type="line"/>
      <point x="249.0" y="0.0" type="line"/>
      <point x="249.0" y="1247.0" type="line"/>
      <point x="123.0" y="1247.0" type="line"/>
    </contour>
  </outline>
</glyph>
<glyph name="one-deva" format="2">
  <advance width="767.0"/>
  <unicode hex="0967"/>
  <outline>
    <contour>
      <point x="570.0" y="-172.0" type="line"/>
      <point x="679.0" y="-91.0" type="line"/>
      <point x="210.0" y="478.0" type="line"/>
      <point x="241.0" y="394.0" type="line"/>
      <point x="494.0" y="541.0"/>
      <point x="693.0" y="716.0"/>
      <point x="697.0" y="964.0" type="curve" smooth="yes"/>
      <point x="701.0" y="1173.0"/>
      <point x="565.0" y="1269.0"/>
      <point x="385.0" y="1269.0" type="curve" smooth="yes"/>
      <point x="202.0" y="1269.0"/>
      <point x="89.0" y="1170.0"/>
      <point x="89.0" y="1014.0" type="curve" smooth="yes"/>
      <point x="89.0" y="805.0"/>
      <point x="296.0" y="687.0"/>
      <point x="489.0" y="666.0" type="curve"/>
      <point x="536.0" y="737.0" type="line"/>
      <point x="343.0" y="778.0"/>
      <point x="209.0" y="861.0"/>
      <point x="212.0" y="1006.0" type="curve" smooth="yes"/>
      <point x="215.0" y="1094.0"/>
      <point x="268.0" y="1159.0"/>
      <point x="392.0" y="1159.0" type="curve" smooth="yes"/>
      <point x="512.0" y="1159.0"/>
      <point x="575.0" y="1098.0"/>
      <point x="575.0" y="974.0" type="curve" smooth="yes"/>
      <point x="575.0" y="778.0"/>
      <point x="411.0" y="615.0"/>
      <point x="144.0" y="471.0" type="curve"/>
      <point x="140.0" y="396.0" type="line"/>
    </contour>
  </outline>
</glyph>
<glyph name="three-deva" format="2">
  <advance width="888.0"/>
  <unicode hex="0969"/>
  <outline>
    <contour>
      <point x="471.0" y="-156.0" type="line"/>
      <point x="562.0" y="-79.0" type="line"/>
      <point x="330.0" y="165.0" type="line"/>
      <point x="332.0" y="135.0" type="line"/>
      <point x="356.0" y="133.0"/>
      <point x="366.0" y="132.0"/>
      <point x="403.0" y="134.0" type="curve" smooth="yes"/>
      <point x="601.0" y="141.0"/>
      <point x="785.0" y="243.0"/>
      <point x="785.0" y="448.0" type="curve" smooth="yes"/>
      <point x="785.0" y="588.0"/>
      <point x="717.0" y="694.0"/>
      <point x="563.0" y="747.0" type="curve"/>
      <point x="569.0" y="717.0" type="line"/>
      <point x="670.0" y="773.0"/>
      <point x="724.0" y="865.0"/>
      <point x="724.0" y="981.0" type="curve" smooth="yes"/>
      <point x="724.0" y="1165.0"/>
      <point x="597.0" y="1269.0"/>
      <point x="396.0" y="1269.0" type="curve" smooth="yes"/>
      <point x="307.0" y="1269.0"/>
      <point x="199.0" y="1250.0"/>
      <point x="107.0" y="1210.0" type="curve"/>
      <point x="148.0" y="1106.0" type="line"/>
      <point x="224.0" y="1138.0"/>
      <point x="299.0" y="1157.0"/>
      <point x="385.0" y="1157.0" type="curve" smooth="yes"/>
      <point x="521.0" y="1157.0"/>
      <point x="600.0" y="1101.0"/>
      <point x="600.0" y="983.0" type="curve" smooth="yes"/>
      <point x="600.0" y="869.0"/>
      <point x="527.0" y="769.0"/>
      <point x="256.0" y="766.0" type="curve"/>
      <point x="263.0" y="662.0" type="line"/>
      <point x="278.0" y="661.0"/>
      <point x="285.0" y="660.0"/>
      <point x="310.0" y="660.0" type="curve" smooth="yes"/>
      <point x="394.0" y="660.0"/>
      <point x="466.0" y="673.0"/>
      <point x="526.0" y="696.0" type="curve"/>
      <point x="468.0" y="703.0" type="line"/>
      <point x="594.0" y="650.0"/>
      <point x="658.0" y="577.0"/>
      <point x="658.0" y="460.0" type="curve" smooth="yes"/>
      <point x="658.0" y="312.0"/>
      <point x="523.0" y="240.0"/>
      <point x="361.0" y="240.0" type="curve" smooth="yes"/>
      <point x="321.0" y="240.0"/>
      <point x="289.0" y="244.0"/>
      <point x="262.0" y="249.0" type="curve"/>
      <point x="315.0" y="210.0" type="line"/>
      <point x="172.0" y="386.0" type="line"/>
      <point x="92.0" y="386.0" type="line"/>
      <point x="61.0" y="335.0"/>
      <point x="50.0" y="295.0"/>
      <point x="51.0" y="264.0" type="curve" smooth="yes"/>
      <point x="52.0" y="188.0"/>
      <point x="121.0" y="147.0"/>
      <point x="253.0" y="135.0" type="curve"/>
    </contour>
  </outline>
</glyph>
<glyph name="four-deva" format="2">
  <advance width="959.0"/>
  <unicode hex="096A"/>
  <outline>
    <contour>
      <point x="479.0" y="119.0" type="curve" smooth="yes"/>
      <point x="692.0" y="119.0"/>
      <point x="784.0" y="255.0"/>
      <point x="786.0" y="423.0" type="curve" smooth="yes"/>
      <point x="789.0" y="794.0"/>
      <point x="310.0" y="1096.0"/>
      <point x="52.0" y="1197.0" type="curve"/>
      <point x="3.0" y="1102.0" type="line"/>
      <point x="241.0" y="1005.0"/>
      <point x="667.0" y="739.0"/>
      <point x="667.0" y="430.0" type="curve" smooth="yes"/>
      <point x="667.0" y="316.0"/>
      <point x="619.0" y="228.0"/>
      <point x="479.0" y="231.0" type="curve" smooth="yes"/>
      <point x="366.0" y="232.0"/>
      <point x="295.0" y="287.0"/>
      <point x="295.0" y="439.0" type="curve" smooth="yes"/>
      <point x="295.0" y="745.0"/>
      <point x="639.0" y="919.0"/>
      <point x="901.0" y="996.0" type="curve"/>
      <point x="857.0" y="1101.0" type="line"/>
      <point x="653.0" y="1042.0"/>
      <point x="172.0" y="829.0"/>
      <point x="172.0" y="437.0" type="curve" smooth="yes"/>
      <point x="172.0" y="224.0"/>
      <point x="297.0" y="119.0"/>
    </contour>
  </outline>
</glyph>
<glyph name="five-deva" format="2">
  <advance width="1024.0"/>
  <unicode hex="096B"/>
  <outline>
    <contour>
      <point x="465.0" y="210.0" type="curve" smooth="yes"/>
      <point x="678.0" y="210.0"/>
      <point x="874.0" y="345.0"/>
      <point x="871.0" y="497.0" type="curve" smooth="yes"/>
      <point x="869.0" y="585.0"/>
      <point x="775.0" y="634.0"/>
      <point x="691.0" y="650.0" type="curve"/>
      <point x="595.0" y="587.0" type="line"/>
      <point x="739.0" y="388.0" type="line"/>
      <point x="764.0" y="462.0" type="line"/>
      <point x="676.0" y="360.0"/>
      <point x="573.0" y="327.0"/>
      <point x="466.0" y="327.0" type="curve" smooth="yes"/>
      <point x="339.0" y="327.0"/>
      <point x="234.0" y="400.0"/>
      <point x="234.0" y="570.0" type="curve" smooth="yes"/>
      <point x="234.0" y="761.0"/>
      <point x="354.0" y="1002.0"/>
      <point x="518.0" y="1193.0" type="curve"/>
      <point x="414.0" y="1270.0" type="line"/>
      <point x="190.0" y="990.0"/>
      <point x="106.0" y="755.0"/>
      <point x="106.0" y="565.0" type="curve" smooth="yes"/>
      <point x="106.0" y="315.0"/>
      <point x="269.0" y="210.0"/>
    </contour>
    <contour>
      <point x="969.0" y="87.0" type="line"/>
      <point x="1070.0" y="170.0" type="line"/>
      <point x="811.0" y="439.0" type="line"/>
      <point x="747.0" y="375.0" type="line"/>
    </contour>
  </outline>
</glyph>
<glyph name="six-deva" format="2">
  <advance width="903.0"/>
  <unicode hex="096C"/>
  <outline>
    <contour>
      <point x="473.0" y="120.0" type="curve" smooth="yes"/>
      <point x="638.0" y="119.0"/>
      <point x="863.0" y="204.0"/>
      <point x="859.0" y="328.0" type="curve" smooth="yes"/>
      <point x="856.0" y="405.0"/>
      <point x="771.0" y="460.0"/>
      <point x="702.0" y="484.0" type="curve"/>
      <point x="605.0" y="428.0" type="line"/>
      <point x="722.0" y="238.0" type="line"/>
      <point x="742.0" y="316.0" type="line"/>
      <point x="686.0" y="283.0"/>
      <point x="619.0" y="231.0"/>
      <point x="477.0" y="231.0" type="curve" smooth="yes"/>
      <point x="316.0" y="231.0"/>
      <point x="236.0" y="306.0"/>
      <point x="236.0" y="447.0" type="curve" smooth="yes"/>
      <point x="236.0" y="581.0"/>
      <point x="309.0" y="673.0"/>
      <point x="517.0" y="673.0" type="curve" smooth="yes"/>
      <point x="550.0" y="673.0"/>
      <point x="576.0" y="671.0"/>
      <point x="611.0" y="667.0" type="curve"/>
      <point x="613.0" y="775.0" type="line"/>
      <point x="583.0" y="779.0"/>
      <point x="540.0" y="784.0"/>
      <point x="497.0" y="785.0" type="curve" smooth="yes"/>
      <point x="265.0" y="790.0"/>
      <point x="105.0" y="665.0"/>
      <point x="105.0" y="448.0" type="curve" smooth="yes"/>
      <point x="105.0" y="248.0"/>
      <point x="231.0" y="123.0"/>
    </contour>
    <contour>
      <point x="940.0" y="-53.0" type="line"/>
      <point x="1036.0" y="32.0" type="line"/>
      <point x="776.0" y="294.0" type="line"/>
      <point x="711.0" y="256.0" type="line"/>
    </contour>
    <contour>
      <point x="391.0" y="707.0" type="curve"/>
      <point x="459.0" y="761.0" type="line"/>
      <point x="447.0" y="765.0" type="line"/>
      <point x="310.0" y="824.0"/>
      <point x="258.0" y="903.0"/>
      <point x="258.0" y="978.0" type="curve" smooth="yes"/>
      <point x="258.0" y="1081.0"/>
      <point x="318.0" y="1153.0"/>
      <point x="474.0" y="1153.0" type="curve" smooth="yes"/>
      <point x="529.0" y="1153.0"/>
      <point x="631.0" y="1145.0"/>
      <point x="708.0" y="1115.0" type="curve"/>
      <point x="737.0" y="1225.0" type="line"/>
      <point x="651.0" y="1259.0"/>
      <point x="542.0" y="1268.0"/>
      <point x="480.0" y="1268.0" type="curve" smooth="yes"/>
      <point x="257.0" y="1268.0"/>
      <point x="124.0" y="1164.0"/>
      <point x="124.0" y="1002.0" type="curve" smooth="yes"/>
      <point x="124.0" y="888.0"/>
      <point x="195.0" y="782.0"/>
    </contour>
  </outline>
</glyph>
<glyph name="seven-deva" format="2">
  <advance width="1097.0"/>
  <unicode hex="096D"/>
  <outline>
    <contour>
      <point x="556.0" y="53.0" type="curve" smooth="yes"/>
      <point x="926.0" y="53.0"/>
      <point x="988.0" y="395.0"/>
      <point x="988.0" y="630.0" type="curve" smooth="yes"/>
      <point x="988.0" y="950.0"/>
      <point x="869.0" y="1102.0"/>
      <point x="667.0" y="1097.0" type="curve" smooth="yes"/>
      <point x="498.0" y="1093.0"/>
      <point x="421.0" y="982.0"/>
      <point x="421.0" y="833.0" type="curve" smooth="yes"/>
      <point x="421.0" y="668.0"/>
      <point x="529.0" y="541.0"/>
      <point x="672.0" y="488.0" type="curve"/>
      <point x="727.0" y="570.0" type="line"/>
      <point x="567.0" y="643.0"/>
      <point x="534.0" y="736.0"/>
      <point x="534.0" y="828.0" type="curve" smooth="yes"/>
      <point x="534.0" y="932.0"/>
      <point x="583.0" y="988.0"/>
      <point x="674.0" y="988.0" type="curve" smooth="yes"/>
      <point x="814.0" y="988.0"/>
      <point x="868.0" y="860.0"/>
      <point x="868.0" y="637.0" type="curve" smooth="yes"/>
      <point x="868.0" y="415.0"/>
      <point x="817.0" y="169.0"/>
      <point x="562.0" y="169.0" type="curve" smooth="yes"/>
      <point x="335.0" y="169.0"/>
      <point x="232.0" y="317.0"/>
      <point x="232.0" y="639.0" type="curve" smooth="yes"/>
      <point x="232.0" y="842.0"/>
      <point x="283.0" y="1070.0"/>
      <point x="362.0" y="1241.0" type="curve"/>
      <point x="245.0" y="1285.0" type="line"/>
      <point x="167.0" y="1110.0"/>
      <point x="110.0" y="888.0"/>
      <point x="107.0" y="637.0" type="curve" smooth="yes"/>
      <point x="103.0" y="359.0"/>
      <point x="193.0" y="53.0"/>
    </contour>
  </outline>
</glyph>
<glyph name="eight-deva" format="2">
  <advance width="815.0"/>
  <unicode hex="096E"/>
  <outline>
    <contour>
      <point x="503.0" y="43.0" type="curve" smooth="yes"/>
      <point x="611.0" y="43.0"/>
      <point x="735.0" y="72.0"/>
      <point x="802.0" y="111.0" type="curve"/>
      <point x="765.0" y="218.0" type="line"/>
      <point x="678.0" y="181.0"/>
      <point x="583.0" y="161.0"/>
      <point x="507.0" y="161.0" type="curve" smooth="yes"/>
      <point x="323.0" y="162.0"/>
      <point x="221.0" y="272.0"/>
      <point x="221.0" y="445.0" type="curve" smooth="yes"/>
      <point x="221.0" y="676.0"/>
      <point x="386.0" y="890.0"/>
      <point x="723.0" y="1201.0" type="curve"/>
      <point x="634.0" y="1280.0" type="line"/>
      <point x="292.0" y="973.0"/>
      <point x="92.0" y="703.0"/>
      <point x="92.0" y="453.0" type="curve" smooth="yes"/>
      <point x="91.0" y="272.0"/>
      <point x="193.0" y="45.0"/>
    </contour>
  </outline>
</glyph>
<glyph name="oe-deva" format="2">
  <advance width="1386.0"/>
  <unicode hex="0973"/>
  <anchor x="1102.0" y="0.0" name="bottom"/>
  <anchor x="907.0" y="1247.0" name="candra"/>
  <anchor x="1108.0" y="1247.0" name="top"/>
  <outline>
    <contour>
      <point x="1040.0" y="1173.0" type="line"/>
      <point x="1165.0" y="1173.0" type="line"/>
      <point x="1165.0" y="1469.0" type="line"/>
      <point x="1040.0" y="1469.0" type="line"/>
    </contour>
    <component base="a-deva"/>
  </outline>
</glyph>
<glyph name="ooe-deva" format="2">
  <advance width="1954.0"/>
  <unicode hex="0974"/>
  <anchor x="1102.0" y="0.0" name="bottom_1"/>
  <anchor x="1655.0" y="0.0" name="bottom_2"/>
  <anchor x="907.0" y="1247.0" name="candra_1"/>
  <anchor x="1553.0" y="1247.0" name="candra_2"/>
  <anchor x="1108.0" y="1247.0" name="top_1"/>
  <anchor x="1656.0" y="1247.0" name="top_2"/>
  <outline>
    <contour>
      <point x="1595.0" y="1173.0" type="line"/>
      <point x="1720.0" y="1173.0" type="line"/>
      <point x="1720.0" y="1469.0" type="line"/>
      <point x="1595.0" y="1469.0" type="line"/>
    </contour>
    <component base="aa-deva"/>
  </outline>
</glyph>
<glyph name="aw-deva" format="2">
  <advance width="1932.0"/>
  <unicode hex="0975"/>
  <anchor x="1102.0" y="0.0" name="bottom_1"/>
  <anchor x="1655.0" y="0.0" name="bottom_2"/>
  <anchor x="907.0" y="1247.0" name="candra_1"/>
  <anchor x="1553.0" y="1247.0" name="candra_2"/>
  <anchor x="1108.0" y="1247.0" name="top_1"/>
  <anchor x="1656.0" y="1247.0" name="top_2"/>
  <outline>
    <contour>
      <point x="1703.0" y="1193.0" type="line"/>
      <point x="1741.0" y="1265.0"/>
      <point x="1756.0" y="1326.0"/>
      <point x="1756.0" y="1375.0" type="curve" smooth="yes"/>
      <point x="1756.0" y="1497.0"/>
      <point x="1665.0" y="1565.0"/>
      <point x="1484.0" y="1596.0" type="curve" smooth="yes"/>
      <point x="1301.0" y="1627.0" type="line" smooth="yes"/>
      <point x="1173.0" y="1650.0"/>
      <point x="1134.0" y="1689.0"/>
      <point x="1132.0" y="1741.0" type="curve" smooth="yes"/>
      <point x="1132.0" y="1751.0"/>
      <point x="1133.0" y="1761.0"/>
      <point x="1135.0" y="1772.0" type="curve"/>
      <point x="1074.0" y="1784.0" type="line"/>
      <point x="1055.0" y="1758.0"/>
      <point x="1046.0" y="1730.0"/>
      <point x="1046.0" y="1703.0" type="curve" smooth="yes"/>
      <point x="1046.0" y="1629.0"/>
      <point x="1109.0" y="1560.0"/>
      <point x="1229.0" y="1539.0" type="curve" smooth="yes"/>
      <point x="1447.0" y="1500.0" type="line" smooth="yes"/>
      <point x="1602.0" y="1472.0"/>
      <point x="1668.0" y="1430.0"/>
      <point x="1668.0" y="1337.0" type="curve" smooth="yes"/>
      <point x="1668.0" y="1312.0"/>
      <point x="1665.0" y="1271.0"/>
      <point x="1647.0" y="1216.0" type="curve"/>
    </contour>
    <contour>
      <point x="1661.0" y="1085.0" type="line"/>
      <point x="1673.0" y="1131.0"/>
      <point x="1681.0" y="1173.0"/>
      <point x="1681.0" y="1210.0" type="curve" smooth="yes"/>
      <point x="1681.0" y="1347.0"/>
      <point x="1601.0" y="1388.0"/>
      <point x="1418.0" y="1416.0" type="curve" smooth="yes"/>
      <point x="1199.0" y="1450.0" type="line" smooth="yes"/>
      <point x="1046.0" y="1472.0"/>
      <point x="1007.0" y="1534.0"/>
      <point x="1007.0" y="1602.0" type="curve" smooth="yes"/>
      <point x="1006.0" y="1615.0"/>
      <point x="1008.0" y="1628.0"/>
      <point x="1011.0" y="1641.0" type="curve"/>
      <point x="943.0" y="1655.0" type="line"/>
      <point x="929.0" y="1624.0"/>
      <point x="923.0" y="1593.0"/>
      <point x="923.0" y="1563.0" type="curve" smooth="yes"/>
      <point x="923.0" y="1463.0"/>
      <point x="994.0" y="1375.0"/>
      <point x="1155.0" y="1353.0" type="curve" smooth="yes"/>
      <point x="1412.0" y="1318.0" type="line" smooth="yes"/>
      <point x="1576.0" y="1293.0"/>
      <point x="1614.0" y="1277.0"/>
      <point x="1614.0" y="1171.0" type="curve" smooth="yes"/>
      <point x="1614.0" y="1151.0"/>
      <point x="1613.0" y="1126.0"/>
      <point x="1611.0" y="1100.0" type="curve"/>
    </contour>
    <component base="aa-deva"/>
  </outline>
</glyph>
<glyph name="jjya-deva" format="2">
  <advance width="1139.0"/>
  <unicode hex="097A"/>
  <anchor x="864.0" y="0.0" name="bottom"/>
  <anchor x="584.0" y="1248.0" name="candra"/>
  <anchor x="352.0" y="48.0" name="nukta"/>
  <anchor x="864.0" y="1247.0" name="top"/>
  <outline>
    <contour>
      <point x="481.0" y="269.0" type="curve" smooth="yes"/>
      <point x="604.0" y="269.0"/>
      <point x="746.0" y="324.0"/>
      <point x="831.0" y="432.0" type="curve"/>
      <point x="834.0" y="597.0" type="line"/>
      <point x="747.0" y="454.0"/>
      <point x="619.0" y="384.0"/>
      <point x="477.0" y="384.0" type="curve" smooth="yes"/>
      <point x="320.0" y="384.0"/>
      <point x="229.0" y="460.0"/>
      <point x="167.0" y="652.0" type="curve"/>
      <point x="140.0" y="586.0" type="line"/>
      <point x="384.0" y="666.0"/>
      <point x="423.0" y="783.0"/>
      <point x="423.0" y="858.0" type="curve" smooth="yes"/>
      <point x="423.0" y="952.0"/>
      <point x="363.0" y="1050.0"/>
      <point x="264.0" y="1160.0" type="curve"/>
      <point x="187.0" y="1156.0" type="line"/>
      <point x="273.0" y="1070.0"/>
      <point x="316.0" y="1008.0"/>
      <point x="313.0" y="908.0" type="curve" smooth="yes"/>
      <point x="308.0" y="820.0"/>
      <point x="248.0" y="739.0"/>
      <point x="55.0" y="670.0" type="curve"/>
      <point x="109.0" y="417.0"/>
      <point x="255.0" y="269.0"/>
    </contour>
    <contour>
      <point x="840.0" y="495.0" type="line"/>
      <point x="910.0" y="564.0" type="line"/>
      <point x="304.0" y="1181.0" type="line"/>
      <point x="239.0" y="1118.0" type="line"/>
    </contour>
    <contour>
      <point x="800.0" y="0.0" type="line"/>
      <point x="926.0" y="0.0" type="line"/>
      <point x="926.0" y="1199.0" type="line"/>
      <point x="800.0" y="1199.0" type="line"/>
    </contour>
    <contour>
      <point x="-12.0" y="1143.0" type="line"/>
      <point x="1152.0" y="1143.0" type="line"/>
      <point x="1152.0" y="1247.0" type="line"/>
      <point x="-12.0" y="1247.0" type="line"/>
    </contour>
  </outline>
</glyph>
<glyph name="gga-deva" format="2">
  <advance width="1137.0"/>
  <unicode hex="097B"/>
  <anchor x="860.0" y="0.0" name="bottom"/>
  <anchor x="796.0" y="1247.0" name="candra"/>
  <anchor x="309.0" y="147.0" name="nukta"/>
  <anchor x="861.0" y="1247.0" name="top"/>
  <outline>
    <contour>
      <point x="90.0" y="-52.0" type="line"/>
      <point x="923.0" y="-52.0" type="line"/>
      <point x="923.0" y="50.0" type="line"/>
      <point x="90.0" y="50.0" type="line"/>
    </contour>
    <component base="ga-deva"/>
  </outline>
</glyph>
<glyph name="jja-deva" format="2">
  <advance width="1418.0"/>
  <unicode hex="097C"/>
  <anchor x="1143.0" y="0.0" name="bottom"/>
  <anchor x="1027.0" y="1247.0" name="candra"/>
  <anchor x="141.0" y="70.0" name="nukta"/>
  <anchor x="1145.0" y="1247.0" name="top"/>
  <outline>
    <contour>
      <point x="114.0" y="-52.0" type="line"/>
      <point x="1204.0" y="-52.0" type="line"/>
      <point x="1204.0" y="49.0" type="line"/>
      <point x="114.0" y="49.0" type="line"/>
    </contour>
    <component base="ja-deva"/>
  </outline>
</glyph>
<glyph name="glottalstop-deva" format="2">
  <advance width="902.0"/>
  <unicode hex="097D"/>
  <outline>
    <contour>
      <point x="337.0" y="0.0" type="line"/>
      <point x="461.0" y="0.0" type="line"/>
      <point x="462.0" y="235.0" type="line" smooth="yes"/>
      <point x="464.0" y="393.0"/>
      <point x="497.0" y="426.0"/>
      <point x="632.0" y="546.0" type="curve" smooth="yes"/>
      <point x="785.0" y="680.0"/>
      <point x="841.0" y="778.0"/>
      <point x="841.0" y="931.0" type="curve" smooth="yes"/>
      <point x="841.0" y="1195.0"/>
      <point x="651.0" y="1266.0"/>
      <point x="444.0" y="1266.0" type="curve" smooth="yes"/>
      <point x="332.0" y="1266.0"/>
      <point x="243.0" y="1246.0"/>
      <point x="162.0" y="1212.0" type="curve"/>
      <point x="194.0" y="1107.0" type="line"/>
      <point x="262.0" y="1130.0"/>
      <point x="343.0" y="1154.0"/>
      <point x="449.0" y="1154.0" type="curve" smooth="yes"/>
      <point x="629.0" y="1154.0"/>
      <point x="718.0" y="1089.0"/>
      <point x="718.0" y="926.0" type="curve" smooth="yes"/>
      <point x="718.0" y="810.0"/>
      <point x="669.0" y="736.0"/>
      <point x="534.0" y="620.0" type="curve" smooth="yes"/>
      <point x="383.0" y="490.0"/>
      <point x="340.0" y="438.0"/>
      <point x="339.0" y="260.0" type="curve" smooth="yes"/>
    </contour>
  </outline>
</glyph>
<glyph name="bba-deva" format="2">
  <advance width="1103.0"/>
  <unicode hex="097F"/>
  <anchor x="826.0" y="0.0" name="bottom"/>
  <anchor x="743.0" y="1247.0" name="candra"/>
  <anchor x="248.0" y="44.0" name="nukta"/>
  <anchor x="826.0" y="1247.0" name="top"/>
  <outline>
    <contour>
      <point x="90.0" y="-52.0" type="line"/>
      <point x="889.0" y="-52.0" type="line"/>
      <point x="889.0" y="50.0" type="line"/>
      <point x="90.0" y="50.0" type="line"/>
    </contour>
    <component base="ba-deva"/>
  </outline>
</glyph>
<glyph name="rightFacingSvasti" format="2">
  <advance width="1622.0"/>
  <unicode hex="0FD5"/>
  <outline>
    <contour>
      <point x="749.0" y="0.0" type="line"/>
      <point x="875.0" y="0.0" type="line"/>
      <point x="875.0" y="1202.0" type="line"/>
      <point x="749.0" y="1202.0" type="line"/>
    </contour>
    <contour>
      <point x="199.0" y="0.0" type="line"/>
      <point x="875.0" y="0.0" type="line"/>
      <point x="875.0" y="105.0" type="line"/>
      <point x="199.0" y="105.0" type="line"/>
    </contour>
    <contour>
      <point x="199.0" y="609.0" type="line"/>
      <point x="325.0" y="609.0" type="line"/>
      <point x="325.0" y="1247.0" type="line"/>
      <point x="199.0" y="1247.0" type="line"/>
    </contour>
    <contour>
      <point x="199.0" y="585.0" type="line"/>
      <point x="1425.0" y="585.0" type="line"/>
      <point x="1425.0" y="690.0" type="line"/>
      <point x="199.0" y="690.0" type="line"/>
    </contour>
    <contour>
      <point x="1299.0" y="0.0" type="line"/>
      <point x="1425.0" y="0.0" type="line"/>
      <point x="1425.0" y="690.0" type="line"/>
      <point x="1299.0" y="690.0" type="line"/>
    </contour>
    <contour>
      <point x="749.0" y="1143.0" type="line"/>
      <point x="1425.0" y="1143.0" type="line"/>
      <point x="1425.0" y="1247.0" type="line"/>
      <point x="749.0" y="1247.0" type="line"/>
    </contour>
  </outline>
</glyph>
<glyph name="d.sups" format="2">
  <advance width="760.0"/>
  <unicode hex="1D48"/>
  <outline>
    <contour>
      <point x="351.0" y="516.0" type="curve" smooth="yes"/>
      <point x="430.0" y="516.0"/>
      <point x="488.0" y="558.0"/>
      <point x="543.0" y="606.0" type="curve"/>
      <point x="550.0" y="606.0" type="line"/>
      <point x="563.0" y="532.0" type="line"/>
      <point x="648.0" y="532.0" type="line"/>
      <point x="648.0" y="1496.0" type="line"/>
      <point x="542.0" y="1496.0" type="line"/>
      <point x="542.0" y="1244.0" type="line"/>
      <point x="548.0" y="1128.0" type="line"/>
      <point x="489.0" y="1176.0"/>
      <point x="431.0" y="1205.0"/>
      <point x="359.0" y="1205.0" type="curve" smooth="yes"/>
      <point x="209.0" y="1205.0"/>
      <point x="71.0" y="1076.0"/>
      <point x="71.0" y="872.0" type="curve" smooth="yes"/>
      <point x="71.0" y="644.0"/>
      <point x="177.0" y="516.0"/>
    </contour>
    <contour>
      <point x="374.0" y="606.0" type="curve" smooth="yes"/>
      <point x="242.0" y="606.0"/>
      <point x="181.0" y="705.0"/>
      <point x="181.0" y="872.0" type="curve" smooth="yes"/>
      <point x="181.0" y="1015.0"/>
      <point x="268.0" y="1116.0"/>
      <point x="372.0" y="1116.0" type="curve" smooth="yes"/>
      <point x="425.0" y="1116.0"/>
      <point x="483.0" y="1095.0"/>
      <point x="542.0" y="1042.0" type="curve"/>
      <point x="542.0" y="698.0" type="line"/>
      <point x="481.0" y="639.0"/>
      <point x="430.0" y="606.0"/>
    </contour>
  </outline>
</glyph>
